<svg width="2761" height="958" viewBox="0 0 2761 958" fill="none" xmlns="http://www.w3.org/2000/svg">
<path d="M911.768 537.225C911.768 537.225 911.768 537.225 911.768 537.225C918.482 495.82 919.601 453.434 915.046 411.58C908.138 347.743 887.922 285.166 855.719 229.166C803.305 137.345 717.825 63.9703 617.339 27.3939C517.93 -9.41837 404.809 -9.22404 304.651 28.5482C203.377 66.0998 116.421 141.155 62.9684 235.903C8.4539 331.49 -11.8139 446.45 6.6793 555.868C24.6064 664.817 81.0605 767.817 165.424 841.106C248.262 913.82 357.956 956.497 469.487 957.466C536.01 958.28 602.829 944.65 664.043 917.815C705.356 899.747 744.127 875.743 778.861 846.815C786.003 840.884 790.45 832.384 791.174 823.128C791.901 813.876 788.846 804.625 782.73 797.469C776.615 790.312 767.953 785.853 758.7 785.129C749.445 784.402 740.356 787.47 733.384 793.6C704.359 819.182 671.697 840.707 636.598 857.242C584.593 881.794 527.224 895.242 469.396 896.154C372.496 898.025 275.003 863.614 199.496 801.001C122.664 737.953 68.8916 646.802 49.8068 548.078C30.1896 448.987 45.574 342.747 93.6228 252.763C140.693 163.608 219.748 91.0476 314.169 53.0037C407.5 14.8016 515.01 11.2775 611.513 43.9752C708.997 76.4036 794.196 145.045 848.116 233.673C881.222 287.705 902.956 348.857 911.572 412.006C917.247 453.406 917.328 495.649 911.768 537.225Z" fill="#106020"/>
<path d="M468.223 241.492C469.502 241.473 470.894 242.274 472.419 244.141C473.936 245.998 475.511 248.825 477.164 252.65C480.468 260.294 484.029 271.805 488.037 287.199C493.705 308.965 494.094 330.474 490.375 346.498C488.515 354.512 485.635 361.123 481.903 365.71C478.179 370.289 473.626 372.834 468.378 372.801C463.111 372.768 458.657 370.427 455.082 366.171C451.498 361.903 448.801 355.707 447.105 348.006C443.714 332.604 444.358 311.316 449.746 287.808C453.305 272.28 456.53 260.659 459.61 252.914C461.151 249.04 462.645 246.165 464.107 244.263C465.577 242.351 466.945 241.511 468.223 241.492Z" fill="#E34234" stroke="#106020"/>
<path d="M479.908 693.926C490.449 726.204 508.595 762.397 520.482 781.012C552.541 831.215 584.086 858.196 593.295 865.811C602.504 873.425 611.075 877.615 615.02 880.168C644.295 893.311 680.97 903.097 716.242 890.811C735.795 883.999 820.795 834.311 787.795 794.811C757.503 758.552 720.29 804.811 716.242 807.96C684.295 832.811 647.024 836.46 615.02 807.96C585.713 781.861 565.037 753.215 541.033 702.215C534.537 685.215 530.537 676.715 522.533 639.801C519.927 627.782 518.009 608.466 516.033 595.215C515.033 575.215 514.533 568.215 515.533 538.715C519.533 471.715 537.107 419.715 565.533 376.715C576.333 360.378 586.824 346.512 595.341 337.142C618.894 309.442 650.056 290.965 677.84 268.117C686.302 261.157 692.136 256.978 701.03 250.361C719.408 236.688 719.669 236.835 704.353 252.239C687.525 269.165 672.331 285.344 655.36 306.12C650.195 312.442 644.286 319.673 642.228 322.19C611.356 359.926 588.011 407.177 571.061 452.022C557.95 490.784 552.389 521.241 550.661 563.748C550.588 565.535 550.509 567.154 550.438 568.617V568.617C550.094 575.67 549.926 579.112 551.483 580.299C552.966 581.432 556.02 580.514 561.98 578.723L561.997 578.718C563.289 578.33 564.717 577.901 566.295 577.443C590.568 570.397 624.04 556.799 642.589 546.451C678.539 526.393 708.021 501.082 729.623 467.044C757.849 422.57 769.966 371.572 784.906 321.613C786.714 315.565 790.082 303.871 792.39 295.625C802.44 259.706 815.98 222.984 829.981 193.673C833.362 186.597 836.339 180.802 839.888 174.036C841.948 170.107 846.82 161.694 850.715 155.34C860.554 139.282 866.661 129.657 874.76 118.209C878.669 112.166 879.764 110.712 881.478 108.01C882.528 106.354 882.766 105.215 880.497 105.215C858.75 105.215 787.201 140.404 769.402 148.432C733.544 164.607 697.983 184.002 666.077 204.788C654.778 212.149 627.213 231.76 621.802 236.286C620.701 237.207 615.298 241.71 609.794 246.294C581.684 269.704 555.198 297.642 534.125 326.11C516.78 349.54 500.655 376.134 488.98 403.074C478.492 428.562 477.992 431.061 471.244 451.219L468.295 461.311C462.693 451.926 456.429 443.038 449.977 434.213C437.094 416.599 428.835 409.453 416.447 398.914C411.111 394.376 405.965 390.479 400.404 386.823C380.012 373.423 378.062 371.124 346.84 362.112C333.197 358.175 319.384 356.18 305.953 355.265C289.869 354.168 273.156 354.563 257.055 356.703C219.775 361.658 174.875 375.501 130.969 395.578C124.09 398.723 118.366 401.38 118.25 401.48C118.134 401.581 123.537 401.782 130.258 401.926C138.586 402.298 145.895 402.635 153.772 405.073C161.82 407.564 175.362 414.887 183.272 420.25C219.72 444.957 257.441 483.398 300.584 495.46C333.243 504.593 363.285 503.611 396.099 492.339C409.946 486.535 414.889 484.117 416.683 483.069C418.451 482.037 419.222 481.955 419.452 481.537C419.787 480.928 416.775 477.509 416.581 477.248C391.257 443.229 349.822 411.719 309.063 400.694C291.893 396.05 281.13 394.743 259.36 394.657C248.245 394.614 239.464 394.267 239.847 393.887C241.735 392.017 261.119 390.076 280.288 389.837C288.857 389.731 295.71 390.527 303.111 391.387L303.624 391.447C306.906 391.827 314.994 393.548 321.599 395.268C346.959 401.877 368.951 411.968 388.991 426.063C406.534 438.399 423.484 456.823 431.064 471.792C434.135 477.857 433.341 474.728 438.206 486.359C447.283 508.058 452.981 536.902 457.193 582.489C458.26 594.017 461.193 605.743 461.193 617.199C461.193 620.067 460.865 620.881 459.942 620.295C436.505 605.439 415.38 592.976 384.45 592.991C361.752 593.004 339.487 597.309 317.729 604.404C305.081 608.528 291.902 613.472 280.426 619.356L273.566 622.872L281.164 622.921C289.537 622.975 296.787 625.034 305.829 629.926C316.794 635.86 311.793 633.19 321.327 639.801C323.678 641.43 329.375 645.721 333.988 649.337C349.67 661.633 370.299 677.749 392.146 683.401C402.01 685.953 418.894 686.479 429.672 684.57C438.572 682.993 451.584 679.534 459.849 674.958C460.83 674.416 462.042 673.671 462.899 672.946C464.389 671.687 464.483 670.947 462.982 669.448L460.98 667.449L456.978 663.451L443.127 650.217C424.455 633.965 397.763 618.847 363.627 618.395C361.922 618.373 349.412 619.116 349.148 617.719C349.1 617.464 349.173 617.34 349.668 617.038C350.244 616.582 355.5 615.558 361.466 614.892C382.314 612.563 405.834 617.252 427.248 628.007C435.859 632.331 440.761 634.813 450.076 642.769C460.397 651.586 469.219 659.966 473.489 672.946C475.814 680.016 477.396 686.233 479.908 693.926Z" fill="#78B414"/>
<path d="M209.093 360.651C246.614 352.476 287.279 351.503 325.719 357.862C364.134 364.217 397.477 379.47 423.297 398.112C446.213 416.547 458.43 436.342 468.654 456.938C469.087 457.809 469.368 458.517 469.52 459.09C469.672 459.666 469.682 460.067 469.614 460.343C469.552 460.597 469.418 460.774 469.192 460.91C468.952 461.055 468.594 461.16 468.087 461.214C467.161 461.216 466.428 460.951 465.749 460.415C465.046 459.861 464.385 459.006 463.645 457.804C462.905 456.604 462.115 455.105 461.133 453.286C460.154 451.473 458.993 449.359 457.527 446.954C444.989 426.392 436.446 418.353 416.361 400.007L416.341 399.988L416.317 399.971L415.164 399.146C390.831 381.909 358.722 369.543 322.943 363.624C286.595 357.611 248.144 358.53 212.658 366.262L212.648 366.264L212.64 366.267C178.831 374.96 146.347 388.405 123.351 398.979C122.106 399.552 121.392 399.927 120.787 400.238C120.216 400.532 119.744 400.765 118.994 401.064C118.743 401.039 118.483 401.018 118.259 400.998C117.981 400.973 117.747 400.945 117.561 400.901C117.404 400.865 117.329 400.825 117.297 400.804C117.298 400.799 117.299 400.794 117.301 400.788C117.323 400.688 117.411 400.494 117.656 400.178C117.895 399.87 118.256 399.482 118.773 398.993C119.807 398.017 121.429 396.679 123.855 394.839C144.086 380.176 174.464 368.196 209.093 360.651Z" fill="#106020" stroke="#106020"/>
<path d="M761.873 151.264L761.864 151.269C715.837 173.268 665.34 203.79 636.288 224.827C604.884 247.568 554.668 295.41 527.165 336.956C500.298 377.541 487.138 411.538 475.628 448.565C475.148 450.109 474.757 451.662 474.361 453.097C473.963 454.542 473.559 455.876 473.046 457.035C472.534 458.193 471.924 459.151 471.131 459.861C470.368 460.544 469.413 461.015 468.158 461.2C467.55 460.98 467.308 460.734 467.208 460.513C467.095 460.263 467.097 459.907 467.253 459.349C467.408 458.793 467.682 458.152 467.997 457.359C468.306 456.584 468.64 455.696 468.888 454.702L468.889 454.703C479.08 416.878 492.474 378.809 519.019 337.518C548.876 294.418 599.952 241.94 631.898 219.121C670.382 191.633 714.353 164.136 759.82 142.665C802.051 123.675 838.639 106.99 873.877 96.5107C877.276 95.7705 879.751 97.1637 881.093 99.3535C882.358 101.418 882.621 104.206 881.642 106.638C881.622 106.625 881.602 106.61 881.581 106.597C881.193 106.35 880.617 106.048 879.85 105.809C878.308 105.329 876.02 105.111 872.959 106.061C828.422 119.869 803.861 132.256 761.873 151.264Z" fill="#106020" stroke="#106020"/>
<mask id="path-6-outside-1_222_746" maskUnits="userSpaceOnUse" x="850.795" y="434.811" width="1911" height="521" fill="black">
<rect fill="white" x="850.795" y="434.811" width="1911" height="521"/>
<path d="M988.808 816.043C988.808 823.202 972.208 826.781 939.01 826.781H909.847L898.291 826.231L880.958 825.955C861.516 825.955 851.795 822.468 851.795 815.493C851.795 810.537 856.105 805.305 864.726 799.799C873.53 794.109 879.399 786.858 882.334 778.048C885.452 769.054 887.011 742.713 887.011 699.028C887.011 655.342 885.544 628.818 882.609 619.457C879.858 610.095 875.456 603.396 869.403 599.357C858.581 592.199 853.171 586.968 853.171 583.664C853.171 580.36 855.096 577.423 858.948 574.853C870.32 567.144 889.579 563.289 916.725 563.289H921.952C932.407 563.289 939.835 568.612 944.237 579.258C948.639 589.721 952.216 594.952 954.967 594.952C957.719 594.952 962.396 592.382 968.999 587.243C975.785 582.103 983.855 576.964 993.21 571.824C1002.75 566.685 1013.29 564.115 1024.85 564.115C1036.4 564.115 1045.21 567.144 1051.26 573.201C1057.5 579.075 1060.62 586.692 1060.62 596.054C1060.43 605.598 1057.96 612.757 1053.19 617.529C1048.42 622.302 1043.28 624.688 1037.78 624.688C1032.28 624.688 1025.03 622.485 1016.05 618.08C1007.06 613.491 999.538 611.197 993.485 611.197C987.432 611.197 980.829 613.767 973.676 618.906C966.523 623.862 960.378 632.856 955.242 645.889C950.29 658.737 947.814 680.856 947.814 712.243C947.814 743.448 950.015 763.639 954.417 772.816C958.819 781.811 965.605 790.07 974.776 797.596C984.131 805.122 988.808 811.271 988.808 816.043Z"/>
<path d="M1209.73 575.404H1202.58C1192.86 575.404 1183.41 581.002 1174.24 592.199C1165.07 603.396 1160.49 616.428 1160.49 631.296L1159.94 635.701L1159.66 642.585V649.743L1159.94 651.946C1159.94 671.035 1164.06 686.454 1172.32 698.202C1180.57 709.949 1192.86 715.823 1209.18 715.823H1211.11C1223.77 715.823 1234.59 710.867 1243.57 700.955C1252.56 691.043 1257.06 677.919 1257.06 661.582V650.844C1256.51 646.439 1256.23 642.86 1256.23 640.107C1256.23 622.669 1251.37 607.526 1241.65 594.677C1232.11 581.828 1221.47 575.404 1209.73 575.404ZM1185.25 820.173C1172.41 820.173 1161.5 824.67 1152.51 833.665C1143.52 842.659 1139.03 853.947 1139.03 867.53V869.733C1139.03 885.335 1145.17 897.633 1157.46 906.628C1169.75 915.622 1186.53 920.119 1207.81 920.119H1214.96C1240.64 920.119 1261.27 914.245 1276.86 902.498C1292.46 890.75 1300.25 876.983 1300.25 861.198L1299.98 858.995C1299.98 848.533 1295.67 840.089 1287.04 833.665C1278.42 827.424 1268.24 824.303 1256.51 824.303C1249.17 823.386 1243.85 822.927 1240.55 822.927L1231.19 822.101H1226.52L1210.01 820.999L1198.73 820.173H1185.25ZM1354.45 572.375C1354.45 582.838 1347.85 589.537 1334.64 592.474C1321.44 595.228 1314.83 600.642 1314.83 608.719L1315.66 614.501L1316.76 621.109L1318.13 628.267C1319.05 634.325 1319.51 642.86 1319.51 653.873C1319.51 664.886 1316.39 676.267 1310.16 688.014C1292.73 720.503 1259.17 738.308 1209.46 741.429C1193.5 742.53 1183.32 743.907 1178.92 745.559C1169.38 749.23 1164.61 755.379 1164.61 764.006C1164.61 772.633 1171.67 778.69 1185.8 782.178C1187.82 782.728 1206.07 784.472 1240.55 787.409C1275.03 790.162 1298.05 794.476 1309.6 800.35C1334 812.464 1346.2 829.994 1346.2 852.938C1346.2 883.041 1332.72 907.545 1305.75 926.451C1278.97 945.357 1243.85 954.811 1200.38 954.811C1169.75 954.811 1144.25 948.937 1123.89 937.189C1114.54 931.866 1106.93 924.891 1101.06 916.264C1095.37 907.821 1092.53 899.01 1092.53 889.832C1092.53 873.496 1097.39 859.913 1107.11 849.083C1122.7 831.829 1130.5 822.651 1130.5 821.55C1130.5 820.449 1127.1 815.585 1120.32 806.957C1113.53 798.33 1110.14 789.336 1110.14 779.975C1110.14 770.614 1114.54 760.518 1123.34 749.689C1132.33 738.675 1136.83 732.526 1136.83 731.241C1136.83 729.956 1131.32 720.595 1120.32 703.158C1109.31 685.536 1103.81 668.833 1103.81 653.047C1103.81 637.261 1107.2 623.22 1113.99 610.921C1133.25 575.863 1169.11 558.333 1221.56 558.333H1229.54L1267.79 560.811L1281.82 561.362C1286.59 561.545 1291.45 561.637 1296.4 561.637L1325.56 559.71C1344.82 559.71 1354.45 563.931 1354.45 572.375Z"/>
<path d="M1540.44 699.303H1535.76C1511.73 699.303 1491.65 704.718 1475.51 715.547C1459.55 726.194 1451.57 739.501 1451.57 755.47V760.977C1451.57 770.338 1454.41 778.782 1460.1 786.308C1465.97 793.65 1473.49 797.321 1482.66 797.321L1485.96 797.872H1494.21C1513.29 797.872 1528.88 790.07 1540.99 774.468C1546.31 767.677 1548.96 753.727 1548.96 732.618C1548.96 730.966 1548.96 729.314 1548.96 727.662L1549.24 721.054V714.446C1549.24 704.351 1546.31 699.303 1540.44 699.303ZM1406.72 610.371C1406.72 596.788 1417.45 584.673 1438.91 574.027C1460.56 563.197 1482.93 557.782 1506.04 557.782C1506.78 557.782 1507.51 557.782 1508.25 557.782C1530.26 557.782 1547.86 560.444 1561.07 565.767C1587.85 576.413 1603.16 598.99 1607.02 633.499C1607.38 636.986 1607.57 660.114 1607.57 702.882C1607.57 745.467 1608.67 770.43 1610.87 777.772C1613.25 785.115 1619.49 790.529 1629.58 794.017C1639.85 797.504 1644.98 800.808 1644.98 803.929C1644.98 810.537 1641.68 815.585 1635.08 819.072C1621.87 826.047 1608.85 829.535 1596.01 829.535C1583.36 829.535 1573.91 826.598 1567.67 820.724C1556.48 810.261 1550.52 805.03 1549.79 805.03C1549.06 805.03 1538.69 809.711 1518.7 819.072C1498.71 828.25 1481.19 832.839 1466.15 832.839C1443.59 832.839 1425.89 826.598 1413.05 814.116C1400.21 801.634 1393.79 786.491 1393.79 768.686V761.803C1393.79 742.713 1402.05 725.918 1418.55 711.417C1435.06 696.917 1464.78 685.628 1507.7 677.552C1523.29 674.615 1533.1 671.861 1537.13 669.292C1545.2 664.152 1549.24 653.69 1549.24 637.904C1549.24 622.118 1545.02 610.004 1536.58 601.56C1528.15 593.117 1516.87 588.895 1502.74 588.895C1488.62 588.895 1474.96 597.155 1461.75 613.675C1448.73 630.011 1436.8 638.179 1425.98 638.179C1413.14 638.179 1406.72 628.91 1406.72 610.371Z"/>
<path d="M1727.25 824.579C1701.38 824.579 1688.45 820.908 1688.45 813.565C1688.45 807.508 1691.85 802.552 1698.63 798.698C1710.92 791.722 1718.08 785.482 1720.09 779.975C1722.11 774.285 1723.12 747.761 1723.12 700.404C1723.12 652.864 1721.65 625.055 1718.72 616.979C1715.97 608.719 1710.83 601.927 1703.31 596.604C1695.79 591.281 1692.03 586.968 1692.03 583.664C1692.03 580.36 1694.51 577.239 1699.46 574.302C1711.01 567.511 1729.36 564.115 1754.48 564.115C1762 564.115 1767.87 566.685 1772.09 571.824C1773.56 573.66 1775.58 577.698 1778.14 583.939C1780.9 589.996 1782.73 593.025 1783.65 593.025C1787.13 592.841 1792.54 590.363 1799.88 585.591C1825.19 568.52 1848.12 559.985 1868.66 559.985H1878.02C1892.87 559.985 1906.26 563.656 1918.18 570.998C1930.11 578.341 1939.28 589.354 1945.7 604.038C1952.3 618.722 1955.6 650.753 1955.6 700.129C1955.6 749.321 1956.61 776.855 1958.63 782.728C1960.83 788.418 1966.79 793.742 1976.51 798.698C1986.42 803.654 1991.37 808.518 1991.37 813.29C1991.37 821.55 1965.32 825.68 1913.23 825.68H1904.98C1888.47 825.68 1880.22 821.734 1880.22 813.841C1880.22 812.189 1882.23 808.242 1886.27 802.002C1890.3 795.577 1893.06 788.51 1894.52 780.801C1895.99 773.092 1896.72 747.761 1896.72 704.809C1896.72 661.674 1894.06 633.957 1888.75 621.659C1881.41 604.772 1869.21 596.329 1852.15 596.329C1839.68 596.329 1827.58 599.266 1815.84 605.139C1804.28 610.83 1795.84 618.998 1790.53 629.644C1785.39 640.107 1782.82 665.345 1782.82 705.36C1782.82 745.191 1783.92 769.329 1786.12 777.772C1788.32 786.032 1790.98 792.732 1794.1 797.872L1804.28 814.391C1804.28 821.55 1789.88 825.129 1761.09 825.129L1744.3 824.579H1727.25Z"/>
<path d="M2133.06 473.256C2133.06 481.332 2129.57 488.858 2122.6 495.833C2115.82 502.624 2109.03 506.02 2102.24 506.02C2100.78 506.387 2099.58 506.571 2098.67 506.571L2092.61 507.121C2083.44 507.121 2075.19 504.093 2067.85 498.035C2060.7 491.978 2057.12 484.177 2057.12 474.632V469.676C2057.12 460.131 2060.88 452.147 2068.4 445.722C2076.11 439.115 2084.91 435.811 2094.82 435.811H2096.19L2105.54 436.912C2111.23 436.912 2117.1 440.032 2123.15 446.273C2129.39 452.33 2132.51 458.48 2132.51 464.72L2133.06 467.198V473.256ZM2045.57 596.054C2036.03 591.465 2031.26 587.151 2031.26 583.113C2031.26 579.075 2033.19 575.863 2037.04 573.476C2050.43 565.4 2071.61 561.362 2100.59 561.362H2108.57C2118.48 561.362 2124.07 565.951 2125.35 575.128C2126.09 580.084 2126.45 613.491 2126.45 675.349C2126.45 737.023 2127.74 772.449 2130.31 781.627C2132.87 790.621 2139.02 797.596 2148.74 802.552C2158.46 807.325 2163.32 812.189 2163.32 817.145C2163.32 824.12 2140.58 827.607 2095.09 827.607L2086.84 827.883H2053.27C2039.88 827.883 2033.19 824.579 2033.19 817.971C2033.19 812.464 2037.22 807.141 2045.29 802.002C2053.55 796.862 2059.23 791.172 2062.35 784.931C2065.84 778.139 2067.58 762.262 2067.58 737.299L2067.85 728.488V719.953L2068.13 707.012V698.477L2068.4 689.942C2068.4 646.439 2066.94 621.109 2064 613.95C2061.25 606.608 2055.11 600.642 2045.57 596.054Z"/>
<path d="M2294.28 598.807C2294.28 618.447 2309.51 665.07 2339.95 738.675C2344.17 748.954 2347.56 754.094 2350.13 754.094C2352.7 754.094 2357.47 746.66 2364.44 731.792C2389.75 678.194 2402.41 637.72 2402.41 610.371C2402.41 602.478 2401.12 596.054 2398.55 591.098L2395.53 586.142C2391.13 580.268 2388.92 576.138 2388.92 573.752C2388.92 566.593 2400.57 563.014 2423.87 563.014H2441.47C2463.67 563.014 2474.76 567.235 2474.76 575.679C2474.76 580.451 2470.18 587.794 2461.01 597.706C2452.02 607.434 2445.51 616.887 2441.47 626.065C2437.44 635.242 2422.67 673.605 2397.18 741.153C2371.87 808.518 2352.24 854.498 2338.3 879.094C2324.36 903.874 2311.34 921.679 2299.23 932.509C2287.31 943.338 2275.02 948.753 2262.37 948.753H2255.21C2245.68 948.753 2237.51 946 2230.73 940.493C2224.12 935.17 2220.82 929.572 2220.82 923.698C2220.82 918.008 2223.12 913.327 2227.7 909.656C2232.47 906.169 2238.71 904.425 2246.41 904.425L2252.74 904.976C2255.49 905.159 2259.71 905.251 2265.39 905.251C2278.23 905.251 2290.06 896.991 2300.88 880.471C2311.71 863.951 2317.12 847.248 2317.12 830.361C2317.12 813.474 2290.98 749.689 2238.71 639.005C2233.94 628.91 2226.88 618.447 2217.52 607.617C2208.35 596.788 2203.77 589.262 2203.77 585.04C2203.77 578.065 2208.63 573.201 2218.35 570.448C2228.07 567.511 2243.66 566.042 2265.12 566.042C2286.76 566.042 2297.58 570.723 2297.58 580.084C2295.38 589.629 2294.28 595.87 2294.28 598.807Z"/>
<path d="M2655.25 699.303H2650.57C2626.54 699.303 2606.46 704.718 2590.32 715.547C2574.36 726.194 2566.38 739.501 2566.38 755.47V760.977C2566.38 770.338 2569.22 778.782 2574.91 786.308C2580.78 793.65 2588.3 797.321 2597.47 797.321L2600.77 797.872H2609.03C2628.1 797.872 2643.69 790.07 2655.8 774.468C2661.12 767.677 2663.78 753.727 2663.78 732.618C2663.78 730.966 2663.78 729.314 2663.78 727.662L2664.05 721.054V714.446C2664.05 704.351 2661.12 699.303 2655.25 699.303ZM2521.54 610.371C2521.54 596.788 2532.27 584.673 2553.73 574.027C2575.37 563.197 2597.75 557.782 2620.86 557.782C2621.59 557.782 2622.32 557.782 2623.06 557.782C2645.07 557.782 2662.68 560.444 2675.88 565.767C2702.66 576.413 2717.98 598.99 2721.83 633.499C2722.19 636.986 2722.38 660.114 2722.38 702.882C2722.38 745.467 2723.48 770.43 2725.68 777.772C2728.06 785.115 2734.3 790.529 2744.39 794.017C2754.66 797.504 2759.8 800.808 2759.8 803.929C2759.8 810.537 2756.49 815.585 2749.89 819.072C2736.68 826.047 2723.66 829.535 2710.82 829.535C2698.17 829.535 2688.72 826.598 2682.48 820.724C2671.3 810.261 2665.34 805.03 2664.6 805.03C2663.87 805.03 2653.5 809.711 2633.51 819.072C2613.52 828.25 2596 832.839 2580.96 832.839C2558.4 832.839 2540.7 826.598 2527.86 814.116C2515.02 801.634 2508.6 786.491 2508.6 768.686V761.803C2508.6 742.713 2516.86 725.918 2533.37 711.417C2549.87 696.917 2579.59 685.628 2622.51 677.552C2638.1 674.615 2647.91 671.861 2651.95 669.292C2660.02 664.152 2664.05 653.69 2664.05 637.904C2664.05 622.118 2659.83 610.004 2651.4 601.56C2642.96 593.117 2631.68 588.895 2617.55 588.895C2603.43 588.895 2589.77 597.155 2576.56 613.675C2563.54 630.011 2551.62 638.179 2540.79 638.179C2527.96 638.179 2521.54 628.91 2521.54 610.371Z"/>
</mask>
<path d="M988.808 816.043C988.808 823.202 972.208 826.781 939.01 826.781H909.847L898.291 826.231L880.958 825.955C861.516 825.955 851.795 822.468 851.795 815.493C851.795 810.537 856.105 805.305 864.726 799.799C873.53 794.109 879.399 786.858 882.334 778.048C885.452 769.054 887.011 742.713 887.011 699.028C887.011 655.342 885.544 628.818 882.609 619.457C879.858 610.095 875.456 603.396 869.403 599.357C858.581 592.199 853.171 586.968 853.171 583.664C853.171 580.36 855.096 577.423 858.948 574.853C870.32 567.144 889.579 563.289 916.725 563.289H921.952C932.407 563.289 939.835 568.612 944.237 579.258C948.639 589.721 952.216 594.952 954.967 594.952C957.719 594.952 962.396 592.382 968.999 587.243C975.785 582.103 983.855 576.964 993.21 571.824C1002.75 566.685 1013.29 564.115 1024.85 564.115C1036.4 564.115 1045.21 567.144 1051.26 573.201C1057.5 579.075 1060.62 586.692 1060.62 596.054C1060.43 605.598 1057.96 612.757 1053.19 617.529C1048.42 622.302 1043.28 624.688 1037.78 624.688C1032.28 624.688 1025.03 622.485 1016.05 618.08C1007.06 613.491 999.538 611.197 993.485 611.197C987.432 611.197 980.829 613.767 973.676 618.906C966.523 623.862 960.378 632.856 955.242 645.889C950.29 658.737 947.814 680.856 947.814 712.243C947.814 743.448 950.015 763.639 954.417 772.816C958.819 781.811 965.605 790.07 974.776 797.596C984.131 805.122 988.808 811.271 988.808 816.043Z" fill="#106020"/>
<path d="M1209.73 575.404H1202.58C1192.86 575.404 1183.41 581.002 1174.24 592.199C1165.07 603.396 1160.49 616.428 1160.49 631.296L1159.94 635.701L1159.66 642.585V649.743L1159.94 651.946C1159.94 671.035 1164.06 686.454 1172.32 698.202C1180.57 709.949 1192.86 715.823 1209.18 715.823H1211.11C1223.77 715.823 1234.59 710.867 1243.57 700.955C1252.56 691.043 1257.06 677.919 1257.06 661.582V650.844C1256.51 646.439 1256.23 642.86 1256.23 640.107C1256.23 622.669 1251.37 607.526 1241.65 594.677C1232.11 581.828 1221.47 575.404 1209.73 575.404ZM1185.25 820.173C1172.41 820.173 1161.5 824.67 1152.51 833.665C1143.52 842.659 1139.03 853.947 1139.03 867.53V869.733C1139.03 885.335 1145.17 897.633 1157.46 906.628C1169.75 915.622 1186.53 920.119 1207.81 920.119H1214.96C1240.64 920.119 1261.27 914.245 1276.86 902.498C1292.46 890.75 1300.25 876.983 1300.25 861.198L1299.98 858.995C1299.98 848.533 1295.67 840.089 1287.04 833.665C1278.42 827.424 1268.24 824.303 1256.51 824.303C1249.17 823.386 1243.85 822.927 1240.55 822.927L1231.19 822.101H1226.52L1210.01 820.999L1198.73 820.173H1185.25ZM1354.45 572.375C1354.45 582.838 1347.85 589.537 1334.64 592.474C1321.44 595.228 1314.83 600.642 1314.83 608.719L1315.66 614.501L1316.76 621.109L1318.13 628.267C1319.05 634.325 1319.51 642.86 1319.51 653.873C1319.51 664.886 1316.39 676.267 1310.16 688.014C1292.73 720.503 1259.17 738.308 1209.46 741.429C1193.5 742.53 1183.32 743.907 1178.92 745.559C1169.38 749.23 1164.61 755.379 1164.61 764.006C1164.61 772.633 1171.67 778.69 1185.8 782.178C1187.82 782.728 1206.07 784.472 1240.55 787.409C1275.03 790.162 1298.05 794.476 1309.6 800.35C1334 812.464 1346.2 829.994 1346.2 852.938C1346.2 883.041 1332.72 907.545 1305.75 926.451C1278.97 945.357 1243.85 954.811 1200.38 954.811C1169.75 954.811 1144.25 948.937 1123.89 937.189C1114.54 931.866 1106.93 924.891 1101.06 916.264C1095.37 907.821 1092.53 899.01 1092.53 889.832C1092.53 873.496 1097.39 859.913 1107.11 849.083C1122.7 831.829 1130.5 822.651 1130.5 821.55C1130.5 820.449 1127.1 815.585 1120.32 806.957C1113.53 798.33 1110.14 789.336 1110.14 779.975C1110.14 770.614 1114.54 760.518 1123.34 749.689C1132.33 738.675 1136.83 732.526 1136.83 731.241C1136.83 729.956 1131.32 720.595 1120.32 703.158C1109.31 685.536 1103.81 668.833 1103.81 653.047C1103.81 637.261 1107.2 623.22 1113.99 610.921C1133.25 575.863 1169.11 558.333 1221.56 558.333H1229.54L1267.79 560.811L1281.82 561.362C1286.59 561.545 1291.45 561.637 1296.4 561.637L1325.56 559.71C1344.82 559.71 1354.45 563.931 1354.45 572.375Z" fill="#106020"/>
<path d="M1540.44 699.303H1535.76C1511.73 699.303 1491.65 704.718 1475.51 715.547C1459.55 726.194 1451.57 739.501 1451.57 755.47V760.977C1451.57 770.338 1454.41 778.782 1460.1 786.308C1465.97 793.65 1473.49 797.321 1482.66 797.321L1485.96 797.872H1494.21C1513.29 797.872 1528.88 790.07 1540.99 774.468C1546.31 767.677 1548.96 753.727 1548.96 732.618C1548.96 730.966 1548.96 729.314 1548.96 727.662L1549.24 721.054V714.446C1549.24 704.351 1546.31 699.303 1540.44 699.303ZM1406.72 610.371C1406.72 596.788 1417.45 584.673 1438.91 574.027C1460.56 563.197 1482.93 557.782 1506.04 557.782C1506.78 557.782 1507.51 557.782 1508.25 557.782C1530.26 557.782 1547.86 560.444 1561.07 565.767C1587.85 576.413 1603.16 598.99 1607.02 633.499C1607.38 636.986 1607.57 660.114 1607.57 702.882C1607.57 745.467 1608.67 770.43 1610.87 777.772C1613.25 785.115 1619.49 790.529 1629.58 794.017C1639.85 797.504 1644.98 800.808 1644.98 803.929C1644.98 810.537 1641.68 815.585 1635.08 819.072C1621.87 826.047 1608.85 829.535 1596.01 829.535C1583.36 829.535 1573.91 826.598 1567.67 820.724C1556.48 810.261 1550.52 805.03 1549.79 805.03C1549.06 805.03 1538.69 809.711 1518.7 819.072C1498.71 828.25 1481.19 832.839 1466.15 832.839C1443.59 832.839 1425.89 826.598 1413.05 814.116C1400.21 801.634 1393.79 786.491 1393.79 768.686V761.803C1393.79 742.713 1402.05 725.918 1418.55 711.417C1435.06 696.917 1464.78 685.628 1507.7 677.552C1523.29 674.615 1533.1 671.861 1537.13 669.292C1545.2 664.152 1549.24 653.69 1549.24 637.904C1549.24 622.118 1545.02 610.004 1536.58 601.56C1528.15 593.117 1516.87 588.895 1502.74 588.895C1488.62 588.895 1474.96 597.155 1461.75 613.675C1448.73 630.011 1436.8 638.179 1425.98 638.179C1413.14 638.179 1406.72 628.91 1406.72 610.371Z" fill="#106020"/>
<path d="M1727.25 824.579C1701.38 824.579 1688.45 820.908 1688.45 813.565C1688.45 807.508 1691.85 802.552 1698.63 798.698C1710.92 791.722 1718.08 785.482 1720.09 779.975C1722.11 774.285 1723.12 747.761 1723.12 700.404C1723.12 652.864 1721.65 625.055 1718.72 616.979C1715.97 608.719 1710.83 601.927 1703.31 596.604C1695.79 591.281 1692.03 586.968 1692.03 583.664C1692.03 580.36 1694.51 577.239 1699.46 574.302C1711.01 567.511 1729.36 564.115 1754.48 564.115C1762 564.115 1767.87 566.685 1772.09 571.824C1773.56 573.66 1775.58 577.698 1778.14 583.939C1780.9 589.996 1782.73 593.025 1783.65 593.025C1787.13 592.841 1792.54 590.363 1799.88 585.591C1825.19 568.52 1848.12 559.985 1868.66 559.985H1878.02C1892.87 559.985 1906.26 563.656 1918.18 570.998C1930.11 578.341 1939.28 589.354 1945.7 604.038C1952.3 618.722 1955.6 650.753 1955.6 700.129C1955.6 749.321 1956.61 776.855 1958.63 782.728C1960.83 788.418 1966.79 793.742 1976.51 798.698C1986.42 803.654 1991.37 808.518 1991.37 813.29C1991.37 821.55 1965.32 825.68 1913.23 825.68H1904.98C1888.47 825.68 1880.22 821.734 1880.22 813.841C1880.22 812.189 1882.23 808.242 1886.27 802.002C1890.3 795.577 1893.06 788.51 1894.52 780.801C1895.99 773.092 1896.72 747.761 1896.72 704.809C1896.72 661.674 1894.06 633.957 1888.75 621.659C1881.41 604.772 1869.21 596.329 1852.15 596.329C1839.68 596.329 1827.58 599.266 1815.84 605.139C1804.28 610.83 1795.84 618.998 1790.53 629.644C1785.39 640.107 1782.82 665.345 1782.82 705.36C1782.82 745.191 1783.92 769.329 1786.12 777.772C1788.32 786.032 1790.98 792.732 1794.1 797.872L1804.28 814.391C1804.28 821.55 1789.88 825.129 1761.09 825.129L1744.3 824.579H1727.25Z" fill="#106020"/>
<path d="M2133.06 473.256C2133.06 481.332 2129.57 488.858 2122.6 495.833C2115.82 502.624 2109.03 506.02 2102.24 506.02C2100.78 506.387 2099.58 506.571 2098.67 506.571L2092.61 507.121C2083.44 507.121 2075.19 504.093 2067.85 498.035C2060.7 491.978 2057.12 484.177 2057.12 474.632V469.676C2057.12 460.131 2060.88 452.147 2068.4 445.722C2076.11 439.115 2084.91 435.811 2094.82 435.811H2096.19L2105.54 436.912C2111.23 436.912 2117.1 440.032 2123.15 446.273C2129.39 452.33 2132.51 458.48 2132.51 464.72L2133.06 467.198V473.256ZM2045.57 596.054C2036.03 591.465 2031.26 587.151 2031.26 583.113C2031.26 579.075 2033.19 575.863 2037.04 573.476C2050.43 565.4 2071.61 561.362 2100.59 561.362H2108.57C2118.48 561.362 2124.07 565.951 2125.35 575.128C2126.09 580.084 2126.45 613.491 2126.45 675.349C2126.45 737.023 2127.74 772.449 2130.31 781.627C2132.87 790.621 2139.02 797.596 2148.74 802.552C2158.46 807.325 2163.32 812.189 2163.32 817.145C2163.32 824.12 2140.58 827.607 2095.09 827.607L2086.84 827.883H2053.27C2039.88 827.883 2033.19 824.579 2033.19 817.971C2033.19 812.464 2037.22 807.141 2045.29 802.002C2053.55 796.862 2059.23 791.172 2062.35 784.931C2065.84 778.139 2067.58 762.262 2067.58 737.299L2067.85 728.488V719.953L2068.13 707.012V698.477L2068.4 689.942C2068.4 646.439 2066.94 621.109 2064 613.95C2061.25 606.608 2055.11 600.642 2045.57 596.054Z" fill="#106020"/>
<path d="M2294.28 598.807C2294.28 618.447 2309.51 665.07 2339.95 738.675C2344.17 748.954 2347.56 754.094 2350.13 754.094C2352.7 754.094 2357.47 746.66 2364.44 731.792C2389.75 678.194 2402.41 637.72 2402.41 610.371C2402.41 602.478 2401.12 596.054 2398.55 591.098L2395.53 586.142C2391.13 580.268 2388.92 576.138 2388.92 573.752C2388.92 566.593 2400.57 563.014 2423.87 563.014H2441.47C2463.67 563.014 2474.76 567.235 2474.76 575.679C2474.76 580.451 2470.18 587.794 2461.01 597.706C2452.02 607.434 2445.51 616.887 2441.47 626.065C2437.44 635.242 2422.67 673.605 2397.18 741.153C2371.87 808.518 2352.24 854.498 2338.3 879.094C2324.36 903.874 2311.34 921.679 2299.23 932.509C2287.31 943.338 2275.02 948.753 2262.37 948.753H2255.21C2245.68 948.753 2237.51 946 2230.73 940.493C2224.12 935.17 2220.82 929.572 2220.82 923.698C2220.82 918.008 2223.12 913.327 2227.7 909.656C2232.47 906.169 2238.71 904.425 2246.41 904.425L2252.74 904.976C2255.49 905.159 2259.71 905.251 2265.39 905.251C2278.23 905.251 2290.06 896.991 2300.88 880.471C2311.71 863.951 2317.12 847.248 2317.12 830.361C2317.12 813.474 2290.98 749.689 2238.71 639.005C2233.94 628.91 2226.88 618.447 2217.52 607.617C2208.35 596.788 2203.77 589.262 2203.77 585.04C2203.77 578.065 2208.63 573.201 2218.35 570.448C2228.07 567.511 2243.66 566.042 2265.12 566.042C2286.76 566.042 2297.58 570.723 2297.58 580.084C2295.38 589.629 2294.28 595.87 2294.28 598.807Z" fill="#106020"/>
<path d="M2655.25 699.303H2650.57C2626.54 699.303 2606.46 704.718 2590.32 715.547C2574.36 726.194 2566.38 739.501 2566.38 755.47V760.977C2566.38 770.338 2569.22 778.782 2574.91 786.308C2580.78 793.65 2588.3 797.321 2597.47 797.321L2600.77 797.872H2609.03C2628.1 797.872 2643.69 790.07 2655.8 774.468C2661.12 767.677 2663.78 753.727 2663.78 732.618C2663.78 730.966 2663.78 729.314 2663.78 727.662L2664.05 721.054V714.446C2664.05 704.351 2661.12 699.303 2655.25 699.303ZM2521.54 610.371C2521.54 596.788 2532.27 584.673 2553.73 574.027C2575.37 563.197 2597.75 557.782 2620.86 557.782C2621.59 557.782 2622.32 557.782 2623.06 557.782C2645.07 557.782 2662.68 560.444 2675.88 565.767C2702.66 576.413 2717.98 598.99 2721.83 633.499C2722.19 636.986 2722.38 660.114 2722.38 702.882C2722.38 745.467 2723.48 770.43 2725.68 777.772C2728.06 785.115 2734.3 790.529 2744.39 794.017C2754.66 797.504 2759.8 800.808 2759.8 803.929C2759.8 810.537 2756.49 815.585 2749.89 819.072C2736.68 826.047 2723.66 829.535 2710.82 829.535C2698.17 829.535 2688.72 826.598 2682.48 820.724C2671.3 810.261 2665.34 805.03 2664.6 805.03C2663.87 805.03 2653.5 809.711 2633.51 819.072C2613.52 828.25 2596 832.839 2580.96 832.839C2558.4 832.839 2540.7 826.598 2527.86 814.116C2515.02 801.634 2508.6 786.491 2508.6 768.686V761.803C2508.6 742.713 2516.86 725.918 2533.37 711.417C2549.87 696.917 2579.59 685.628 2622.51 677.552C2638.1 674.615 2647.91 671.861 2651.95 669.292C2660.02 664.152 2664.05 653.69 2664.05 637.904C2664.05 622.118 2659.83 610.004 2651.4 601.56C2642.96 593.117 2631.68 588.895 2617.55 588.895C2603.43 588.895 2589.77 597.155 2576.56 613.675C2563.54 630.011 2551.62 638.179 2540.79 638.179C2527.96 638.179 2521.54 628.91 2521.54 610.371Z" fill="#106020"/>
<path d="M988.808 816.043C988.808 823.202 972.208 826.781 939.01 826.781H909.847L898.291 826.231L880.958 825.955C861.516 825.955 851.795 822.468 851.795 815.493C851.795 810.537 856.105 805.305 864.726 799.799C873.53 794.109 879.399 786.858 882.334 778.048C885.452 769.054 887.011 742.713 887.011 699.028C887.011 655.342 885.544 628.818 882.609 619.457C879.858 610.095 875.456 603.396 869.403 599.357C858.581 592.199 853.171 586.968 853.171 583.664C853.171 580.36 855.096 577.423 858.948 574.853C870.32 567.144 889.579 563.289 916.725 563.289H921.952C932.407 563.289 939.835 568.612 944.237 579.258C948.639 589.721 952.216 594.952 954.967 594.952C957.719 594.952 962.396 592.382 968.999 587.243C975.785 582.103 983.855 576.964 993.21 571.824C1002.75 566.685 1013.29 564.115 1024.85 564.115C1036.4 564.115 1045.21 567.144 1051.26 573.201C1057.5 579.075 1060.62 586.692 1060.62 596.054C1060.43 605.598 1057.96 612.757 1053.19 617.529C1048.42 622.302 1043.28 624.688 1037.78 624.688C1032.28 624.688 1025.03 622.485 1016.05 618.08C1007.06 613.491 999.538 611.197 993.485 611.197C987.432 611.197 980.829 613.767 973.676 618.906C966.523 623.862 960.378 632.856 955.242 645.889C950.29 658.737 947.814 680.856 947.814 712.243C947.814 743.448 950.015 763.639 954.417 772.816C958.819 781.811 965.605 790.07 974.776 797.596C984.131 805.122 988.808 811.271 988.808 816.043Z" stroke="#106020" stroke-width="2" mask="url(#path-6-outside-1_222_746)"/>
<path d="M1209.73 575.404H1202.58C1192.86 575.404 1183.41 581.002 1174.24 592.199C1165.07 603.396 1160.49 616.428 1160.49 631.296L1159.94 635.701L1159.66 642.585V649.743L1159.94 651.946C1159.94 671.035 1164.06 686.454 1172.32 698.202C1180.57 709.949 1192.86 715.823 1209.18 715.823H1211.11C1223.77 715.823 1234.59 710.867 1243.57 700.955C1252.56 691.043 1257.06 677.919 1257.06 661.582V650.844C1256.51 646.439 1256.23 642.86 1256.23 640.107C1256.23 622.669 1251.37 607.526 1241.65 594.677C1232.11 581.828 1221.47 575.404 1209.73 575.404ZM1185.25 820.173C1172.41 820.173 1161.5 824.67 1152.51 833.665C1143.52 842.659 1139.03 853.947 1139.03 867.53V869.733C1139.03 885.335 1145.17 897.633 1157.46 906.628C1169.75 915.622 1186.53 920.119 1207.81 920.119H1214.96C1240.64 920.119 1261.27 914.245 1276.86 902.498C1292.46 890.75 1300.25 876.983 1300.25 861.198L1299.98 858.995C1299.98 848.533 1295.67 840.089 1287.04 833.665C1278.42 827.424 1268.24 824.303 1256.51 824.303C1249.17 823.386 1243.85 822.927 1240.55 822.927L1231.19 822.101H1226.52L1210.01 820.999L1198.73 820.173H1185.25ZM1354.45 572.375C1354.45 582.838 1347.85 589.537 1334.64 592.474C1321.44 595.228 1314.83 600.642 1314.83 608.719L1315.66 614.501L1316.76 621.109L1318.13 628.267C1319.05 634.325 1319.51 642.86 1319.51 653.873C1319.51 664.886 1316.39 676.267 1310.16 688.014C1292.73 720.503 1259.17 738.308 1209.46 741.429C1193.5 742.53 1183.32 743.907 1178.92 745.559C1169.38 749.23 1164.61 755.379 1164.61 764.006C1164.61 772.633 1171.67 778.69 1185.8 782.178C1187.82 782.728 1206.07 784.472 1240.55 787.409C1275.03 790.162 1298.05 794.476 1309.6 800.35C1334 812.464 1346.2 829.994 1346.2 852.938C1346.2 883.041 1332.72 907.545 1305.75 926.451C1278.97 945.357 1243.85 954.811 1200.38 954.811C1169.75 954.811 1144.25 948.937 1123.89 937.189C1114.54 931.866 1106.93 924.891 1101.06 916.264C1095.37 907.821 1092.53 899.01 1092.53 889.832C1092.53 873.496 1097.39 859.913 1107.11 849.083C1122.7 831.829 1130.5 822.651 1130.5 821.55C1130.5 820.449 1127.1 815.585 1120.32 806.957C1113.53 798.33 1110.14 789.336 1110.14 779.975C1110.14 770.614 1114.54 760.518 1123.34 749.689C1132.33 738.675 1136.83 732.526 1136.83 731.241C1136.83 729.956 1131.32 720.595 1120.32 703.158C1109.31 685.536 1103.81 668.833 1103.81 653.047C1103.81 637.261 1107.2 623.22 1113.99 610.921C1133.25 575.863 1169.11 558.333 1221.56 558.333H1229.54L1267.79 560.811L1281.82 561.362C1286.59 561.545 1291.45 561.637 1296.4 561.637L1325.56 559.71C1344.82 559.71 1354.45 563.931 1354.45 572.375Z" stroke="#106020" stroke-width="2" mask="url(#path-6-outside-1_222_746)"/>
<path d="M1540.44 699.303H1535.76C1511.73 699.303 1491.65 704.718 1475.51 715.547C1459.55 726.194 1451.57 739.501 1451.57 755.47V760.977C1451.57 770.338 1454.41 778.782 1460.1 786.308C1465.97 793.65 1473.49 797.321 1482.66 797.321L1485.96 797.872H1494.21C1513.29 797.872 1528.88 790.07 1540.99 774.468C1546.31 767.677 1548.96 753.727 1548.96 732.618C1548.96 730.966 1548.96 729.314 1548.96 727.662L1549.24 721.054V714.446C1549.24 704.351 1546.31 699.303 1540.44 699.303ZM1406.72 610.371C1406.72 596.788 1417.45 584.673 1438.91 574.027C1460.56 563.197 1482.93 557.782 1506.04 557.782C1506.78 557.782 1507.51 557.782 1508.25 557.782C1530.26 557.782 1547.86 560.444 1561.07 565.767C1587.85 576.413 1603.16 598.99 1607.02 633.499C1607.38 636.986 1607.57 660.114 1607.57 702.882C1607.57 745.467 1608.67 770.43 1610.87 777.772C1613.25 785.115 1619.49 790.529 1629.58 794.017C1639.85 797.504 1644.98 800.808 1644.98 803.929C1644.98 810.537 1641.68 815.585 1635.08 819.072C1621.87 826.047 1608.85 829.535 1596.01 829.535C1583.36 829.535 1573.91 826.598 1567.67 820.724C1556.48 810.261 1550.52 805.03 1549.79 805.03C1549.06 805.03 1538.69 809.711 1518.7 819.072C1498.71 828.25 1481.19 832.839 1466.15 832.839C1443.59 832.839 1425.89 826.598 1413.05 814.116C1400.21 801.634 1393.79 786.491 1393.79 768.686V761.803C1393.79 742.713 1402.05 725.918 1418.55 711.417C1435.06 696.917 1464.78 685.628 1507.7 677.552C1523.29 674.615 1533.1 671.861 1537.13 669.292C1545.2 664.152 1549.24 653.69 1549.24 637.904C1549.24 622.118 1545.02 610.004 1536.58 601.56C1528.15 593.117 1516.87 588.895 1502.74 588.895C1488.62 588.895 1474.96 597.155 1461.75 613.675C1448.73 630.011 1436.8 638.179 1425.98 638.179C1413.14 638.179 1406.72 628.91 1406.72 610.371Z" stroke="#106020" stroke-width="2" mask="url(#path-6-outside-1_222_746)"/>
<path d="M1727.25 824.579C1701.38 824.579 1688.45 820.908 1688.45 813.565C1688.45 807.508 1691.85 802.552 1698.63 798.698C1710.92 791.722 1718.08 785.482 1720.09 779.975C1722.11 774.285 1723.12 747.761 1723.12 700.404C1723.12 652.864 1721.65 625.055 1718.72 616.979C1715.97 608.719 1710.83 601.927 1703.31 596.604C1695.79 591.281 1692.03 586.968 1692.03 583.664C1692.03 580.36 1694.51 577.239 1699.46 574.302C1711.01 567.511 1729.36 564.115 1754.48 564.115C1762 564.115 1767.87 566.685 1772.09 571.824C1773.56 573.66 1775.58 577.698 1778.14 583.939C1780.9 589.996 1782.73 593.025 1783.65 593.025C1787.13 592.841 1792.54 590.363 1799.88 585.591C1825.19 568.52 1848.12 559.985 1868.66 559.985H1878.02C1892.87 559.985 1906.26 563.656 1918.18 570.998C1930.11 578.341 1939.28 589.354 1945.7 604.038C1952.3 618.722 1955.6 650.753 1955.6 700.129C1955.6 749.321 1956.61 776.855 1958.63 782.728C1960.83 788.418 1966.79 793.742 1976.51 798.698C1986.42 803.654 1991.37 808.518 1991.37 813.29C1991.37 821.55 1965.32 825.68 1913.23 825.68H1904.98C1888.47 825.68 1880.22 821.734 1880.22 813.841C1880.22 812.189 1882.23 808.242 1886.27 802.002C1890.3 795.577 1893.06 788.51 1894.52 780.801C1895.99 773.092 1896.72 747.761 1896.72 704.809C1896.72 661.674 1894.06 633.957 1888.75 621.659C1881.41 604.772 1869.21 596.329 1852.15 596.329C1839.68 596.329 1827.58 599.266 1815.84 605.139C1804.28 610.83 1795.84 618.998 1790.53 629.644C1785.39 640.107 1782.82 665.345 1782.82 705.36C1782.82 745.191 1783.92 769.329 1786.12 777.772C1788.32 786.032 1790.98 792.732 1794.1 797.872L1804.28 814.391C1804.28 821.55 1789.88 825.129 1761.09 825.129L1744.3 824.579H1727.25Z" stroke="#106020" stroke-width="2" mask="url(#path-6-outside-1_222_746)"/>
<path d="M2133.06 473.256C2133.06 481.332 2129.57 488.858 2122.6 495.833C2115.82 502.624 2109.03 506.02 2102.24 506.02C2100.78 506.387 2099.58 506.571 2098.67 506.571L2092.61 507.121C2083.44 507.121 2075.19 504.093 2067.85 498.035C2060.7 491.978 2057.12 484.177 2057.12 474.632V469.676C2057.12 460.131 2060.88 452.147 2068.4 445.722C2076.11 439.115 2084.91 435.811 2094.82 435.811H2096.19L2105.54 436.912C2111.23 436.912 2117.1 440.032 2123.15 446.273C2129.39 452.33 2132.51 458.48 2132.51 464.72L2133.06 467.198V473.256ZM2045.57 596.054C2036.03 591.465 2031.26 587.151 2031.26 583.113C2031.26 579.075 2033.19 575.863 2037.04 573.476C2050.43 565.4 2071.61 561.362 2100.59 561.362H2108.57C2118.48 561.362 2124.07 565.951 2125.35 575.128C2126.09 580.084 2126.45 613.491 2126.45 675.349C2126.45 737.023 2127.74 772.449 2130.31 781.627C2132.87 790.621 2139.02 797.596 2148.74 802.552C2158.46 807.325 2163.32 812.189 2163.32 817.145C2163.32 824.12 2140.58 827.607 2095.09 827.607L2086.84 827.883H2053.27C2039.88 827.883 2033.19 824.579 2033.19 817.971C2033.19 812.464 2037.22 807.141 2045.29 802.002C2053.55 796.862 2059.23 791.172 2062.35 784.931C2065.84 778.139 2067.58 762.262 2067.58 737.299L2067.85 728.488V719.953L2068.13 707.012V698.477L2068.4 689.942C2068.4 646.439 2066.94 621.109 2064 613.95C2061.25 606.608 2055.11 600.642 2045.57 596.054Z" stroke="#106020" stroke-width="2" mask="url(#path-6-outside-1_222_746)"/>
<path d="M2294.28 598.807C2294.28 618.447 2309.51 665.07 2339.95 738.675C2344.17 748.954 2347.56 754.094 2350.13 754.094C2352.7 754.094 2357.47 746.66 2364.44 731.792C2389.75 678.194 2402.41 637.72 2402.41 610.371C2402.41 602.478 2401.12 596.054 2398.55 591.098L2395.53 586.142C2391.13 580.268 2388.92 576.138 2388.92 573.752C2388.92 566.593 2400.57 563.014 2423.87 563.014H2441.47C2463.67 563.014 2474.76 567.235 2474.76 575.679C2474.76 580.451 2470.18 587.794 2461.01 597.706C2452.02 607.434 2445.51 616.887 2441.47 626.065C2437.44 635.242 2422.67 673.605 2397.18 741.153C2371.87 808.518 2352.24 854.498 2338.3 879.094C2324.36 903.874 2311.34 921.679 2299.23 932.509C2287.31 943.338 2275.02 948.753 2262.37 948.753H2255.21C2245.68 948.753 2237.51 946 2230.73 940.493C2224.12 935.17 2220.82 929.572 2220.82 923.698C2220.82 918.008 2223.12 913.327 2227.7 909.656C2232.47 906.169 2238.71 904.425 2246.41 904.425L2252.74 904.976C2255.49 905.159 2259.71 905.251 2265.39 905.251C2278.23 905.251 2290.06 896.991 2300.88 880.471C2311.71 863.951 2317.12 847.248 2317.12 830.361C2317.12 813.474 2290.98 749.689 2238.71 639.005C2233.94 628.91 2226.88 618.447 2217.52 607.617C2208.35 596.788 2203.77 589.262 2203.77 585.04C2203.77 578.065 2208.63 573.201 2218.35 570.448C2228.07 567.511 2243.66 566.042 2265.12 566.042C2286.76 566.042 2297.58 570.723 2297.58 580.084C2295.38 589.629 2294.28 595.87 2294.28 598.807Z" stroke="#106020" stroke-width="2" mask="url(#path-6-outside-1_222_746)"/>
<path d="M2655.25 699.303H2650.57C2626.54 699.303 2606.46 704.718 2590.32 715.547C2574.36 726.194 2566.38 739.501 2566.38 755.47V760.977C2566.38 770.338 2569.22 778.782 2574.91 786.308C2580.78 793.65 2588.3 797.321 2597.47 797.321L2600.77 797.872H2609.03C2628.1 797.872 2643.69 790.07 2655.8 774.468C2661.12 767.677 2663.78 753.727 2663.78 732.618C2663.78 730.966 2663.78 729.314 2663.78 727.662L2664.05 721.054V714.446C2664.05 704.351 2661.12 699.303 2655.25 699.303ZM2521.54 610.371C2521.54 596.788 2532.27 584.673 2553.73 574.027C2575.37 563.197 2597.75 557.782 2620.86 557.782C2621.59 557.782 2622.32 557.782 2623.06 557.782C2645.07 557.782 2662.68 560.444 2675.88 565.767C2702.66 576.413 2717.98 598.99 2721.83 633.499C2722.19 636.986 2722.38 660.114 2722.38 702.882C2722.38 745.467 2723.48 770.43 2725.68 777.772C2728.06 785.115 2734.3 790.529 2744.39 794.017C2754.66 797.504 2759.8 800.808 2759.8 803.929C2759.8 810.537 2756.49 815.585 2749.89 819.072C2736.68 826.047 2723.66 829.535 2710.82 829.535C2698.17 829.535 2688.72 826.598 2682.48 820.724C2671.3 810.261 2665.34 805.03 2664.6 805.03C2663.87 805.03 2653.5 809.711 2633.51 819.072C2613.52 828.25 2596 832.839 2580.96 832.839C2558.4 832.839 2540.7 826.598 2527.86 814.116C2515.02 801.634 2508.6 786.491 2508.6 768.686V761.803C2508.6 742.713 2516.86 725.918 2533.37 711.417C2549.87 696.917 2579.59 685.628 2622.51 677.552C2638.1 674.615 2647.91 671.861 2651.95 669.292C2660.02 664.152 2664.05 653.69 2664.05 637.904C2664.05 622.118 2659.83 610.004 2651.4 601.56C2642.96 593.117 2631.68 588.895 2617.55 588.895C2603.43 588.895 2589.77 597.155 2576.56 613.675C2563.54 630.011 2551.62 638.179 2540.79 638.179C2527.96 638.179 2521.54 628.91 2521.54 610.371Z" stroke="#106020" stroke-width="2" mask="url(#path-6-outside-1_222_746)"/>
</svg>
