<svg width="973" height="947" viewBox="0 0 973 947" fill="none" xmlns="http://www.w3.org/2000/svg">
<path d="M453.596 613.029H453.597L454.832 613.045C488.945 613.497 515.619 628.622 534.278 644.882L548.119 658.122L552.119 662.122L554.119 664.122C555.619 665.622 555.526 666.362 554.037 667.622C553.18 668.347 551.969 669.092 550.989 669.635C542.729 674.213 529.726 677.674 520.832 679.251C510.061 681.161 493.189 680.635 483.332 678.082C461.499 672.427 440.885 656.303 425.213 644.001C420.603 640.384 414.91 636.091 412.561 634.461C403.033 627.846 408.031 630.518 397.073 624.581C388.037 619.687 380.792 617.627 372.425 617.573L364.832 617.524L371.687 614.006C383.155 608.12 396.326 603.173 408.965 599.047C430.708 591.949 452.958 587.642 475.641 587.629C506.55 587.614 527.661 600.083 551.082 614.946C552.004 615.532 552.332 614.718 552.332 611.848C552.332 600.387 549.401 588.655 548.335 577.122C544.125 531.513 538.431 502.656 529.36 480.946C524.499 469.31 525.292 472.44 522.223 466.372C514.648 451.396 497.71 432.964 480.179 420.622C460.153 406.52 438.176 396.424 412.832 389.812C406.232 388.091 398.149 386.37 394.87 385.989L394.357 385.93C386.961 385.069 380.112 384.273 371.549 384.379C352.393 384.618 333.022 386.56 331.136 388.431C330.753 388.811 339.528 389.158 350.636 389.201C372.391 389.287 383.146 390.595 400.305 395.241C441.036 406.271 482.443 437.796 507.75 471.831C507.944 472.092 510.954 475.513 510.619 476.122C510.389 476.54 509.619 476.622 507.852 477.655C506.059 478.703 501.119 481.122 487.282 486.929C454.49 498.206 424.468 499.189 391.832 490.052C348.718 477.984 311.022 439.525 274.599 414.806C266.694 409.441 253.161 402.114 245.119 399.622C241.327 398.447 241.619 398.622 238.119 397.622C236.908 397.276 236.119 397.122 221.621 396.473C214.905 396.329 209.505 396.128 209.621 396.027C209.737 395.927 215.457 393.269 222.332 390.122C266.208 370.036 311.077 356.186 348.332 351.229C364.422 349.088 381.124 348.693 397.197 349.79C410.619 350.706 424.423 352.702 438.056 356.641C469.257 365.657 471.206 367.958 491.584 381.363C497.142 385.021 502.284 388.92 507.616 393.46C519.995 404.004 528.249 411.154 541.123 428.776C547.571 437.605 553.568 446.529 559.166 455.918L562.376 445.79C569.119 425.622 569.619 423.122 580.1 397.622C591.767 370.669 607.881 344.063 625.214 320.622C646.273 292.14 672.741 264.189 700.832 240.768C706.332 236.182 711.732 231.677 712.832 230.755C718.239 226.227 745.786 206.607 757.077 199.242C788.961 178.446 824.498 159.042 860.332 142.86C878.119 134.827 949.619 99.6221 971.352 99.6221C973.56 99.6221 973.143 100.57 972.393 102.279L972.332 102.418C971.573 104.15 970.35 107.791 966.213 113.168C955.348 127.29 951.448 133.663 941.687 149.612L941.59 149.771C937.698 156.128 932.829 164.545 930.77 168.476C927.224 175.245 924.249 181.043 920.87 188.122C906.879 217.447 893.348 254.186 883.304 290.122C880.998 298.372 877.632 310.072 875.825 316.122C860.896 366.106 848.787 417.128 820.58 461.622C798.992 495.677 769.53 520.999 733.605 541.067C715.069 551.42 681.619 565.024 657.363 572.073C655.784 572.532 654.355 572.962 653.063 573.351L653.05 573.354C647.095 575.146 644.043 576.064 642.56 574.931C641.005 573.743 641.173 570.299 641.516 563.243C641.587 561.779 641.666 560.159 641.739 558.372C643.466 515.845 649.023 485.373 662.125 446.593C679.064 401.727 702.393 354.454 733.244 316.7C735.301 314.182 741.206 306.947 746.367 300.622C763.327 279.836 778.51 263.649 795.327 246.716C810.633 231.304 810.372 231.157 792.006 244.837C783.118 251.457 777.288 255.638 768.832 262.601C763.332 267.129 754.189 274.724 748.514 279.478C728.055 296.614 708.734 314.573 690.25 334.752C676.15 350.146 673.123 353.708 659.752 370.63C617.727 423.821 593.316 477.124 584.191 535.622C581.083 555.549 580.881 592.7 583.775 612.122C585.75 625.38 588.648 635.826 590.786 647.23C591.159 649.215 593.479 657.099 595.943 664.752C620.489 740.981 664.619 780.622 711.119 840.622L704.619 845.122L689.119 855.122L665.619 867.622L643.619 877.622L620.119 887.122L600.619 893.622L582.619 898.622L557.119 904.622L543.619 907.122C543.522 907.025 546.572 905.952 550.204 904.675C554.468 903.175 559.542 901.391 561.293 900.563C576.992 893.139 583.989 887.68 591.655 877.494C596.972 870.427 599.015 866.598 601.988 858.122C604.67 850.475 604.795 849.306 604.81 831.622C604.833 804.37 601.257 787.408 585.281 738.985C580.216 723.634 576.196 706.42 570.619 688.622L565.344 673.049C564.615 670.941 563.899 668.845 563.222 666.783C563.327 667.107 562.002 663.152 561.174 660.737L558.332 654.811C556.119 649.622 548.067 643.284 541.222 637.43C531.913 629.471 527.014 626.987 518.41 622.661C497.01 611.901 473.506 607.21 452.672 609.54C446.71 610.206 441.405 611.173 440.882 611.687C440.709 611.856 440.315 612.113 440.363 612.369C440.454 612.855 442.946 612.888 453.593 613.029H453.596Z" fill="#184617"/>
<path opacity="0.97" d="M732.618 873.06C725.48 862.195 718.342 851.33 711.203 840.465C684.048 858.829 654.611 873.93 623.757 885.436C575.694 903.389 524.256 912.52 472.588 912.982C247.993 920.329 38.5115 727.927 28.1294 501.804C27.4521 491.694 27.1209 481.767 27.1191 471.622C21.3639 234.537 235.649 21.3169 472.588 27.1221C473.09 27.1221 473.591 27.1229 474.092 27.1245C555.566 27.2297 636.949 47.9605 708.463 89.7298C737.719 106.749 765.305 127.136 790.619 150.484C769.134 123.573 743.954 99.2433 715.829 78.532C647.194 27.5834 560.527 0.0700286 474.181 0.124696C473.651 0.122946 473.12 0.12207 472.588 0.12207C221.303 -6.00406 -5.9449 220.062 0.11914 471.622C0.120965 482.371 0.471901 492.894 1.19009 503.614C12.4656 743.229 231.166 949.227 472.588 946.262C527.882 946.776 583.523 938.134 636.128 919.823C669.897 908.089 702.383 892.413 732.618 873.06Z" fill="#184717"/>
<path fill-rule="evenodd" clip-rule="evenodd" d="M552.229 400.803C541.616 402.794 536.564 385.18 541.026 361.649C547.481 327.672 551.429 326.955 560.349 358.055C566.501 379.595 562.856 398.825 552.229 400.803Z" fill="#E34234"/>
</svg>
