<svg width="617" height="606" viewBox="0 0 617 606" fill="none" xmlns="http://www.w3.org/2000/svg">
<path d="M289.998 389.996L290.774 390.006C312.206 390.29 328.964 399.793 340.687 410.008L349.383 418.326L351.896 420.839L353.152 422.096C354.095 423.038 354.036 423.503 353.101 424.295C352.562 424.75 351.802 425.218 351.186 425.559C345.997 428.435 337.827 430.61 332.239 431.601C325.472 432.801 314.872 432.47 308.68 430.866C294.963 427.313 282.012 417.183 272.166 409.455C269.269 407.182 265.693 404.485 264.217 403.461C258.231 399.305 261.371 400.984 254.487 397.254C248.81 394.179 244.258 392.885 239.001 392.851L234.231 392.82L238.537 390.61C245.743 386.912 254.017 383.804 261.958 381.212C275.618 376.752 289.597 374.047 303.848 374.038C323.266 374.029 336.53 381.863 351.244 391.2C351.823 391.569 352.029 391.057 352.029 389.254C352.029 382.053 350.188 374.683 349.518 367.437C346.873 338.783 343.296 320.653 337.597 307.014C334.543 299.703 335.041 301.67 333.113 297.857C328.354 288.449 317.713 276.869 306.699 269.115C294.117 260.255 280.31 253.912 264.387 249.758C260.241 248.677 255.163 247.595 253.102 247.356L252.78 247.319C248.134 246.778 243.831 246.278 238.451 246.345C226.416 246.495 214.246 247.715 213.061 248.89C212.82 249.129 218.333 249.347 225.312 249.374C238.98 249.428 245.737 250.25 256.517 253.169C282.107 260.099 308.121 279.904 324.02 301.287C324.142 301.451 326.034 303.6 325.823 303.983C325.679 304.245 325.195 304.297 324.084 304.946C322.958 305.605 319.855 307.124 311.161 310.773C290.559 317.857 271.698 318.475 251.194 312.735C224.107 305.153 200.424 280.99 177.541 265.461C172.575 262.09 164.073 257.487 159.02 255.921C156.637 255.183 156.821 255.293 154.622 254.665C153.861 254.447 153.366 254.351 144.257 253.943C140.038 253.852 136.645 253.726 136.718 253.663C136.791 253.6 140.384 251.93 144.704 249.953C172.269 237.333 200.459 228.632 223.864 225.518C233.973 224.173 244.466 223.924 254.564 224.614C262.997 225.189 271.669 226.443 280.234 228.918C299.837 234.582 301.061 236.028 313.864 244.45C317.356 246.748 320.586 249.198 323.936 252.05C331.714 258.674 336.899 263.166 344.987 274.237C349.038 279.784 352.806 285.391 356.323 291.29L358.34 284.927C362.576 272.256 362.89 270.685 369.475 254.665C376.805 237.731 386.929 221.016 397.818 206.289C411.049 188.395 427.678 170.834 445.326 156.12C448.781 153.238 452.174 150.408 452.865 149.829C456.262 146.984 473.569 134.658 480.663 130.031C500.694 116.965 523.02 104.775 545.533 94.608C556.709 89.5615 601.629 67.4434 615.283 67.4434C616.67 67.4434 616.408 68.0392 615.937 69.1126L615.899 69.2C615.422 70.2881 614.653 72.5756 612.054 75.9538C605.228 84.8257 602.778 88.8302 596.646 98.8502L596.585 98.9499C594.139 102.944 591.08 108.232 589.787 110.702C587.559 114.954 585.69 118.597 583.567 123.044C574.777 141.468 566.276 164.55 559.966 187.127C558.517 192.31 556.402 199.661 555.267 203.461C545.888 234.864 538.28 266.919 520.559 294.873C506.996 316.268 488.487 332.177 465.916 344.785C454.271 351.29 433.255 359.836 418.016 364.265C417.026 364.553 416.13 364.822 415.319 365.066L415.307 365.07C411.565 366.196 409.648 366.772 408.716 366.061C407.739 365.314 407.844 363.151 408.06 358.718C408.105 357.798 408.155 356.78 408.2 355.657C409.285 328.939 412.777 309.795 421.008 285.431C431.65 257.244 446.307 227.544 465.689 203.825C466.982 202.243 470.691 197.697 473.934 193.723C484.589 180.664 494.128 170.495 504.693 159.857C514.31 150.174 514.146 150.081 502.607 158.676C497.023 162.835 493.36 165.462 488.048 169.836C484.592 172.681 478.848 177.453 475.283 180.44C462.429 191.205 450.29 202.488 438.678 215.166C429.819 224.837 427.918 227.075 419.517 237.707C393.115 271.124 377.778 304.613 372.045 341.364C370.093 353.884 369.966 377.224 371.784 389.426C373.024 397.755 374.845 404.318 376.189 411.483C376.423 412.73 377.88 417.683 379.428 422.492C394.85 470.383 418.862 489.382 448.076 527.077L447.705 535.811L437.967 542.093L423.203 549.947L409.382 556.229L394.617 562.198L382.366 566.281L371.058 569.423L355.037 573.192L346.556 574.763C346.495 574.702 348.411 574.028 350.693 573.225C353.371 572.283 356.559 571.162 357.659 570.642C367.522 565.978 371.918 562.548 376.734 556.149C380.075 551.709 381.359 549.303 383.226 543.978C384.911 539.174 384.99 538.439 384.999 527.329C385.014 510.208 382.767 499.551 372.73 469.129C369.548 459.485 367.022 448.67 363.519 437.488L360.205 427.704C359.744 426.371 359.291 425.046 358.863 423.743C358.987 424.119 358.12 421.531 357.585 419.969L355.799 416.246C354.409 412.986 349.35 409.004 345.049 405.326C339.201 400.326 336.124 398.766 330.718 396.047C317.273 389.287 302.506 386.34 289.417 387.804C285.671 388.223 282.338 388.83 282.01 389.153C281.901 389.259 281.653 389.421 281.684 389.581C281.741 389.887 283.307 389.907 289.997 389.996H289.998Z" fill="#126C36"/>
<path fill-rule="evenodd" clip-rule="evenodd" d="M352.447 242.341C338.655 245.097 332.396 222.345 338.567 191.766C347.494 147.61 352.624 146.615 363.677 186.788C371.298 214.612 366.257 239.603 352.447 242.341Z" fill="#E34234"/>
<path d="M469.275 559.585C462.137 548.72 454.998 537.856 447.86 526.991C431.372 538.344 413.445 547.724 394.602 554.911C365.25 566.124 333.715 571.951 301.928 572.423C163.951 577.853 34.0562 459.502 27.6996 319.946C27.2817 313.708 27.0772 307.582 27.0762 301.32C23.5178 155.06 155.735 23.4896 301.928 27.0771C302.238 27.0771 302.547 27.0777 302.856 27.0787C353.137 27.1745 403.285 38.9381 448.75 63.4739C467.34 73.4802 485.119 85.5553 501.734 99.5622C488.948 81.9927 473.576 65.9744 456.115 52.2761C413.53 18.561 358.099 0.0147799 302.946 0.0788253C302.607 0.0777074 302.267 0.0771481 301.928 0.0771481C141.389 -3.83137 -3.79105 140.585 0.0761715 301.32C0.0773372 308.186 0.301485 314.907 0.760289 321.755C8.01031 474.804 147.125 606.75 301.928 605.703C337.341 606.207 373.079 600.869 406.973 589.298C428.73 581.883 449.706 571.928 469.275 559.585Z" fill="#126C36"/>
</svg>
