<svg xmlns="http://www.w3.org/2000/svg" viewBox="0 0 24 24" fill="#78B414" width="60" height="60">
  <path d="M9.5 3A6.5 6.5 0 0 1 16 9.5c0 1.61-.59 3.09-1.56 4.23l1.48 1.48C16.64 13.97 17 11.8 17 9.5c0-3.87-3.13-7-7-7-1.8 0-3.47.64-4.76 1.71l1.48 1.48C7.41 3.59 8.39 3 9.5 3M5.86 1.5L2.69 4.67 4.1 6.08l1.48-1.48c.88-.88 2.04-1.38 3.24-1.51L5.86 1.5M18 14h-1.5c0 1.38-.56 2.63-1.46 3.54l1.48 1.48C17.5 18.26 18 15.72 18 14m-4 5c0 .55-.45 1-1 1h-2c-.55 0-1-.45-1-1v-1h4v1m2-2H8v-3c0-2.21 1.79-4 4-4s4 1.79 4 4v3z"/>
</svg>

