<svg width="764" height="792" viewBox="0 0 764 792" fill="none" xmlns="http://www.w3.org/2000/svg">
<path d="M361.66 588.711C372.201 620.989 390.347 657.183 402.234 675.797C434.293 726 465.838 752.981 475.047 760.596C484.256 768.211 492.827 772.4 496.772 774.953C526.047 788.096 562.722 797.882 597.993 785.596C617.547 778.785 702.547 729.096 669.547 689.596C639.255 653.337 602.042 699.596 597.993 702.745C566.047 727.596 528.776 731.245 496.772 702.745C467.465 676.647 446.789 648 422.785 597C416.289 580 412.289 571.5 404.285 534.586C401.679 522.567 399.761 503.251 397.785 490C396.785 470 396.285 463 397.285 433.5C401.285 366.5 418.859 314.5 447.285 271.5C458.085 255.163 468.576 241.297 477.093 231.927C500.646 204.227 531.807 185.75 559.592 162.902C568.054 155.942 573.888 151.763 582.782 145.146C601.16 131.473 601.421 131.62 586.105 147.024C569.277 163.95 554.083 180.129 537.112 200.905C531.947 207.227 526.038 214.459 523.98 216.975C493.108 254.711 469.763 301.963 452.813 346.807C439.702 385.569 434.141 416.026 432.413 458.533C432.34 460.32 432.261 461.939 432.19 463.402V463.402C431.846 470.455 431.678 473.897 433.234 475.085C434.718 476.217 437.772 475.299 443.732 473.508L443.749 473.503C445.041 473.115 446.469 472.686 448.047 472.228C472.32 465.182 505.792 451.585 524.341 441.236C560.291 421.178 589.772 395.867 611.375 361.829C639.601 317.355 651.718 266.358 666.657 216.398C668.466 210.351 671.834 198.656 674.142 190.41C684.192 154.491 697.732 117.769 711.733 88.4582C715.114 81.382 718.091 75.5868 721.64 68.8215C723.7 64.8923 728.572 56.4793 732.467 50.1253C742.305 34.0674 748.413 24.4424 756.512 12.9939C760.421 6.95071 761.516 5.4974 763.23 2.79468C764.28 1.13895 764.518 0 762.249 0C740.502 1.70231e-08 668.953 35.1888 651.154 43.2176C615.296 59.3919 579.734 78.7868 547.829 99.5729C536.53 106.934 508.965 126.545 503.554 131.071C502.453 131.993 497.05 136.495 491.546 141.079C463.436 164.489 436.95 192.427 415.877 220.896C398.532 244.325 382.407 270.919 370.732 297.859C360.244 323.347 359.744 325.846 352.996 346.004L350.047 356.096C344.445 346.711 338.181 337.823 331.729 328.998C318.846 311.385 310.586 304.238 298.199 293.699C292.863 289.161 287.717 285.264 282.156 281.608C261.764 268.209 259.814 265.909 228.592 256.898C214.949 252.96 201.136 250.965 187.705 250.05C171.621 248.953 154.908 249.348 138.807 251.488C101.527 256.443 56.6272 270.286 12.7214 290.363C5.84178 293.508 0.117914 296.165 0.00183574 296.265C-0.114243 296.366 5.28941 296.567 12.01 296.711C20.3384 297.083 27.6467 297.42 35.5241 299.858C43.5717 302.349 57.1135 309.673 65.0239 315.035C101.472 339.742 139.193 378.183 182.336 390.246C214.994 399.378 245.037 398.396 277.851 387.124C291.698 381.32 296.641 378.902 298.435 377.854C300.203 376.822 300.974 376.74 301.204 376.322C301.539 375.713 298.527 372.294 298.333 372.033C273.009 338.014 231.574 306.505 190.815 295.479C173.644 290.836 162.882 289.528 141.112 289.442C129.997 289.399 121.216 289.052 121.599 288.673C123.486 286.802 142.871 284.861 162.04 284.622C170.609 284.517 177.462 285.313 184.863 286.172L185.376 286.232C188.658 286.613 196.746 288.333 203.351 290.053C228.711 296.662 250.703 306.753 270.743 320.848C288.286 333.185 305.236 351.608 312.816 366.577C315.887 372.642 315.093 369.514 319.958 381.144C329.035 402.844 334.733 431.687 338.945 477.274C340.012 488.802 342.945 500.528 342.945 511.984C342.945 514.853 342.617 515.666 341.694 515.08C318.257 500.225 297.132 487.761 266.202 487.776C243.504 487.789 221.238 492.094 199.481 499.189C186.833 503.313 173.654 508.257 162.178 514.141L155.318 517.657L162.916 517.706C171.289 517.76 178.539 519.819 187.581 524.711C198.546 530.645 193.545 527.975 203.079 534.586C205.43 536.215 211.127 540.506 215.74 544.122C231.422 556.418 252.051 572.534 273.898 578.187C283.762 580.738 300.645 581.264 311.424 579.355C320.324 577.778 333.336 574.319 341.601 569.744C342.582 569.201 343.794 568.456 344.651 567.732C346.141 566.472 346.235 565.733 344.734 564.233L342.732 562.234L338.729 558.236L324.879 545.002C306.207 528.75 279.515 513.632 245.379 513.18C243.674 513.158 231.164 513.901 230.9 512.504C230.852 512.249 230.925 512.125 231.42 511.823C231.996 511.367 237.252 510.343 243.218 509.677C264.066 507.348 287.586 512.037 309 522.792C317.611 527.116 322.513 529.598 331.828 537.554C342.149 546.371 350.97 554.751 355.241 567.732C357.566 574.801 359.148 581.018 361.66 588.711Z" fill="#78B414"/>
</svg>
