<svg width="480" height="508" viewBox="0 0 480 508" fill="none" xmlns="http://www.w3.org/2000/svg">
<path d="M153.281 322.552L154.057 322.563C175.489 322.847 192.247 332.349 203.97 342.565L212.666 350.883L215.179 353.396L216.435 354.652C217.378 355.595 217.319 356.06 216.384 356.851C215.846 357.307 215.085 357.775 214.469 358.116C209.28 360.992 201.11 363.166 195.522 364.157C188.755 365.357 178.155 365.027 171.963 363.423C158.246 359.87 145.295 349.74 135.449 342.011C132.553 339.739 128.976 337.042 127.5 336.018C121.514 331.862 124.654 333.54 117.77 329.81C112.093 326.736 107.541 325.441 102.284 325.408L97.514 325.377L101.821 323.167C109.026 319.468 117.3 316.361 125.241 313.768C138.901 309.309 152.88 306.603 167.131 306.595C186.549 306.585 199.813 314.419 214.527 323.757C215.107 324.125 215.313 323.614 215.313 321.811C215.313 314.61 213.471 307.24 212.801 299.994C210.157 271.34 206.579 253.21 200.88 239.57C197.826 232.26 198.325 234.226 196.396 230.414C191.637 221.005 180.996 209.425 169.982 201.671C157.4 192.812 143.593 186.469 127.67 182.315C123.524 181.233 118.446 180.152 116.386 179.913L116.063 179.875C111.417 179.335 107.114 178.835 101.734 178.901C89.699 179.051 77.529 180.271 76.3441 181.447C76.1035 181.686 81.6165 181.904 88.5952 181.931C102.263 181.985 109.02 182.807 119.8 185.725C145.39 192.655 171.404 212.461 187.304 233.844C187.425 234.008 189.317 236.157 189.106 236.54C188.962 236.802 188.478 236.854 187.368 237.503C186.241 238.161 183.138 239.681 174.444 243.329C153.842 250.414 134.981 251.032 114.477 245.291C87.3903 237.709 63.7075 213.547 40.8242 198.017C35.8578 194.647 27.3558 190.043 22.3032 188.478C19.9207 187.74 20.1043 187.85 17.9054 187.221C17.1447 187.004 16.6489 186.907 7.54026 186.499C3.32087 186.409 -0.0717256 186.283 0.00115254 186.219C0.0740307 186.156 3.66767 184.486 7.98696 182.509C35.5525 169.89 63.7419 161.189 87.1477 158.074C97.2567 156.73 107.749 156.481 117.848 157.17C126.28 157.746 134.953 159 143.518 161.475C163.12 167.139 164.344 168.584 177.147 177.006C180.639 179.304 183.869 181.754 187.219 184.606C194.997 191.231 200.182 195.723 208.27 206.794C212.321 212.341 216.089 217.947 219.606 223.846L221.623 217.483C225.859 204.813 226.173 203.242 232.758 187.221C240.088 170.288 250.212 153.572 261.102 138.845C274.332 120.951 290.961 103.391 308.609 88.6763C312.065 85.7951 315.457 82.9648 316.148 82.3855C319.545 79.5408 336.852 67.2143 343.946 62.5872C363.977 49.5219 386.304 37.3312 408.817 27.1647C419.992 22.1181 464.912 1.07e-08 478.566 0C479.953 0 479.692 0.595861 479.22 1.6692L479.182 1.75662C478.705 2.84474 477.937 5.13225 475.337 8.5104C468.512 17.3824 466.061 21.3868 459.929 31.4069L459.868 31.5066C457.423 35.5004 454.364 40.7885 453.07 43.2582C450.842 47.5105 448.973 51.1532 446.85 55.6009C438.06 74.0247 429.559 97.1063 423.249 119.683C421.8 124.867 419.686 132.217 418.55 136.018C409.171 167.421 401.563 199.476 383.842 227.43C370.279 248.825 351.77 264.734 329.199 277.342C317.554 283.846 296.538 292.393 281.299 296.822C280.309 297.109 279.413 297.379 278.602 297.623L278.59 297.627C274.848 298.752 272.931 299.329 271.999 298.617C271.022 297.871 271.128 295.707 271.343 291.274C271.388 290.354 271.438 289.337 271.483 288.214C272.568 261.496 276.06 242.352 284.291 217.988C294.933 189.801 309.59 160.1 328.972 136.381C330.265 134.799 333.975 130.254 337.217 126.28C347.872 113.221 357.411 103.052 367.977 92.4132C377.593 82.7304 377.429 82.6381 365.89 91.2327C360.306 95.3917 356.644 98.0184 351.331 102.393C347.875 105.238 342.131 110.009 338.566 112.996C325.712 123.762 313.574 135.045 301.961 147.723C293.103 157.394 291.201 159.632 282.8 170.263C256.398 203.681 241.061 237.169 235.328 273.921C233.376 286.44 233.249 309.781 235.067 321.983C236.308 330.312 238.128 336.875 239.472 344.04C239.706 345.287 241.164 350.24 242.712 355.048C258.133 402.94 282.145 421.938 311.359 459.634L310.989 468.367L301.251 474.65L286.486 482.503L272.665 488.786L257.901 494.754L245.65 498.838L234.341 501.979L218.32 505.749L209.839 507.319C209.778 507.258 211.694 506.584 213.976 505.782C216.655 504.84 219.843 503.719 220.942 503.199C230.805 498.534 235.202 495.105 240.018 488.705C243.358 484.265 244.642 481.86 246.51 476.535C248.195 471.73 248.273 470.996 248.282 459.886C248.297 442.764 246.05 432.108 236.013 401.686C232.831 392.041 230.305 381.226 226.802 370.045L223.488 360.26C223.027 358.928 222.574 357.602 222.146 356.299C222.27 356.675 221.403 354.088 220.868 352.525L219.082 348.803C217.692 345.543 212.633 341.561 208.333 337.883C202.484 332.882 199.407 331.322 194.001 328.604C180.556 321.844 165.789 318.897 152.7 320.361C148.955 320.779 145.622 321.387 145.293 321.71C145.185 321.816 144.937 321.977 144.967 322.138C145.025 322.443 146.59 322.464 153.28 322.552H153.281Z" fill="#A0C747"/>
</svg>
