<svg width="822" height="842" viewBox="0 0 822 842" fill="none" xmlns="http://www.w3.org/2000/svg">
<path d="M816.287 470.573C816.287 470.573 816.287 470.573 816.287 470.573C822.406 434.017 823.418 396.531 819.239 359.542C813.01 304.051 795.002 249.728 766.591 201.226C719.472 120.206 642.855 56.2313 553.648 24.2715C464.622 -8.12969 363.733 -8.20149 273.798 24.7267C183.718 57.1947 105.359 122.434 56.8614 206.195C7.95309 289.693 -10.6457 391.035 5.91412 487.425C21.9854 583.877 73.1258 674.559 148.342 738.647C223.218 803.098 321.572 840.378 421.397 841.447C481.245 842.271 541.417 830.402 596.779 806.712C633.694 790.947 668.476 769.978 699.766 744.572C706.983 738.733 711.531 730.293 712.356 721.046C713.184 711.802 710.22 702.507 704.172 695.271C698.123 688.036 689.501 683.471 680.257 682.647C671.01 681.818 661.898 684.798 654.871 690.866C654.871 690.866 654.871 690.866 654.871 690.866C629.301 713.008 600.578 731.615 569.764 745.946C523.557 767.477 472.648 779.277 421.308 780.197C335.714 782 249.326 752.686 181.897 698.269C114.211 644.206 66.0748 565.452 48.9369 479.481C31.3699 393.619 44.9921 301.244 87.3692 223.349C129.343 145.26 199.763 82.3221 283.137 49.2592C366.323 15.7845 461.787 12.5068 547.959 40.8211C634.252 68.6945 710.519 127.972 759.108 205.762C788.383 252.313 807.863 305.199 815.767 359.989C821.062 396.506 821.253 433.842 816.287 470.573Z" fill="#126C36"/>
<path fill-rule="evenodd" clip-rule="evenodd" d="M389.355 288.313C367.619 288.177 359.442 249.816 370.239 202.708C384.478 140.583 393.466 140.497 409.501 202.085C420.87 245.746 411.091 288.449 389.355 288.313Z" fill="#E34234"/>
<path d="M400.889 608.938C411.429 641.216 426.127 681.106 437.014 700.322C461.827 744.121 475.776 769.822 503.275 786.322C549.126 813.833 601.775 805.072 634.275 788.822C666.775 772.572 687.163 756.322 702.775 742.322C718.388 728.322 712.275 704.322 709.275 697.322C706.275 690.322 683.275 666.322 642.775 697.322C606.246 725.283 598.82 739.822 553.275 739.822C514.032 739.822 486.018 668.227 462.014 617.227C455.518 600.227 451.518 591.727 443.514 554.813C440.908 542.794 438.99 523.478 437.014 510.227C436.014 490.227 435.514 483.227 436.514 453.727C440.514 386.727 458.088 334.727 486.514 291.727C497.313 275.39 507.804 261.524 516.322 252.153C539.875 224.453 571.036 205.976 598.82 183.129C607.282 176.169 613.116 171.99 622.01 165.373C640.389 151.699 640.65 151.846 625.333 167.251C608.505 184.176 593.312 200.355 576.34 221.132C571.176 227.454 565.267 234.685 563.208 237.202C532.336 274.938 508.992 322.189 492.041 367.034C478.93 405.795 473.369 436.253 471.641 478.76C471.569 480.546 471.49 482.165 471.418 483.629V483.629C471.074 490.681 470.907 494.123 472.463 495.311C473.947 496.443 477.001 495.526 482.96 493.735L482.977 493.73C484.269 493.342 485.698 492.912 487.276 492.454C511.548 485.409 545.021 471.811 563.57 461.463C599.519 441.405 629.001 416.094 650.603 382.056C678.829 337.582 690.947 286.584 705.886 236.624C707.694 230.577 711.062 218.883 713.37 210.637C723.421 174.717 736.961 137.996 750.961 108.685C754.343 101.609 757.32 95.8133 760.868 89.048C762.929 85.1189 767.801 76.7058 771.696 70.3519C781.534 54.294 787.642 44.669 795.741 33.2204C799.65 27.1773 800.744 25.724 802.458 23.0212C803.508 21.3655 803.746 20.2266 801.478 20.2266C779.73 20.2266 708.182 55.4153 690.382 63.4441C654.524 79.6185 618.963 99.0133 587.057 119.799C575.759 127.161 548.193 146.772 542.782 151.298C541.682 152.219 536.278 156.722 530.774 161.306C502.664 184.716 476.178 212.654 455.105 241.122C437.76 264.552 421.635 291.145 409.96 318.086C399.473 343.574 398.972 346.073 392.224 366.231L389.275 376.322C383.673 366.938 377.409 358.049 370.957 349.225C358.075 331.611 349.815 324.464 337.427 313.926C332.092 309.388 326.946 305.49 321.384 301.834C300.992 288.435 299.042 286.136 267.82 277.124C254.178 273.187 240.365 271.192 226.933 270.276C210.849 269.18 194.137 269.575 178.035 271.715C140.755 276.669 95.8557 290.513 51.95 310.589C45.0703 313.735 39.3464 316.392 39.2304 316.492C39.1143 316.592 44.5179 316.793 51.2385 316.937C59.5669 317.31 66.8752 317.647 74.7526 320.085C82.8002 322.576 96.342 329.899 104.252 335.262C140.7 359.969 178.422 398.409 221.565 410.472C254.223 419.605 284.265 418.622 317.08 407.351C330.926 401.546 335.869 399.129 337.663 398.081C339.432 397.048 340.203 396.966 340.433 396.549C340.768 395.94 337.755 392.521 337.561 392.26C312.237 358.241 270.802 326.731 230.044 315.706C212.873 311.062 202.111 309.755 180.341 309.669C169.225 309.626 160.444 309.279 160.828 308.899C162.715 307.029 182.099 305.088 201.268 304.849C209.837 304.743 216.69 305.539 224.091 306.399L224.605 306.458C227.886 306.839 235.975 308.559 242.579 310.279C267.94 316.889 289.932 326.98 309.972 341.075C327.515 353.411 344.464 371.834 352.044 386.803C355.115 392.868 354.321 389.74 359.186 401.37C368.263 423.07 373.961 451.913 378.174 497.501C379.24 509.029 382.174 520.755 382.174 532.211C382.174 535.079 381.845 535.893 380.923 535.307C357.486 520.451 336.36 507.988 305.431 508.003C282.732 508.016 260.467 512.321 238.709 519.416C226.062 523.54 212.882 528.484 201.406 534.367L194.547 537.884L202.145 537.933C210.517 537.987 217.767 540.046 226.809 544.938C237.775 550.871 232.773 548.201 242.308 554.813C244.659 556.442 250.355 560.733 254.968 564.348C270.651 576.645 291.279 592.76 313.127 598.413C322.991 600.965 339.874 601.491 350.652 599.582C359.553 598.005 372.565 594.545 380.83 589.97C381.811 589.427 383.023 588.683 383.88 587.958C385.37 586.698 385.463 585.959 383.962 584.46L381.961 582.461L377.958 578.463L364.107 565.229C345.436 548.977 318.744 533.859 284.608 533.407C282.902 533.384 270.393 534.128 270.129 532.731C270.08 532.476 270.154 532.351 270.648 532.05C271.224 531.593 276.48 530.569 282.446 529.904C303.294 527.575 326.814 532.263 348.229 543.018C356.839 547.343 361.741 549.825 371.056 557.78C381.378 566.598 390.199 574.977 394.469 587.958C396.795 595.027 398.377 601.245 400.889 608.938Z" fill="#A0C747"/>
<path d="M389.093 376.727C391.312 376.502 391.845 375.275 390.083 371.727C379.84 351.094 367.581 331.227 344.581 312.727C318.7 294.038 285.281 278.75 246.781 272.38C208.28 266.011 167.551 266.985 129.967 275.174C95.3007 282.727 64.8491 294.727 44.5423 309.445C34.7975 316.832 37.7871 316.328 40.0502 316.586C41.7205 315.929 42.0738 315.579 44.54 314.445C67.5235 303.877 99.9771 290.445 133.745 281.762C169.168 274.044 207.555 273.126 243.842 279.129C280.129 285.132 312.612 297.774 337.005 315.388C357.081 333.727 365.581 341.727 378.081 362.227C383.918 371.801 384.889 376.755 389.093 376.727Z" fill="#126C36"/>
<path d="M389.087 376.726C386.087 375.726 388.426 373.44 389.386 369.584C399.586 331.726 412.999 293.599 439.588 252.244C469.473 209.105 520.588 156.583 552.588 133.726C591.088 106.226 635.086 78.7127 680.588 57.2256C722.818 38.2354 759.448 21.529 794.732 11.038C801.979 9.44531 805.501 17.0113 802.824 22.4257C802.824 22.4257 800.023 19.7095 794.088 21.5498C749.588 35.3469 725.06 47.7188 683.06 66.7314C637.058 88.7188 586.588 119.226 557.562 140.244C526.196 162.957 476.025 210.759 448.562 252.244C421.73 292.777 408.588 326.726 397.086 363.726C395.179 369.86 394.718 375.987 389.087 376.726Z" fill="#126C36"/>
</svg>
