<svg width="937" height="958" viewBox="0 0 937 958" fill="none" xmlns="http://www.w3.org/2000/svg">
<path d="M686.563 902.844C695.086 897.715 701.151 889.437 703.365 879.739C705.581 870.046 703.766 859.727 698.376 851.144C692.985 842.561 684.478 836.444 674.784 834.231C665.087 832.014 654.997 833.881 646.675 839.331C646.675 839.331 646.675 839.331 646.675 839.331C619.139 857.259 593.604 873.604 568.549 880.501C543.544 887.709 511.78 888.597 479.588 889.315C253.794 899.753 40.0614 698.923 40.8546 465.088C30.2912 231.976 238.662 12.7736 479.588 13.7855C563.872 11.9173 649.168 34.7003 720.82 80.9568C748.688 98.8366 774.502 120.041 797.619 143.95C797.619 143.95 797.619 143.95 797.619 143.95C775.417 119.19 750.321 96.9218 722.905 77.8397C652.456 28.4888 566.349 1.71964 479.588 0.390256C232.29 -10.5292 -0.872267 209.556 0.383675 465.088C-10.6427 719.897 217.159 958.354 479.588 956.861C512.9 957.148 547.68 958.575 586.465 949.462C626.209 939.758 657.647 919.915 686.563 902.844Z" fill="#126C36"/>
<path d="M533.864 703.81C539.444 721.599 543.467 738.805 548.536 754.149C564.522 802.549 574.2 820.255 578.894 846.742C583.588 873.229 573.119 879.588 557.453 883.25C533.562 891.353 652.945 879.227 646.185 839.51C638.435 840.745 634.932 836.747 625.926 828.75C590.43 797.234 582.601 752.525 559.205 679.951C556.739 672.301 554.418 664.421 554.044 662.437C551.905 651.038 549.005 640.597 547.029 627.346C544.133 607.933 544.335 570.799 547.445 550.882C556.576 492.412 581.004 439.134 623.057 385.968C636.437 369.054 639.466 365.493 653.576 350.107C672.072 329.937 691.406 311.986 711.879 294.859C717.558 290.107 726.707 282.516 732.211 277.99C740.673 271.03 746.507 266.851 755.401 260.234C773.779 246.561 774.04 246.708 758.724 262.112C741.896 279.038 726.702 295.217 709.731 315.993C704.566 322.315 698.657 329.546 696.599 332.063C665.727 369.799 642.382 417.051 625.432 461.895C612.321 500.657 606.76 531.114 605.032 573.621C604.959 575.408 604.88 577.027 604.809 578.49V578.49C604.465 585.543 604.297 588.985 605.854 590.172C607.337 591.305 610.391 590.387 616.351 588.596L616.368 588.591C617.66 588.203 619.088 587.774 620.667 587.316C644.939 580.27 678.412 566.672 696.96 556.324C732.91 536.266 762.392 510.955 783.994 476.917C812.22 432.443 824.337 381.446 839.277 331.486C841.085 325.438 844.453 313.744 846.761 305.498C856.812 269.579 870.352 232.857 884.352 203.546C887.733 196.47 890.71 190.675 894.259 183.909C896.319 179.98 901.192 171.567 905.086 165.213C914.925 149.155 921.032 139.53 929.132 128.082C933.04 122.039 934.135 120.585 935.849 117.883C936.899 116.227 937.137 115.088 934.868 115.088C913.121 115.088 841.573 150.277 823.773 158.305C787.915 174.48 752.354 193.875 720.448 214.661C709.149 222.022 681.584 241.633 676.173 246.159C675.072 247.08 669.669 251.583 664.165 256.167C636.055 279.577 609.569 307.515 588.496 335.983C571.151 359.413 555.026 386.007 543.351 412.947C532.863 438.435 532.363 440.934 525.615 461.092L522.403 471.216C516.801 461.831 510.8 452.911 504.348 444.086C491.465 426.472 483.206 419.326 470.818 408.787C465.482 404.249 460.337 400.352 454.775 396.696C434.383 383.297 432.433 380.997 401.211 371.985C387.569 368.048 373.755 366.053 360.324 365.138C344.24 364.041 327.527 364.436 311.426 366.576C274.146 371.531 229.246 385.374 185.341 405.451C178.461 408.596 172.737 411.253 172.621 411.353C172.505 411.454 177.909 411.655 184.629 411.799C199.137 412.447 199.927 412.601 201.138 412.947C204.641 413.947 204.348 413.772 208.143 414.946C216.191 417.437 229.733 424.761 237.643 430.123C274.091 454.83 311.812 493.271 354.955 505.333C387.614 514.466 417.656 513.484 450.47 502.212C464.317 496.408 469.26 493.99 471.054 492.942C472.822 491.91 473.593 491.828 473.823 491.41C474.159 490.801 471.146 487.382 470.952 487.121C445.628 453.102 404.193 421.592 363.434 410.567C346.264 405.923 335.501 404.616 313.732 404.53C302.616 404.487 293.835 404.14 294.218 403.76C296.106 401.89 315.49 399.949 334.659 399.71C343.228 399.604 350.081 400.4 357.482 401.26L357.996 401.32C361.277 401.7 369.365 403.421 375.97 405.141C401.331 411.75 423.323 421.841 443.362 435.936C460.905 448.272 477.855 466.696 485.435 481.665C488.506 487.73 487.712 484.601 492.577 496.232C501.654 517.931 507.352 546.775 511.565 592.362C512.631 603.89 515.564 615.616 515.564 627.072C515.564 629.94 515.236 630.754 514.313 630.168C490.876 615.312 469.751 602.849 438.821 602.864C416.123 602.877 393.858 607.182 372.1 614.277C359.453 618.401 346.273 623.345 334.797 629.229L327.937 632.745L335.535 632.794C343.908 632.848 351.158 634.907 360.2 639.799C371.166 645.733 366.164 643.063 375.699 649.674C378.049 651.303 383.746 655.594 388.359 659.21C404.041 671.506 424.67 687.622 446.517 693.275C456.381 695.826 473.265 696.352 484.043 694.443C492.943 692.866 505.955 689.407 514.22 684.832C515.201 684.289 516.413 683.544 517.271 682.819C518.76 681.56 518.854 680.82 517.353 679.321L515.351 677.322L511.349 673.324L497.498 660.09C478.827 643.838 452.134 628.72 417.998 628.268C416.293 628.246 403.783 628.989 403.519 627.592C403.471 627.337 403.544 627.213 404.039 626.911C404.615 626.455 409.871 625.431 415.837 624.765C436.685 622.436 460.205 627.125 481.619 637.88C490.23 642.204 495.132 644.686 504.447 652.642C511.296 658.493 519.854 666.827 522.356 670.325L523.357 671.825L524.858 674.323C525.6 676.486 527.143 680.64 527.86 682.819C530.185 689.889 531.645 696.737 533.864 703.81Z" fill="#A0C747"/>
<path fill-rule="evenodd" clip-rule="evenodd" d="M522.41 402.854C500.609 402.718 492.407 364.242 503.237 316.994C517.518 254.683 526.533 254.596 542.617 316.368C554.019 360.161 544.211 402.991 522.41 402.854Z" fill="#E34234"/>
</svg>
