<svg width="918" height="958" viewBox="0 0 918 958" fill="none" xmlns="http://www.w3.org/2000/svg">
<path d="M911.768 537.225C911.768 537.225 911.768 537.225 911.768 537.225C918.482 495.82 919.601 453.434 915.046 411.58C908.138 347.743 887.922 285.166 855.719 229.166C803.305 137.345 717.825 63.9703 617.339 27.3939C517.93 -9.41837 404.809 -9.22404 304.651 28.5482C203.377 66.0998 116.421 141.155 62.9684 235.903C8.4539 331.49 -11.8139 446.45 6.6793 555.868C24.6064 664.817 81.0605 767.817 165.424 841.106C248.262 913.82 357.956 956.497 469.487 957.466C536.01 958.28 602.829 944.65 664.043 917.815C705.356 899.747 744.127 875.743 778.861 846.815C786.003 840.884 790.45 832.384 791.174 823.128C791.901 813.876 788.846 804.625 782.73 797.469C776.615 790.312 767.953 785.853 758.7 785.129C749.445 784.402 740.356 787.47 733.384 793.6C704.359 819.182 671.697 840.707 636.598 857.242C584.593 881.794 527.224 895.242 469.396 896.154C372.496 898.025 275.003 863.614 199.496 801.001C122.664 737.953 68.8916 646.802 49.8068 548.078C30.1896 448.987 45.574 342.747 93.6228 252.763C140.693 163.608 219.748 91.0476 314.169 53.0037C407.5 14.8016 515.01 11.2775 611.513 43.9752C708.997 76.4036 794.196 145.045 848.116 233.673C881.222 287.705 902.956 348.857 911.572 412.006C917.247 453.406 917.328 495.649 911.768 537.225Z" fill="#126C36"/>
<path fill-rule="evenodd" clip-rule="evenodd" d="M468.374 373.301C446.639 373.165 438.461 334.804 449.258 287.696C463.497 225.571 472.485 225.485 488.521 287.073C499.889 330.735 490.11 373.437 468.374 373.301Z" fill="#E34234"/>
<path d="M479.908 693.926C490.449 726.204 508.595 762.397 520.482 781.012C552.541 831.215 584.086 858.196 593.295 865.811C602.504 873.425 611.075 877.615 615.02 880.168C644.295 893.311 680.97 903.097 716.242 890.811C735.795 883.999 820.795 834.311 787.795 794.811C757.503 758.552 720.29 804.811 716.242 807.96C684.295 832.811 647.024 836.46 615.02 807.96C585.713 781.861 565.037 753.215 541.033 702.215C534.537 685.215 530.537 676.715 522.533 639.801C519.927 627.782 518.009 608.466 516.033 595.215C515.033 575.215 514.533 568.215 515.533 538.715C519.533 471.715 537.107 419.715 565.533 376.715C576.333 360.378 586.824 346.512 595.341 337.142C618.894 309.442 650.056 290.965 677.84 268.117C686.302 261.157 692.136 256.978 701.03 250.361C719.408 236.688 719.669 236.835 704.353 252.239C687.525 269.165 672.331 285.344 655.36 306.12C650.195 312.442 644.286 319.673 642.228 322.19C611.356 359.926 588.011 407.177 571.061 452.022C557.95 490.784 552.389 521.241 550.661 563.748C550.588 565.535 550.509 567.154 550.438 568.617V568.617C550.094 575.67 549.926 579.112 551.483 580.299C552.966 581.432 556.02 580.514 561.98 578.723L561.997 578.718C563.289 578.33 564.717 577.901 566.295 577.443C590.568 570.397 624.04 556.799 642.589 546.451C678.539 526.393 708.021 501.082 729.623 467.044C757.849 422.57 769.966 371.572 784.906 321.613C786.714 315.565 790.082 303.871 792.39 295.625C802.44 259.706 815.98 222.984 829.981 193.673C833.362 186.597 836.339 180.802 839.888 174.036C841.948 170.107 846.82 161.694 850.715 155.34C860.554 139.282 866.661 129.657 874.76 118.209C878.669 112.166 879.764 110.712 881.478 108.01C882.528 106.354 882.766 105.215 880.497 105.215C858.75 105.215 787.201 140.404 769.402 148.432C733.544 164.607 697.983 184.002 666.077 204.788C654.778 212.149 627.213 231.76 621.802 236.286C620.701 237.207 615.298 241.71 609.794 246.294C581.684 269.704 555.198 297.642 534.125 326.11C516.78 349.54 500.655 376.134 488.98 403.074C478.492 428.562 477.992 431.061 471.244 451.219L468.295 461.311C462.693 451.926 456.429 443.038 449.977 434.213C437.094 416.599 428.835 409.453 416.447 398.914C411.111 394.376 405.965 390.479 400.404 386.823C380.012 373.423 378.062 371.124 346.84 362.112C333.197 358.175 319.384 356.18 305.953 355.265C289.869 354.168 273.156 354.563 257.055 356.703C219.775 361.658 174.875 375.501 130.969 395.578C124.09 398.723 118.366 401.38 118.25 401.48C118.134 401.581 123.537 401.782 130.258 401.926C138.586 402.298 145.895 402.635 153.772 405.073C161.82 407.564 175.362 414.887 183.272 420.25C219.72 444.957 257.441 483.398 300.584 495.46C333.243 504.593 363.285 503.611 396.099 492.339C409.946 486.535 414.889 484.117 416.683 483.069C418.451 482.037 419.222 481.955 419.452 481.537C419.787 480.928 416.775 477.509 416.581 477.248C391.257 443.229 349.822 411.719 309.063 400.694C291.893 396.05 281.13 394.743 259.36 394.657C248.245 394.614 239.464 394.267 239.847 393.887C241.735 392.017 261.119 390.076 280.288 389.837C288.857 389.731 295.71 390.527 303.111 391.387L303.624 391.447C306.906 391.827 314.994 393.548 321.599 395.268C346.959 401.877 368.951 411.968 388.991 426.063C406.534 438.399 423.484 456.823 431.064 471.792C434.135 477.857 433.341 474.728 438.206 486.359C447.283 508.058 452.981 536.902 457.193 582.489C458.26 594.017 461.193 605.743 461.193 617.199C461.193 620.067 460.865 620.881 459.942 620.295C436.505 605.439 415.38 592.976 384.45 592.991C361.752 593.004 339.487 597.309 317.729 604.404C305.081 608.528 291.902 613.472 280.426 619.356L273.566 622.872L281.164 622.921C289.537 622.975 296.787 625.034 305.829 629.926C316.794 635.86 311.793 633.19 321.327 639.801C323.678 641.43 329.375 645.721 333.988 649.337C349.67 661.633 370.299 677.749 392.146 683.401C402.01 685.953 418.894 686.479 429.672 684.57C438.572 682.993 451.584 679.534 459.849 674.958C460.83 674.416 462.042 673.671 462.899 672.946C464.389 671.687 464.483 670.947 462.982 669.448L460.98 667.449L456.978 663.451L443.127 650.217C424.455 633.965 397.763 618.847 363.627 618.395C361.922 618.373 349.412 619.116 349.148 617.719C349.1 617.464 349.173 617.34 349.668 617.038C350.244 616.582 355.5 615.558 361.466 614.892C382.314 612.563 405.834 617.252 427.248 628.007C435.859 632.331 440.761 634.813 450.076 642.769C460.397 651.586 469.219 659.966 473.489 672.946C475.814 680.016 477.396 686.233 479.908 693.926Z" fill="#A0C747"/>
<path d="M468.112 461.715C470.332 461.49 470.864 460.264 469.102 456.715C458.859 436.082 446.601 416.215 423.6 397.715C397.72 379.027 364.301 363.738 325.8 357.369C287.299 350.999 246.571 351.973 208.986 360.162C174.32 367.715 143.869 379.716 123.562 394.434C113.817 401.82 116.807 401.316 119.07 401.574C120.74 400.917 121.093 400.568 123.56 399.434C146.543 388.865 178.997 375.434 212.764 366.75C248.188 359.032 286.575 358.114 322.862 364.117C359.149 370.12 391.632 382.763 416.024 400.376C436.1 418.715 444.6 426.715 457.1 447.215C462.938 456.789 463.909 461.743 468.112 461.715Z" fill="#126C36"/>
<path d="M468.106 461.714C465.107 460.714 467.446 458.428 468.406 454.573C478.606 416.714 492.019 378.588 518.607 337.232C548.493 294.093 599.607 241.571 631.607 218.714C670.107 191.214 714.105 163.701 759.607 142.214C801.838 123.224 838.467 106.517 873.752 96.0263C880.998 94.4336 884.521 102 881.843 107.414C881.843 107.414 879.043 104.698 873.107 106.538C828.607 120.335 804.079 132.707 762.079 151.72C716.078 173.707 665.607 204.214 636.582 225.232C605.215 247.946 555.045 295.747 527.582 337.232C500.749 377.765 487.607 411.714 476.106 448.714C474.199 454.848 473.738 460.975 468.106 461.714Z" fill="#126C36"/>
</svg>
