<svg width="2919" height="1278" viewBox="0 0 2919 1278" fill="none" xmlns="http://www.w3.org/2000/svg">
<path d="M931.28 1025.73C938.365 1019.73 942.732 1011.19 943.369 1001.92C944.009 992.665 940.867 983.444 934.685 976.346C928.503 969.248 919.8 964.87 910.541 964.234C901.279 963.593 892.219 966.746 885.305 972.941C855.989 999.25 823.771 1021.68 788.905 1038.99C634.55 1120.88 435.176 1065.58 320.061 930.217C162.002 762.791 176.271 465.871 355.59 312.55C526.948 150.911 830.586 165.643 987.312 349.048C1048.95 417.04 1083.77 508.023 1087.04 600.436C1088.73 642.206 1084.53 684.251 1075.21 725.165L1075.21 725.165C1075.17 725.33 1075.13 725.495 1075.1 725.66C1075.14 725.496 1075.18 725.332 1075.22 725.168L1075.22 725.168C1085.67 684.527 1091.07 642.473 1090.54 600.343C1089.84 507.203 1057.23 413.383 995.768 341.683L995.768 341.683C840.98 149.37 523.915 121.303 335.139 289.07L335.139 289.07C138.74 447.262 110.21 771.045 281.556 963.754L281.556 963.754C401.629 1115.37 633.257 1190.79 817.59 1098.99C858.877 1079.9 896.892 1054.91 931.28 1025.73Z" fill="#126C36"/>
<path d="M657.748 850.725C668.289 883.003 686.435 919.196 698.322 937.811C730.381 988.014 763.795 1014.62 773.004 1022.24C782.212 1029.85 788.915 1034.41 792.86 1036.97C816.393 1052 853.712 1059.15 888.517 1049.73C921.101 1040.91 942.496 1022.5 943.456 1001C943.996 967 908.552 955.597 887.991 970.681C854.737 995.077 823.877 994.014 791.873 965.514C762.566 939.415 742.877 910.014 718.873 859.014C712.377 842.014 708.377 833.514 700.373 796.6C697.767 784.581 695.849 765.265 693.873 752.014C692.873 732.014 692.373 725.014 693.373 695.514C697.373 628.514 714.947 576.514 743.373 533.514C754.173 517.177 764.663 503.311 773.181 493.941C796.734 466.24 827.895 447.763 855.68 424.916C864.142 417.956 869.975 413.777 878.87 407.16C897.248 393.487 897.509 393.633 882.193 409.038C865.365 425.964 850.171 442.142 833.2 462.919C828.035 469.241 822.126 476.472 820.068 478.989C789.196 516.725 765.851 563.976 748.9 608.821C735.79 647.582 730.229 678.04 728.501 720.547C728.428 722.333 728.349 723.952 728.278 725.416V725.416C727.934 732.469 727.766 735.911 729.322 737.098C730.806 738.23 733.86 737.313 739.819 735.522L739.837 735.517C741.129 735.129 742.557 734.699 744.135 734.241C768.408 727.196 801.88 713.598 820.429 703.25C856.379 683.192 885.86 657.881 907.463 623.843C935.689 579.369 947.806 528.371 962.745 478.411C964.554 472.364 967.922 460.67 970.229 452.424C980.28 416.505 993.82 379.783 1007.82 350.472C1011.2 343.396 1014.18 337.6 1017.73 330.835C1019.79 326.906 1024.66 318.493 1028.55 312.139C1038.39 296.081 1044.5 286.456 1052.6 275.008C1056.51 268.964 1057.6 267.511 1059.32 264.808C1060.37 263.153 1060.61 262.014 1058.34 262.014C1036.59 262.014 965.041 297.202 947.242 305.231C911.384 321.406 875.822 340.8 843.917 361.587C832.618 368.948 805.053 388.559 799.642 393.085C798.541 394.006 793.137 398.509 787.634 403.093C759.524 426.503 733.038 454.441 711.964 482.909C694.62 506.339 678.495 532.932 666.82 559.873C656.332 585.361 655.832 587.86 649.084 608.018L645.872 618.141C640.269 608.757 634.269 599.836 627.816 591.012C614.934 573.398 606.674 566.251 594.287 555.713C588.951 551.175 583.805 547.277 578.244 543.622C557.852 530.222 555.902 527.923 524.68 518.911C511.037 514.974 497.224 512.979 483.793 512.063C467.709 510.967 450.996 511.362 434.895 513.502C397.614 518.456 352.715 532.3 308.809 552.376C301.93 555.522 296.206 558.179 296.09 558.279C295.974 558.38 301.377 558.58 308.098 558.724C316.426 559.097 323.735 559.434 331.612 561.872C339.66 564.363 353.201 571.686 361.112 577.049C397.56 601.756 435.281 640.197 478.424 652.259C511.082 661.392 541.125 660.409 573.939 649.138C587.785 643.333 592.729 640.916 594.523 639.868C596.291 638.836 597.062 638.753 597.292 638.336C597.627 637.727 594.615 634.308 594.421 634.047C569.096 600.028 527.662 568.518 486.903 557.493C469.732 552.849 458.97 551.542 437.2 551.456C426.085 551.413 417.304 551.066 417.687 550.686C419.574 548.816 438.958 546.875 458.127 546.636C466.696 546.53 473.55 547.326 480.951 548.186L481.464 548.245C484.746 548.626 492.834 550.346 499.438 552.067C524.799 558.676 546.791 568.767 566.831 582.862C584.374 595.198 601.323 613.621 608.904 628.59C611.975 634.655 611.181 631.527 616.045 643.157C625.123 664.857 630.82 693.701 635.033 739.288C636.1 750.816 639.033 762.542 639.033 773.998C639.033 776.866 638.705 777.68 637.782 777.094C614.345 762.238 593.22 749.775 562.29 749.79C539.591 749.803 517.326 754.108 495.569 761.203C482.921 765.327 469.742 770.271 458.266 776.155L451.406 779.671L459.004 779.72C467.377 779.774 474.627 781.833 483.669 786.725C494.634 792.659 489.633 789.988 499.167 796.6C501.518 798.229 507.215 802.52 511.828 806.135C527.51 818.432 548.139 834.547 569.986 840.2C579.85 842.752 596.733 843.278 607.512 841.369C616.412 839.792 629.424 836.333 637.689 831.757C638.67 831.214 639.882 830.47 640.739 829.745C642.229 828.486 642.322 827.746 640.821 826.247L638.82 824.248L634.817 820.25L620.967 807.016C602.295 790.764 575.603 775.646 541.467 775.194C539.762 775.172 527.252 775.915 526.988 774.518C526.94 774.263 527.013 774.138 527.507 773.837C528.083 773.38 533.339 772.356 539.305 771.691C560.154 769.362 583.674 774.051 605.088 784.806C613.698 789.13 618.601 791.612 627.915 799.568C638.237 808.385 647.058 816.765 651.329 829.745C653.654 836.815 655.236 843.032 657.748 850.725Z" fill="#A0C747"/>
<path fill-rule="evenodd" clip-rule="evenodd" d="M646.578 530.086C624.842 529.95 616.664 491.59 627.461 444.481C641.7 382.357 650.689 382.27 666.724 443.858C678.092 487.52 668.314 530.223 646.578 530.086Z" fill="#E34234"/>
<path d="M646.497 618.5C643.497 617.5 645.836 615.214 646.796 611.359C656.996 573.5 670.409 535.374 696.998 494.019C726.883 450.88 777.998 398.357 809.998 375.5C848.498 348 892.496 320.487 937.998 299C980.228 280.01 1020.47 262.009 1055.76 251.518C1060.97 249.506 1065.6 253.62 1062.33 259.265L1060.05 263.324C1060.05 263.324 1057.43 261.484 1051.5 263.324C1007 277.121 982.47 289.493 940.47 308.506C894.468 330.493 843.998 361 814.972 382.019C783.606 404.732 733.435 452.533 705.972 494.019C679.14 534.552 665.998 568.5 654.496 605.5C652.589 611.634 652.128 617.761 646.497 618.5Z" fill="#126C36"/>
<path d="M646.506 618.5C648.725 618.275 649.258 617.049 647.496 613.5C637.253 592.867 624.994 573 601.994 554.5C576.113 535.812 542.696 520.523 504.195 514.154C465.694 507.785 424.965 508.759 387.381 516.948C352.715 524.501 322.226 537.864 299.297 555.484C294.912 558.854 295.499 558.854 296.997 559.5C300.495 561.009 304.495 560 310.891 558.854C332.82 541.024 356.884 531.003 391.159 523.536C426.582 515.817 464.969 514.899 501.256 520.903C537.543 526.906 570.025 539.548 594.418 557.162C614.494 575.5 622.994 583.5 635.494 604C641.331 613.575 642.302 618.528 646.506 618.5Z" fill="#126C36"/>
<path d="M1147.06 999.252C1147.06 1006.41 1130.46 1009.99 1097.26 1009.99H1068.1L1056.55 1009.44L1039.21 1009.16C1019.77 1009.16 1010.05 1005.68 1010.05 998.702C1010.05 993.746 1014.36 988.514 1022.98 983.008C1031.78 977.318 1037.65 970.067 1040.59 961.257C1043.71 952.262 1045.26 925.922 1045.26 882.237C1045.26 838.551 1043.8 812.027 1040.86 802.666C1038.11 793.304 1033.71 786.605 1027.66 782.566C1016.84 775.408 1011.42 770.177 1011.42 766.873C1011.42 763.569 1013.35 760.632 1017.2 758.062C1028.57 750.353 1047.83 746.498 1074.98 746.498H1080.21C1090.66 746.498 1098.09 751.821 1102.49 762.467C1106.89 772.93 1110.47 778.161 1113.22 778.161C1115.97 778.161 1120.65 775.591 1127.25 770.452C1134.04 765.312 1142.11 760.173 1151.46 755.033C1161 749.894 1171.55 747.324 1183.1 747.324C1194.66 747.324 1203.46 750.353 1209.52 756.41C1215.75 762.284 1218.87 769.901 1218.87 779.262C1218.69 788.807 1216.21 795.966 1211.44 800.738C1206.67 805.511 1201.54 807.897 1196.03 807.897C1190.53 807.897 1183.29 805.694 1174.3 801.289C1165.31 796.7 1157.79 794.406 1151.74 794.406C1145.69 794.406 1139.08 796.975 1131.93 802.115C1124.78 807.071 1118.63 816.065 1113.5 829.098C1108.54 841.946 1106.07 864.065 1106.07 895.452C1106.07 926.657 1108.27 946.848 1112.67 956.025C1117.07 965.02 1123.86 973.279 1133.03 980.805C1142.38 988.331 1147.06 994.48 1147.06 999.252Z" fill="#126C36"/>
<path d="M1367.99 758.613H1360.83C1351.11 758.613 1341.67 764.211 1332.5 775.408C1323.33 786.605 1318.74 799.637 1318.74 814.505L1318.19 818.91L1317.92 825.794V832.952L1318.19 835.155C1318.19 854.244 1322.32 869.663 1330.57 881.41C1338.82 893.158 1351.11 899.032 1367.44 899.032H1369.36C1382.02 899.032 1392.84 894.076 1401.83 884.164C1410.82 874.252 1415.31 861.128 1415.31 844.791V834.053C1414.76 829.648 1414.48 826.069 1414.48 823.316C1414.48 805.878 1409.62 790.735 1399.9 777.886C1390.36 765.037 1379.73 758.613 1367.99 758.613ZM1343.5 1003.38C1330.66 1003.38 1319.75 1007.88 1310.76 1016.87C1301.77 1025.87 1297.28 1037.16 1297.28 1050.74V1052.94C1297.28 1068.54 1303.43 1080.84 1315.71 1089.84C1328 1098.83 1344.79 1103.33 1366.06 1103.33H1373.22C1398.89 1103.33 1419.53 1097.45 1435.12 1085.71C1450.71 1073.96 1458.5 1060.19 1458.5 1044.41L1458.23 1042.2C1458.23 1031.74 1453.92 1023.3 1445.3 1016.87C1436.68 1010.63 1426.5 1007.51 1414.76 1007.51C1407.42 1006.59 1402.1 1006.14 1398.8 1006.14L1389.45 1005.31H1384.77L1368.26 1004.21L1356.98 1003.38H1343.5ZM1512.7 755.584C1512.7 766.047 1506.1 772.746 1492.9 775.683C1479.69 778.436 1473.09 783.851 1473.09 791.928L1473.91 797.71L1475.01 804.318L1476.39 811.476C1477.3 817.534 1477.76 826.069 1477.76 837.082C1477.76 848.095 1474.65 859.476 1468.41 871.223C1450.98 903.712 1417.42 921.517 1367.71 924.638C1351.76 925.739 1341.58 927.116 1337.17 928.768C1327.64 932.439 1322.87 938.588 1322.87 947.215C1322.87 955.842 1329.93 961.899 1344.05 965.387C1346.07 965.937 1364.32 967.681 1398.8 970.618C1433.28 973.371 1456.3 977.685 1467.86 983.559C1492.25 995.673 1504.45 1013.2 1504.45 1036.15C1504.45 1066.25 1490.97 1090.75 1464.01 1109.66C1437.23 1128.57 1402.1 1138.02 1358.63 1138.02C1328 1138.02 1302.51 1132.15 1282.15 1120.4C1272.79 1115.08 1265.18 1108.1 1259.31 1099.47C1253.63 1091.03 1250.78 1082.22 1250.78 1073.04C1250.78 1056.7 1255.64 1043.12 1265.37 1032.29C1280.96 1015.04 1288.75 1005.86 1288.75 1004.76C1288.75 1003.66 1285.36 998.794 1278.57 990.166C1271.79 981.539 1268.39 972.545 1268.39 963.184C1268.39 953.823 1272.79 943.727 1281.6 932.897C1290.59 921.884 1295.08 915.735 1295.08 914.45C1295.08 913.165 1289.58 903.804 1278.57 886.366C1267.57 868.745 1262.06 852.042 1262.06 836.256C1262.06 820.47 1265.46 806.429 1272.24 794.13C1291.5 759.072 1327.36 741.542 1379.82 741.542H1387.8L1426.04 744.02L1440.07 744.571C1444.84 744.754 1449.7 744.846 1454.65 744.846L1483.82 742.919C1503.07 742.919 1512.7 747.14 1512.7 755.584Z" fill="#126C36"/>
<path d="M1698.69 882.512H1694.01C1669.98 882.512 1649.9 887.927 1633.76 898.756C1617.8 909.403 1609.82 922.71 1609.82 938.679V944.186C1609.82 953.547 1612.67 961.991 1618.35 969.517C1624.22 976.859 1631.74 980.53 1640.91 980.53L1644.21 981.081H1652.47C1671.54 981.081 1687.13 973.279 1699.24 957.677C1704.56 950.886 1707.22 936.936 1707.22 915.827C1707.22 914.175 1707.22 912.523 1707.22 910.871L1707.49 904.263V897.655C1707.49 887.56 1704.56 882.512 1698.69 882.512ZM1564.98 793.58C1564.98 779.997 1575.71 767.882 1597.17 757.236C1618.81 746.406 1641.19 740.991 1664.3 740.991C1665.03 740.991 1665.77 740.991 1666.5 740.991C1688.51 740.991 1706.12 743.653 1719.32 748.976C1746.1 759.622 1761.42 782.199 1765.27 816.708C1765.64 820.195 1765.82 843.323 1765.82 886.091C1765.82 928.676 1766.92 953.639 1769.12 960.981C1771.51 968.323 1777.74 973.738 1787.83 977.226C1798.1 980.713 1803.24 984.017 1803.24 987.138C1803.24 993.746 1799.94 998.794 1793.33 1002.28C1780.13 1009.26 1767.1 1012.74 1754.27 1012.74C1741.61 1012.74 1732.16 1009.81 1725.93 1003.93C1714.74 993.47 1708.78 988.239 1708.04 988.239C1707.31 988.239 1696.95 992.92 1676.95 1002.28C1656.96 1011.46 1639.45 1016.05 1624.41 1016.05C1601.85 1016.05 1584.15 1009.81 1571.31 997.325C1558.47 984.843 1552.05 969.7 1552.05 951.895V945.012C1552.05 925.922 1560.3 909.127 1576.81 894.626C1593.32 880.126 1623.03 868.837 1665.95 860.761C1681.54 857.824 1691.35 855.07 1695.39 852.501C1703.46 847.361 1707.49 836.899 1707.49 821.113C1707.49 805.327 1703.28 793.213 1694.84 784.769C1686.4 776.326 1675.12 772.104 1661 772.104C1646.87 772.104 1633.21 780.364 1620 796.884C1606.98 813.22 1595.06 821.388 1584.24 821.388C1571.4 821.388 1564.98 812.119 1564.98 793.58Z" fill="#126C36"/>
<path d="M1885.5 1007.79C1859.64 1007.79 1846.71 1004.12 1846.71 996.774C1846.71 990.717 1850.1 985.761 1856.89 981.907C1869.18 974.931 1876.33 968.691 1878.35 963.184C1880.36 957.494 1881.37 930.97 1881.37 883.613C1881.37 836.073 1879.91 808.264 1876.97 800.188C1874.22 791.928 1869.08 785.136 1861.56 779.813C1854.04 774.49 1850.28 770.177 1850.28 766.873C1850.28 763.569 1852.76 760.448 1857.71 757.511C1869.27 750.72 1887.61 747.324 1912.74 747.324C1920.26 747.324 1926.13 749.894 1930.35 755.033C1931.81 756.869 1933.83 760.907 1936.4 767.148C1939.15 773.205 1940.98 776.234 1941.9 776.234C1945.39 776.05 1950.8 773.572 1958.13 768.8C1983.45 751.729 2006.37 743.194 2026.92 743.194H2036.27C2051.13 743.194 2064.52 746.865 2076.44 754.207C2088.36 761.549 2097.53 772.563 2103.95 787.247C2110.55 801.931 2113.86 833.962 2113.86 883.338C2113.86 932.53 2114.86 960.064 2116.88 965.937C2119.08 971.627 2125.04 976.951 2134.76 981.907C2144.67 986.862 2149.62 991.727 2149.62 996.499C2149.62 1004.76 2123.58 1008.89 2071.49 1008.89H2063.23C2046.72 1008.89 2038.47 1004.94 2038.47 997.05C2038.47 995.398 2040.49 991.451 2044.52 985.211C2048.56 978.786 2051.31 971.719 2052.78 964.01C2054.24 956.301 2054.98 930.97 2054.98 888.018C2054.98 844.883 2052.32 817.166 2047 804.868C2039.66 787.981 2027.47 779.538 2010.41 779.538C1997.94 779.538 1985.83 782.475 1974.09 788.348C1962.54 794.039 1954.1 802.207 1948.78 812.853C1943.64 823.316 1941.08 848.554 1941.08 888.569C1941.08 928.4 1942.18 952.538 1944.38 960.981C1946.58 969.241 1949.24 975.941 1952.36 981.081L1962.54 997.6C1962.54 1004.76 1948.14 1008.34 1919.34 1008.34L1902.56 1007.79H1885.5Z" fill="#126C36"/>
<path d="M2291.31 656.465C2291.31 664.541 2287.83 672.067 2280.86 679.042C2274.07 685.833 2267.28 689.229 2260.5 689.229C2259.03 689.596 2257.84 689.78 2256.92 689.78L2250.87 690.33C2241.7 690.33 2233.44 687.302 2226.11 681.244C2218.95 675.187 2215.38 667.386 2215.38 657.841V652.885C2215.38 643.34 2219.14 635.356 2226.66 628.931C2234.36 622.324 2243.16 619.02 2253.07 619.02H2254.44L2263.8 620.121C2269.48 620.121 2275.35 623.241 2281.41 629.482C2287.64 635.539 2290.76 641.688 2290.76 647.929L2291.31 650.407V656.465ZM2203.82 779.262C2194.28 774.674 2189.51 770.36 2189.51 766.322C2189.51 762.284 2191.44 759.072 2195.29 756.685C2208.68 748.609 2229.87 744.571 2258.85 744.571H2266.83C2276.73 744.571 2282.32 749.16 2283.61 758.337C2284.34 763.293 2284.71 796.7 2284.71 858.558C2284.71 920.232 2285.99 955.658 2288.56 964.836C2291.13 973.83 2297.27 980.805 2306.99 985.761C2316.71 990.534 2321.58 995.398 2321.58 1000.35C2321.58 1007.33 2298.83 1010.82 2253.34 1010.82L2245.09 1011.09H2211.52C2198.14 1011.09 2191.44 1007.79 2191.44 1001.18C2191.44 995.673 2195.48 990.35 2203.55 985.211C2211.8 980.071 2217.49 974.381 2220.6 968.14C2224.09 961.348 2225.83 945.471 2225.83 920.508L2226.11 911.697V903.162L2226.38 890.221V881.686L2226.66 873.151C2226.66 829.648 2225.19 804.318 2222.25 797.159C2219.5 789.817 2213.36 783.851 2203.82 779.262Z" fill="#126C36"/>
<path d="M2452.54 782.016C2452.54 801.656 2467.76 848.279 2498.21 921.884C2502.42 932.163 2505.82 937.303 2508.39 937.303C2510.95 937.303 2515.72 929.869 2522.69 915.001C2548 861.403 2560.66 820.929 2560.66 793.58C2560.66 785.687 2559.38 779.263 2556.81 774.307L2553.78 769.351C2549.38 763.477 2547.18 759.347 2547.18 756.961C2547.18 749.802 2558.83 746.223 2582.12 746.223H2599.73C2621.92 746.223 2633.02 750.444 2633.02 758.888C2633.02 763.66 2628.43 771.003 2619.26 780.914C2610.27 790.643 2603.76 800.096 2599.73 809.274C2595.69 818.451 2580.93 856.814 2555.43 924.362C2530.12 991.727 2510.5 1037.71 2496.56 1062.3C2482.62 1087.08 2469.59 1104.89 2457.49 1115.72C2445.57 1126.55 2433.28 1131.96 2420.62 1131.96H2413.47C2403.93 1131.96 2395.77 1129.21 2388.98 1123.7C2382.38 1118.38 2379.08 1112.78 2379.08 1106.91C2379.08 1101.22 2381.37 1096.54 2385.95 1092.87C2390.72 1089.38 2396.96 1087.63 2404.66 1087.63L2410.99 1088.18C2413.74 1088.37 2417.96 1088.46 2423.65 1088.46C2436.49 1088.46 2448.32 1080.2 2459.14 1063.68C2469.96 1047.16 2475.37 1030.46 2475.37 1013.57C2475.37 996.683 2449.23 932.898 2396.96 822.214C2392.19 812.119 2385.13 801.656 2375.78 790.826C2366.6 779.997 2362.02 772.471 2362.02 768.249C2362.02 761.274 2366.88 756.41 2376.6 753.657C2386.32 750.72 2401.91 749.251 2423.37 749.251C2445.02 749.251 2455.84 753.932 2455.84 763.293C2453.64 772.838 2452.54 779.079 2452.54 782.016Z" fill="#126C36"/>
<path d="M2813.5 882.512H2808.82C2784.8 882.512 2764.71 887.927 2748.57 898.756C2732.61 909.403 2724.64 922.71 2724.64 938.679V944.186C2724.64 953.547 2727.48 961.991 2733.16 969.517C2739.03 976.859 2746.55 980.53 2755.72 980.53L2759.03 981.081H2767.28C2786.36 981.081 2801.95 973.279 2814.05 957.677C2819.37 950.886 2822.03 936.936 2822.03 915.827C2822.03 914.175 2822.03 912.523 2822.03 910.871L2822.31 904.263V897.655C2822.31 887.56 2819.37 882.512 2813.5 882.512ZM2679.79 793.58C2679.79 779.997 2690.52 767.882 2711.98 757.236C2733.62 746.406 2756 740.991 2779.11 740.991C2779.84 740.991 2780.58 740.991 2781.31 740.991C2803.32 740.991 2820.93 743.653 2834.14 748.976C2860.91 759.622 2876.23 782.199 2880.08 816.708C2880.45 820.195 2880.63 843.323 2880.63 886.091C2880.63 928.676 2881.73 953.639 2883.93 960.981C2886.32 968.323 2892.55 973.738 2902.64 977.226C2912.91 980.713 2918.05 984.017 2918.05 987.138C2918.05 993.746 2914.75 998.794 2908.14 1002.28C2894.94 1009.26 2881.92 1012.74 2869.08 1012.74C2856.42 1012.74 2846.97 1009.81 2840.74 1003.93C2829.55 993.47 2823.59 988.239 2822.86 988.239C2822.12 988.239 2811.76 992.92 2791.77 1002.28C2771.77 1011.46 2754.26 1016.05 2739.22 1016.05C2716.66 1016.05 2698.96 1009.81 2686.12 997.325C2673.28 984.843 2666.86 969.7 2666.86 951.895V945.012C2666.86 925.922 2675.11 909.127 2691.62 894.626C2708.13 880.126 2737.84 868.837 2780.76 860.761C2796.35 857.824 2806.16 855.07 2810.2 852.501C2818.27 847.361 2822.31 836.899 2822.31 821.113C2822.31 805.327 2818.09 793.213 2809.65 784.769C2801.21 776.326 2789.93 772.104 2775.81 772.104C2761.69 772.104 2748.02 780.364 2734.81 796.884C2721.79 813.22 2709.87 821.388 2699.05 821.388C2686.21 821.388 2679.79 812.119 2679.79 793.58Z" fill="#126C36"/>
</svg>
