<svg width="2919" height="1278" viewBox="0 0 2919 1278" fill="none" xmlns="http://www.w3.org/2000/svg">
<path d="M931.28 1025.73C938.365 1019.73 942.732 1011.19 943.369 1001.92C944.009 992.665 940.867 983.444 934.685 976.346C928.503 969.248 919.8 964.87 910.541 964.234C901.279 963.593 892.219 966.746 885.305 972.941C855.989 999.25 823.771 1021.68 788.905 1038.99C634.55 1120.88 435.176 1065.58 320.061 930.217C162.002 762.791 176.271 465.871 355.59 312.55C526.948 150.911 830.586 165.643 987.312 349.048C1048.95 417.04 1083.77 508.023 1087.04 600.436C1088.73 642.206 1084.53 684.251 1075.21 725.165L1075.21 725.165C1075.17 725.33 1075.13 725.495 1075.1 725.66C1075.14 725.496 1075.18 725.332 1075.22 725.168L1075.22 725.168C1085.67 684.527 1091.07 642.473 1090.54 600.343C1089.84 507.203 1057.23 413.383 995.768 341.683L995.768 341.683C840.98 149.37 523.915 121.303 335.139 289.07L335.139 289.07C138.74 447.262 110.21 771.045 281.556 963.754L281.556 963.754C401.629 1115.37 633.257 1190.79 817.59 1098.99C858.877 1079.9 896.892 1054.91 931.28 1025.73Z" fill="#126C36"/>
<path d="M657.856 850.725C668.396 883.003 686.542 919.196 698.429 937.811C730.488 988.014 763.902 1014.62 773.111 1022.24C782.32 1029.85 789.022 1034.41 792.967 1036.97C816.5 1052 853.874 1059.35 888.625 1049.73C921.129 1040.73 942.5 1022.5 943.496 1001C943.496 965.488 908.659 955.597 888.098 970.681C854.844 995.077 823.984 994.014 791.98 965.514C762.673 939.415 742.984 910.014 718.98 859.014C712.484 842.014 708.484 833.514 700.48 796.6C697.874 784.581 695.957 765.265 693.98 752.014C692.98 732.014 692.48 725.014 693.48 695.514C697.48 628.514 715.055 576.514 743.48 533.514C754.28 517.177 764.771 503.311 773.288 493.941C785.98 479.014 808.48 458.014 835.455 441.785C841.134 437.033 850.283 429.442 855.787 424.916C864.249 417.956 870.083 413.777 878.977 407.16C897.355 393.487 897.617 393.633 882.3 409.038C865.472 425.964 850.278 442.142 833.307 462.919C828.142 469.241 822.233 476.472 820.175 478.989C789.303 516.725 765.958 563.976 749.008 608.821C735.897 647.582 730.336 678.04 728.608 720.547C728.535 722.333 728.456 723.952 728.385 725.416V725.416C728.041 732.469 727.873 735.911 729.43 737.098C730.914 738.23 733.968 737.313 739.927 735.522L739.944 735.517C741.236 735.129 742.664 734.699 744.243 734.241C768.515 727.196 801.988 713.598 820.536 703.25C856.486 683.192 885.968 657.881 907.57 623.843C935.796 579.369 947.914 528.371 962.853 478.411C964.661 472.364 968.029 460.67 970.337 452.424C980.388 416.505 993.928 379.783 1007.93 350.472C1011.31 343.396 1014.29 337.6 1017.83 330.835C1019.9 326.906 1024.77 318.493 1028.66 312.139C1038.5 296.081 1044.61 286.456 1052.71 275.008C1056.62 268.964 1057.71 267.511 1059.43 264.808C1060.48 263.153 1060.71 262.014 1058.44 262.014C1036.7 262.014 965.149 297.202 947.349 305.231C911.491 321.406 875.93 340.8 844.024 361.587C832.726 368.948 805.16 388.559 799.749 393.085C798.649 394.006 793.245 398.509 787.741 403.093C759.631 426.503 733.145 454.441 712.072 482.909C694.727 506.339 678.602 532.932 666.927 559.873C656.439 585.361 655.939 587.86 649.191 608.018L645.979 618.141C640.377 608.757 634.376 599.836 627.924 591.012C615.041 573.398 606.782 566.251 594.394 555.713C589.058 551.175 583.913 547.277 578.351 543.622C557.959 530.222 556.009 527.923 524.787 518.911C511.145 514.974 497.332 512.979 483.9 512.063C467.816 510.967 451.104 511.362 435.002 513.502C397.722 518.456 352.822 532.3 308.917 552.376C302.037 555.522 296.313 558.179 296.197 558.279C296.081 558.38 301.485 558.58 308.205 558.724C322.713 559.373 323.503 559.527 324.715 559.873C328.217 560.872 327.924 560.697 331.719 561.872C339.767 564.363 353.309 571.686 361.219 577.049C397.667 601.756 435.389 640.197 478.532 652.259C511.19 661.392 541.232 660.409 574.046 649.138C587.893 643.333 592.836 640.916 594.63 639.868C596.399 638.836 597.169 638.753 597.399 638.336C597.735 637.727 594.722 634.308 594.528 634.047C569.204 600.028 527.769 568.518 487.01 557.493C469.84 552.849 459.077 551.542 437.308 551.456C426.192 551.413 417.411 551.066 417.794 550.686C419.682 548.816 439.066 546.875 458.235 546.636C466.804 546.53 473.657 547.326 481.058 548.186L481.572 548.245C484.853 548.626 492.941 550.346 499.546 552.067C524.907 558.676 546.899 568.767 566.938 582.862C584.481 595.198 601.431 613.621 609.011 628.59C612.082 634.655 611.288 631.527 616.153 643.157C625.23 664.857 630.928 693.701 635.141 739.288C636.207 750.816 639.14 762.542 639.14 773.998C639.14 776.866 638.812 777.68 637.89 777.094C614.453 762.238 593.327 749.775 562.397 749.79C539.699 749.803 517.434 754.108 495.676 761.203C483.029 765.327 469.849 770.271 458.373 776.155L451.513 779.671L459.112 779.72C467.484 779.774 474.734 781.833 483.776 786.725C494.742 792.659 489.74 789.988 499.275 796.6C501.625 798.229 507.322 802.52 511.935 806.135C527.618 818.432 548.246 834.547 570.094 840.2C579.957 842.752 596.841 843.278 607.619 841.369C616.519 839.792 629.531 836.333 637.796 831.757C638.777 831.214 639.989 830.47 640.847 829.745C642.337 828.486 642.43 827.746 640.929 826.247L638.927 824.248L634.925 820.25L621.074 807.016C602.403 790.764 575.71 775.646 541.574 775.194C539.869 775.172 527.359 775.915 527.095 774.518C527.047 774.263 527.12 774.138 527.615 773.837C528.191 773.38 533.447 772.356 539.413 771.691C560.261 769.362 583.781 774.051 605.195 784.806C613.806 789.13 618.708 791.612 628.023 799.568C638.345 808.385 647.166 816.765 651.436 829.745C653.761 836.815 655.344 843.032 657.856 850.725Z" fill="#A0C747"/>
<path fill-rule="evenodd" clip-rule="evenodd" d="M646.775 530.1C625.039 529.964 616.861 491.603 627.659 444.495C641.898 382.37 650.886 382.284 666.921 443.872C678.29 487.534 668.511 530.236 646.775 530.1Z" fill="#E34234"/>
<path d="M1147.14 999.252C1147.14 1006.41 1130.54 1009.99 1097.34 1009.99H1068.18L1056.62 1009.44L1039.29 1009.16C1019.85 1009.16 1010.13 1005.68 1010.13 998.702C1010.13 993.746 1014.44 988.514 1023.06 983.008C1031.86 977.318 1037.73 970.067 1040.67 961.257C1043.78 952.262 1045.34 925.922 1045.34 882.237C1045.34 838.551 1043.88 812.027 1040.94 802.666C1038.19 793.304 1033.79 786.605 1027.74 782.566C1016.91 775.408 1011.5 770.177 1011.5 766.873C1011.5 763.569 1013.43 760.632 1017.28 758.062C1028.65 750.353 1047.91 746.498 1075.06 746.498H1080.28C1090.74 746.498 1098.17 751.821 1102.57 762.467C1106.97 772.93 1110.55 778.161 1113.3 778.161C1116.05 778.161 1120.73 775.591 1127.33 770.452C1134.12 765.312 1142.19 760.173 1151.54 755.033C1161.08 749.894 1171.63 747.324 1183.18 747.324C1194.74 747.324 1203.54 750.353 1209.59 756.41C1215.83 762.284 1218.95 769.901 1218.95 779.262C1218.76 788.807 1216.29 795.966 1211.52 800.738C1206.75 805.511 1201.61 807.897 1196.11 807.897C1190.61 807.897 1183.36 805.694 1174.38 801.289C1165.39 796.7 1157.87 794.406 1151.82 794.406C1145.76 794.406 1139.16 796.975 1132.01 802.115C1124.85 807.071 1118.71 816.065 1113.57 829.098C1108.62 841.946 1106.15 864.065 1106.15 895.452C1106.15 926.657 1108.35 946.848 1112.75 956.025C1117.15 965.02 1123.94 973.279 1133.11 980.805C1142.46 988.331 1147.14 994.48 1147.14 999.252Z" fill="#126C36"/>
<path d="M1368.07 758.613H1360.91C1351.19 758.613 1341.75 764.211 1332.57 775.408C1323.4 786.605 1318.82 799.637 1318.82 814.505L1318.27 818.91L1317.99 825.794V832.952L1318.27 835.155C1318.27 854.244 1322.4 869.663 1330.65 881.41C1338.9 893.158 1351.19 899.032 1367.52 899.032H1369.44C1382.1 899.032 1392.92 894.076 1401.91 884.164C1410.89 874.252 1415.39 861.128 1415.39 844.791V834.053C1414.84 829.648 1414.56 826.069 1414.56 823.316C1414.56 805.878 1409.7 790.735 1399.98 777.886C1390.44 765.037 1379.8 758.613 1368.07 758.613ZM1343.58 1003.38C1330.74 1003.38 1319.83 1007.88 1310.84 1016.87C1301.85 1025.87 1297.36 1037.16 1297.36 1050.74V1052.94C1297.36 1068.54 1303.5 1080.84 1315.79 1089.84C1328.08 1098.83 1344.86 1103.33 1366.14 1103.33H1373.29C1398.97 1103.33 1419.61 1097.45 1435.2 1085.71C1450.79 1073.96 1458.58 1060.19 1458.58 1044.41L1458.31 1042.2C1458.31 1031.74 1454 1023.3 1445.38 1016.87C1436.76 1010.63 1426.58 1007.51 1414.84 1007.51C1407.5 1006.59 1402.18 1006.14 1398.88 1006.14L1389.53 1005.31H1384.85L1368.34 1004.21L1357.06 1003.38H1343.58ZM1512.78 755.584C1512.78 766.047 1506.18 772.746 1492.97 775.683C1479.77 778.436 1473.16 783.851 1473.16 791.928L1473.99 797.71L1475.09 804.318L1476.47 811.476C1477.38 817.534 1477.84 826.069 1477.84 837.082C1477.84 848.095 1474.72 859.476 1468.49 871.223C1451.06 903.712 1417.5 921.517 1367.79 924.638C1351.83 925.739 1341.65 927.116 1337.25 928.768C1327.71 932.439 1322.95 938.588 1322.95 947.215C1322.95 955.842 1330.01 961.899 1344.13 965.387C1346.15 965.937 1364.4 967.681 1398.88 970.618C1433.36 973.371 1456.38 977.685 1467.94 983.559C1492.33 995.673 1504.53 1013.2 1504.53 1036.15C1504.53 1066.25 1491.05 1090.75 1464.09 1109.66C1437.31 1128.57 1402.18 1138.02 1358.71 1138.02C1328.08 1138.02 1302.59 1132.15 1282.23 1120.4C1272.87 1115.08 1265.26 1108.1 1259.39 1099.47C1253.71 1091.03 1250.86 1082.22 1250.86 1073.04C1250.86 1056.7 1255.72 1043.12 1265.44 1032.29C1281.03 1015.04 1288.83 1005.86 1288.83 1004.76C1288.83 1003.66 1285.44 998.794 1278.65 990.166C1271.86 981.539 1268.47 972.545 1268.47 963.184C1268.47 953.823 1272.87 943.727 1281.68 932.897C1290.66 921.884 1295.16 915.735 1295.16 914.45C1295.16 913.165 1289.66 903.804 1278.65 886.366C1267.65 868.745 1262.14 852.042 1262.14 836.256C1262.14 820.47 1265.54 806.429 1272.32 794.13C1291.58 759.072 1327.44 741.542 1379.9 741.542H1387.88L1426.12 744.02L1440.15 744.571C1444.92 744.754 1449.78 744.846 1454.73 744.846L1483.89 742.919C1503.15 742.919 1512.78 747.14 1512.78 755.584Z" fill="#126C36"/>
<path d="M1698.77 882.512H1694.09C1670.06 882.512 1649.98 887.927 1633.84 898.756C1617.88 909.403 1609.9 922.71 1609.9 938.679V944.186C1609.9 953.547 1612.75 961.991 1618.43 969.517C1624.3 976.859 1631.82 980.53 1640.99 980.53L1644.29 981.081H1652.55C1671.62 981.081 1687.21 973.279 1699.32 957.677C1704.64 950.886 1707.3 936.936 1707.3 915.827C1707.3 914.175 1707.3 912.523 1707.3 910.871L1707.57 904.263V897.655C1707.57 887.56 1704.64 882.512 1698.77 882.512ZM1565.06 793.58C1565.06 779.997 1575.79 767.882 1597.25 757.236C1618.89 746.406 1641.27 740.991 1664.38 740.991C1665.11 740.991 1665.84 740.991 1666.58 740.991C1688.59 740.991 1706.2 743.653 1719.4 748.976C1746.18 759.622 1761.5 782.199 1765.35 816.708C1765.72 820.195 1765.9 843.323 1765.9 886.091C1765.9 928.676 1767 953.639 1769.2 960.981C1771.58 968.323 1777.82 973.738 1787.91 977.226C1798.18 980.713 1803.32 984.017 1803.32 987.138C1803.32 993.746 1800.01 998.794 1793.41 1002.28C1780.21 1009.26 1767.18 1012.74 1754.34 1012.74C1741.69 1012.74 1732.24 1009.81 1726.01 1003.93C1714.82 993.47 1708.86 988.239 1708.12 988.239C1707.39 988.239 1697.03 992.92 1677.03 1002.28C1657.04 1011.46 1639.52 1016.05 1624.48 1016.05C1601.92 1016.05 1584.22 1009.81 1571.38 997.325C1558.55 984.843 1552.13 969.7 1552.13 951.895V945.012C1552.13 925.922 1560.38 909.127 1576.89 894.626C1593.39 880.126 1623.11 868.837 1666.03 860.761C1681.62 857.824 1691.43 855.07 1695.47 852.501C1703.54 847.361 1707.57 836.899 1707.57 821.113C1707.57 805.327 1703.35 793.213 1694.92 784.769C1686.48 776.326 1675.2 772.104 1661.08 772.104C1646.95 772.104 1633.29 780.364 1620.08 796.884C1607.06 813.22 1595.14 821.388 1584.32 821.388C1571.48 821.388 1565.06 812.119 1565.06 793.58Z" fill="#126C36"/>
<path d="M1885.58 1007.79C1859.72 1007.79 1846.79 1004.12 1846.79 996.774C1846.79 990.717 1850.18 985.761 1856.97 981.907C1869.25 974.931 1876.41 968.691 1878.43 963.184C1880.44 957.494 1881.45 930.97 1881.45 883.613C1881.45 836.073 1879.98 808.264 1877.05 800.188C1874.3 791.928 1869.16 785.136 1861.64 779.813C1854.12 774.49 1850.36 770.177 1850.36 766.873C1850.36 763.569 1852.84 760.448 1857.79 757.511C1869.35 750.72 1887.69 747.324 1912.82 747.324C1920.34 747.324 1926.21 749.894 1930.42 755.033C1931.89 756.869 1933.91 760.907 1936.48 767.148C1939.23 773.205 1941.06 776.234 1941.98 776.234C1945.46 776.05 1950.88 773.572 1958.21 768.8C1983.52 751.729 2006.45 743.194 2026.99 743.194H2036.35C2051.2 743.194 2064.59 746.865 2076.52 754.207C2088.44 761.549 2097.61 772.563 2104.03 787.247C2110.63 801.931 2113.93 833.962 2113.93 883.338C2113.93 932.53 2114.94 960.064 2116.96 965.937C2119.16 971.627 2125.12 976.951 2134.84 981.907C2144.75 986.862 2149.7 991.727 2149.7 996.499C2149.7 1004.76 2123.65 1008.89 2071.56 1008.89H2063.31C2046.8 1008.89 2038.55 1004.94 2038.55 997.05C2038.55 995.398 2040.57 991.451 2044.6 985.211C2048.64 978.786 2051.39 971.719 2052.86 964.01C2054.32 956.301 2055.06 930.97 2055.06 888.018C2055.06 844.883 2052.4 817.166 2047.08 804.868C2039.74 787.981 2027.54 779.538 2010.49 779.538C1998.01 779.538 1985.91 782.475 1974.17 788.348C1962.61 794.039 1954.18 802.207 1948.86 812.853C1943.72 823.316 1941.15 848.554 1941.15 888.569C1941.15 928.4 1942.25 952.538 1944.46 960.981C1946.66 969.241 1949.32 975.941 1952.43 981.081L1962.61 997.6C1962.61 1004.76 1948.22 1008.34 1919.42 1008.34L1902.64 1007.79H1885.58Z" fill="#126C36"/>
<path d="M2291.39 656.465C2291.39 664.541 2287.9 672.067 2280.93 679.042C2274.15 685.833 2267.36 689.229 2260.58 689.229C2259.11 689.596 2257.92 689.78 2257 689.78L2250.95 690.33C2241.78 690.33 2233.52 687.302 2226.18 681.244C2219.03 675.187 2215.45 667.386 2215.45 657.841V652.885C2215.45 643.34 2219.21 635.356 2226.74 628.931C2234.44 622.324 2243.24 619.02 2253.15 619.02H2254.52L2263.88 620.121C2269.56 620.121 2275.43 623.241 2281.49 629.482C2287.72 635.539 2290.84 641.688 2290.84 647.929L2291.39 650.407V656.465ZM2203.9 779.262C2194.36 774.674 2189.59 770.36 2189.59 766.322C2189.59 762.284 2191.52 759.072 2195.37 756.685C2208.76 748.609 2229.94 744.571 2258.92 744.571H2266.9C2276.81 744.571 2282.4 749.16 2283.69 758.337C2284.42 763.293 2284.79 796.7 2284.79 858.558C2284.79 920.232 2286.07 955.658 2288.64 964.836C2291.21 973.83 2297.35 980.805 2307.07 985.761C2316.79 990.534 2321.65 995.398 2321.65 1000.35C2321.65 1007.33 2298.91 1010.82 2253.42 1010.82L2245.17 1011.09H2211.6C2198.21 1011.09 2191.52 1007.79 2191.52 1001.18C2191.52 995.673 2195.55 990.35 2203.62 985.211C2211.88 980.071 2217.56 974.381 2220.68 968.14C2224.17 961.348 2225.91 945.471 2225.91 920.508L2226.18 911.697V903.162L2226.46 890.221V881.686L2226.74 873.151C2226.74 829.648 2225.27 804.318 2222.33 797.159C2219.58 789.817 2213.44 783.851 2203.9 779.262Z" fill="#126C36"/>
<path d="M2452.61 782.016C2452.61 801.656 2467.84 848.279 2498.28 921.884C2502.5 932.163 2505.9 937.303 2508.46 937.303C2511.03 937.303 2515.8 929.869 2522.77 915.001C2548.08 861.403 2560.74 820.929 2560.74 793.58C2560.74 785.687 2559.45 779.263 2556.89 774.307L2553.86 769.351C2549.46 763.477 2547.26 759.347 2547.26 756.961C2547.26 749.802 2558.9 746.223 2582.2 746.223H2599.81C2622 746.223 2633.1 750.444 2633.1 758.888C2633.1 763.66 2628.51 771.003 2619.34 780.914C2610.35 790.643 2603.84 800.096 2599.81 809.274C2595.77 818.451 2581.01 856.814 2555.51 924.362C2530.2 991.727 2510.57 1037.71 2496.63 1062.3C2482.69 1087.08 2469.67 1104.89 2457.57 1115.72C2445.64 1126.55 2433.35 1131.96 2420.7 1131.96H2413.55C2404.01 1131.96 2395.85 1129.21 2389.06 1123.7C2382.46 1118.38 2379.15 1112.78 2379.15 1106.91C2379.15 1101.22 2381.45 1096.54 2386.03 1092.87C2390.8 1089.38 2397.04 1087.63 2404.74 1087.63L2411.07 1088.18C2413.82 1088.37 2418.04 1088.46 2423.73 1088.46C2436.56 1088.46 2448.39 1080.2 2459.22 1063.68C2470.04 1047.16 2475.45 1030.46 2475.45 1013.57C2475.45 996.683 2449.31 932.898 2397.04 822.214C2392.27 812.119 2385.21 801.656 2375.85 790.826C2366.68 779.997 2362.1 772.471 2362.1 768.249C2362.1 761.274 2366.96 756.41 2376.68 753.657C2386.4 750.72 2401.99 749.251 2423.45 749.251C2445.09 749.251 2455.92 753.932 2455.92 763.293C2453.71 772.838 2452.61 779.079 2452.61 782.016Z" fill="#126C36"/>
<path d="M2813.58 882.512H2808.9C2784.87 882.512 2764.79 887.927 2748.65 898.756C2732.69 909.403 2724.71 922.71 2724.71 938.679V944.186C2724.71 953.547 2727.56 961.991 2733.24 969.517C2739.11 976.859 2746.63 980.53 2755.8 980.53L2759.1 981.081H2767.36C2786.43 981.081 2802.02 973.279 2814.13 957.677C2819.45 950.886 2822.11 936.936 2822.11 915.827C2822.11 914.175 2822.11 912.523 2822.11 910.871L2822.38 904.263V897.655C2822.38 887.56 2819.45 882.512 2813.58 882.512ZM2679.87 793.58C2679.87 779.997 2690.6 767.882 2712.06 757.236C2733.7 746.406 2756.08 740.991 2779.19 740.991C2779.92 740.991 2780.66 740.991 2781.39 740.991C2803.4 740.991 2821.01 743.653 2834.21 748.976C2860.99 759.622 2876.31 782.199 2880.16 816.708C2880.53 820.195 2880.71 843.323 2880.71 886.091C2880.71 928.676 2881.81 953.639 2884.01 960.981C2886.4 968.323 2892.63 973.738 2902.72 977.226C2912.99 980.713 2918.13 984.017 2918.13 987.138C2918.13 993.746 2914.83 998.794 2908.22 1002.28C2895.02 1009.26 2881.99 1012.74 2869.15 1012.74C2856.5 1012.74 2847.05 1009.81 2840.82 1003.93C2829.63 993.47 2823.67 988.239 2822.93 988.239C2822.2 988.239 2811.84 992.92 2791.84 1002.28C2771.85 1011.46 2754.34 1016.05 2739.3 1016.05C2716.73 1016.05 2699.03 1009.81 2686.2 997.325C2673.36 984.843 2666.94 969.7 2666.94 951.895V945.012C2666.94 925.922 2675.19 909.127 2691.7 894.626C2708.21 880.126 2737.92 868.837 2780.84 860.761C2796.43 857.824 2806.24 855.07 2810.28 852.501C2818.35 847.361 2822.38 836.899 2822.38 821.113C2822.38 805.327 2818.16 793.213 2809.73 784.769C2801.29 776.326 2790.01 772.104 2775.89 772.104C2761.76 772.104 2748.1 780.364 2734.89 796.884C2721.87 813.22 2709.95 821.388 2699.13 821.388C2686.29 821.388 2679.87 812.119 2679.87 793.58Z" fill="#126C36"/>
</svg>
