<svg width="2919" height="1278" viewBox="0 0 2919 1278" fill="none" xmlns="http://www.w3.org/2000/svg">
<path d="M931.28 1025.73C938.365 1019.73 942.732 1011.19 943.369 1001.92C944.009 992.665 940.867 983.444 934.685 976.346C928.503 969.248 919.8 964.87 910.541 964.234C901.279 963.593 892.219 966.746 885.305 972.941C855.989 999.25 823.771 1021.68 788.905 1038.99C634.55 1120.88 435.176 1065.58 320.061 930.217C162.002 762.791 176.271 465.871 355.59 312.55C526.948 150.911 830.586 165.643 987.312 349.048C1048.95 417.04 1083.77 508.023 1087.04 600.436C1088.73 642.206 1084.53 684.251 1075.21 725.165L1075.21 725.165C1075.17 725.33 1075.13 725.495 1075.1 725.66C1075.14 725.496 1075.18 725.332 1075.22 725.168L1075.22 725.168C1085.67 684.527 1091.07 642.473 1090.54 600.343C1089.84 507.203 1057.23 413.383 995.768 341.683L995.768 341.683C840.98 149.37 523.915 121.303 335.139 289.07L335.139 289.07C138.74 447.262 110.21 771.045 281.556 963.754L281.556 963.754C401.629 1115.37 633.257 1190.79 817.59 1098.99C858.877 1079.9 896.892 1054.91 931.28 1025.73Z" fill="#126C36"/>
<path d="M657.863 850.725C668.404 883.003 686.55 919.196 698.437 937.811C730.496 988.014 763.91 1014.62 773.119 1022.24C782.328 1029.85 789.299 1034.25 793.244 1036.8C812.496 1027.01 820.496 1022.51 835.141 1012.07C856.489 998.766 856.496 997.464 876.988 980.248C851.992 1001.25 823.992 994.014 791.988 965.514C762.681 939.415 742.992 910.014 718.988 859.014C712.492 842.014 708.492 833.514 700.488 796.6C697.882 784.581 695.964 765.265 693.988 752.014C692.988 732.014 692.488 725.014 693.488 695.514C697.488 628.514 715.063 576.514 743.488 533.514C754.288 517.177 764.779 503.311 773.296 493.941C785.988 479.014 808.488 458.014 835.463 441.785C841.142 437.033 850.291 429.442 855.795 424.916C864.257 417.956 870.091 413.777 878.985 407.16C897.363 393.487 897.624 393.633 882.308 409.038C865.48 425.964 850.286 442.142 833.315 462.919C828.15 469.241 822.241 476.472 820.183 478.989C789.311 516.725 765.966 563.976 749.016 608.821C735.905 647.582 730.344 678.04 728.616 720.547C728.543 722.333 728.464 723.952 728.393 725.416V725.416C728.049 732.469 727.881 735.911 729.438 737.098C730.921 738.23 733.975 737.313 739.935 735.522L739.952 735.517C741.244 735.129 742.672 734.699 744.25 734.241C768.523 727.196 801.996 713.598 820.544 703.25C856.494 683.192 885.976 657.881 907.578 623.843C935.804 579.369 947.921 528.371 962.861 478.411C964.669 472.364 968.037 460.67 970.345 452.424C980.396 416.505 993.936 379.783 1007.94 350.472C1011.32 343.396 1014.29 337.6 1017.84 330.835C1019.9 326.906 1024.78 318.493 1028.67 312.139C1038.51 296.081 1044.62 286.456 1052.72 275.008C1056.62 268.964 1057.72 267.511 1059.43 264.808C1060.48 263.153 1060.72 262.014 1058.45 262.014C1036.7 262.014 965.156 297.202 947.357 305.231C911.499 321.406 875.938 340.8 844.032 361.587C832.733 368.948 805.168 388.559 799.757 393.085C798.656 394.006 793.253 398.509 787.749 403.093C759.639 426.503 733.153 454.441 712.08 482.909C694.735 506.339 678.61 532.932 666.935 559.873C656.447 585.361 655.947 587.86 649.199 608.018L645.987 618.141C640.385 608.757 634.384 599.836 627.932 591.012C615.049 573.398 606.79 566.251 594.402 555.713C589.066 551.175 583.921 547.277 578.359 543.622C557.967 530.222 556.017 527.923 524.795 518.911C511.153 514.974 497.339 512.979 483.908 512.063C467.824 510.967 451.111 511.362 435.01 513.502C397.73 518.456 352.83 532.3 308.925 552.376C302.045 555.522 296.321 558.179 296.205 558.279C296.089 558.38 301.493 558.58 308.213 558.724C322.721 559.373 323.511 559.527 324.722 559.873C328.225 560.872 327.932 560.697 331.727 561.872C339.775 564.363 353.317 571.686 361.227 577.049C397.675 601.756 435.396 640.197 478.539 652.259C511.198 661.392 541.24 660.409 574.054 649.138C587.901 643.333 592.844 640.916 594.638 639.868C596.406 638.836 597.177 638.753 597.407 638.336C597.743 637.727 594.73 634.308 594.536 634.047C569.212 600.028 527.777 568.518 487.018 557.493C469.848 552.849 459.085 551.542 437.316 551.456C426.2 551.413 417.419 551.066 417.802 550.686C419.69 548.816 439.074 546.875 458.243 546.636C466.812 546.53 473.665 547.326 481.066 548.186L481.58 548.245C484.861 548.626 492.949 550.346 499.554 552.067C524.914 558.676 546.907 568.767 566.946 582.862C584.489 595.198 601.439 613.621 609.019 628.59C612.09 634.655 611.296 631.527 616.161 643.157C625.238 664.857 630.936 693.701 635.149 739.288C636.215 750.816 639.148 762.542 639.148 773.998C639.148 776.866 638.82 777.68 637.897 777.094C614.46 762.238 593.335 749.775 562.405 749.79C539.707 749.803 517.442 754.108 495.684 761.203C483.037 765.327 469.857 770.271 458.381 776.155L451.521 779.671L459.119 779.72C467.492 779.774 474.742 781.833 483.784 786.725C494.749 792.659 489.748 789.988 499.283 796.6C501.633 798.229 507.33 802.52 511.943 806.135C527.625 818.432 548.254 834.547 570.101 840.2C579.965 842.752 596.849 843.278 607.627 841.369C616.527 839.792 629.539 836.333 637.804 831.757C638.785 831.214 639.997 830.47 640.855 829.745C642.344 828.486 642.438 827.746 640.937 826.247L638.935 824.248L634.933 820.25L621.082 807.016C602.411 790.764 575.718 775.646 541.582 775.194C539.877 775.172 527.367 775.915 527.103 774.518C527.055 774.263 527.128 774.138 527.623 773.837C528.199 773.38 533.455 772.356 539.421 771.691C560.269 769.362 583.789 774.051 605.203 784.806C613.814 789.13 618.716 791.612 628.031 799.568C638.352 808.385 647.174 816.765 651.444 829.745C653.769 836.815 655.351 843.032 657.863 850.725Z" fill="#A0C747"/>
<path fill-rule="evenodd" clip-rule="evenodd" d="M646.783 530.1C625.047 529.964 616.869 491.603 627.666 444.495C641.906 382.37 650.894 382.284 666.929 443.872C678.297 487.534 668.519 530.236 646.783 530.1Z" fill="#E34234"/>
<path d="M1147.15 999.252C1147.15 1006.41 1130.55 1009.99 1097.35 1009.99H1068.19L1056.63 1009.44L1039.3 1009.16C1019.86 1009.16 1010.13 1005.68 1010.13 998.702C1010.13 993.746 1014.45 988.514 1023.07 983.008C1031.87 977.318 1037.74 970.067 1040.67 961.257C1043.79 952.262 1045.35 925.922 1045.35 882.237C1045.35 838.551 1043.88 812.027 1040.95 802.666C1038.2 793.304 1033.8 786.605 1027.74 782.566C1016.92 775.408 1011.51 770.177 1011.51 766.873C1011.51 763.569 1013.44 760.632 1017.29 758.062C1028.66 750.353 1047.92 746.498 1075.06 746.498H1080.29C1090.75 746.498 1098.18 751.821 1102.58 762.467C1106.98 772.93 1110.56 778.161 1113.31 778.161C1116.06 778.161 1120.74 775.591 1127.34 770.452C1134.12 765.312 1142.2 760.173 1151.55 755.033C1161.09 749.894 1171.63 747.324 1183.19 747.324C1194.74 747.324 1203.55 750.353 1209.6 756.41C1215.84 762.284 1218.96 769.901 1218.96 779.262C1218.77 788.807 1216.3 795.966 1211.53 800.738C1206.76 805.511 1201.62 807.897 1196.12 807.897C1190.62 807.897 1183.37 805.694 1174.39 801.289C1165.4 796.7 1157.88 794.406 1151.82 794.406C1145.77 794.406 1139.17 796.975 1132.02 802.115C1124.86 807.071 1118.72 816.065 1113.58 829.098C1108.63 841.946 1106.15 864.065 1106.15 895.452C1106.15 926.657 1108.35 946.848 1112.76 956.025C1117.16 965.02 1123.95 973.279 1133.12 980.805C1142.47 988.331 1147.15 994.48 1147.15 999.252Z" fill="#126C36"/>
<path d="M1368.07 758.613H1360.92C1351.2 758.613 1341.75 764.211 1332.58 775.408C1323.41 786.605 1318.83 799.637 1318.83 814.505L1318.28 818.91L1318 825.794V832.952L1318.28 835.155C1318.28 854.244 1322.4 869.663 1330.66 881.41C1338.91 893.158 1351.2 899.032 1367.52 899.032H1369.45C1382.11 899.032 1392.93 894.076 1401.91 884.164C1410.9 874.252 1415.4 861.128 1415.4 844.791V834.053C1414.85 829.648 1414.57 826.069 1414.57 823.316C1414.57 805.878 1409.71 790.735 1399.99 777.886C1390.45 765.037 1379.81 758.613 1368.07 758.613ZM1343.59 1003.38C1330.75 1003.38 1319.84 1007.88 1310.85 1016.87C1301.86 1025.87 1297.37 1037.16 1297.37 1050.74V1052.94C1297.37 1068.54 1303.51 1080.84 1315.8 1089.84C1328.09 1098.83 1344.87 1103.33 1366.15 1103.33H1373.3C1398.98 1103.33 1419.61 1097.45 1435.2 1085.71C1450.8 1073.96 1458.59 1060.19 1458.59 1044.41L1458.32 1042.2C1458.32 1031.74 1454.01 1023.3 1445.38 1016.87C1436.76 1010.63 1426.58 1007.51 1414.85 1007.51C1407.51 1006.59 1402.19 1006.14 1398.89 1006.14L1389.53 1005.31H1384.86L1368.35 1004.21L1357.07 1003.38H1343.59ZM1512.79 755.584C1512.79 766.047 1506.19 772.746 1492.98 775.683C1479.78 778.436 1473.17 783.851 1473.17 791.928L1474 797.71L1475.1 804.318L1476.47 811.476C1477.39 817.534 1477.85 826.069 1477.85 837.082C1477.85 848.095 1474.73 859.476 1468.49 871.223C1451.07 903.712 1417.5 921.517 1367.8 924.638C1351.84 925.739 1341.66 927.116 1337.26 928.768C1327.72 932.439 1322.95 938.588 1322.95 947.215C1322.95 955.842 1330.01 961.899 1344.14 965.387C1346.16 965.937 1364.41 967.681 1398.89 970.618C1433.37 973.371 1456.39 977.685 1467.94 983.559C1492.34 995.673 1504.54 1013.2 1504.54 1036.15C1504.54 1066.25 1491.06 1090.75 1464.09 1109.66C1437.31 1128.57 1402.19 1138.02 1358.72 1138.02C1328.09 1138.02 1302.59 1132.15 1282.23 1120.4C1272.88 1115.08 1265.27 1108.1 1259.4 1099.47C1253.71 1091.03 1250.87 1082.22 1250.87 1073.04C1250.87 1056.7 1255.73 1043.12 1265.45 1032.29C1281.04 1015.04 1288.84 1005.86 1288.84 1004.76C1288.84 1003.66 1285.44 998.794 1278.66 990.166C1271.87 981.539 1268.48 972.545 1268.48 963.184C1268.48 953.823 1272.88 943.727 1281.68 932.897C1290.67 921.884 1295.17 915.735 1295.17 914.45C1295.17 913.165 1289.66 903.804 1278.66 886.366C1267.65 868.745 1262.15 852.042 1262.15 836.256C1262.15 820.47 1265.54 806.429 1272.33 794.13C1291.59 759.072 1327.45 741.542 1379.9 741.542H1387.88L1426.13 744.02L1440.16 744.571C1444.93 744.754 1449.79 744.846 1454.74 744.846L1483.9 742.919C1503.16 742.919 1512.79 747.14 1512.79 755.584Z" fill="#126C36"/>
<path d="M1698.78 882.512H1694.1C1670.07 882.512 1649.99 887.927 1633.85 898.756C1617.89 909.403 1609.91 922.71 1609.91 938.679V944.186C1609.91 953.547 1612.75 961.991 1618.44 969.517C1624.31 976.859 1631.83 980.53 1641 980.53L1644.3 981.081H1652.55C1671.63 981.081 1687.22 973.279 1699.33 957.677C1704.64 950.886 1707.3 936.936 1707.3 915.827C1707.3 914.175 1707.3 912.523 1707.3 910.871L1707.58 904.263V897.655C1707.58 887.56 1704.64 882.512 1698.78 882.512ZM1565.06 793.58C1565.06 779.997 1575.79 767.882 1597.25 757.236C1618.9 746.406 1641.27 740.991 1664.38 740.991C1665.12 740.991 1665.85 740.991 1666.59 740.991C1688.6 740.991 1706.2 743.653 1719.41 748.976C1746.19 759.622 1761.5 782.199 1765.36 816.708C1765.72 820.195 1765.91 843.323 1765.91 886.091C1765.91 928.676 1767.01 953.639 1769.21 960.981C1771.59 968.323 1777.83 973.738 1787.92 977.226C1798.19 980.713 1803.32 984.017 1803.32 987.138C1803.32 993.746 1800.02 998.794 1793.42 1002.28C1780.21 1009.26 1767.19 1012.74 1754.35 1012.74C1741.7 1012.74 1732.25 1009.81 1726.01 1003.93C1714.82 993.47 1708.86 988.239 1708.13 988.239C1707.4 988.239 1697.03 992.92 1677.04 1002.28C1657.05 1011.46 1639.53 1016.05 1624.49 1016.05C1601.93 1016.05 1584.23 1009.81 1571.39 997.325C1558.55 984.843 1552.13 969.7 1552.13 951.895V945.012C1552.13 925.922 1560.39 909.127 1576.89 894.626C1593.4 880.126 1623.12 868.837 1666.04 860.761C1681.63 857.824 1691.44 855.07 1695.47 852.501C1703.54 847.361 1707.58 836.899 1707.58 821.113C1707.58 805.327 1703.36 793.213 1694.92 784.769C1686.49 776.326 1675.21 772.104 1661.08 772.104C1646.96 772.104 1633.3 780.364 1620.09 796.884C1607.07 813.22 1595.14 821.388 1584.32 821.388C1571.48 821.388 1565.06 812.119 1565.06 793.58Z" fill="#126C36"/>
<path d="M1885.59 1007.79C1859.72 1007.79 1846.79 1004.12 1846.79 996.774C1846.79 990.717 1850.19 985.761 1856.97 981.907C1869.26 974.931 1876.42 968.691 1878.43 963.184C1880.45 957.494 1881.46 930.97 1881.46 883.613C1881.46 836.073 1879.99 808.264 1877.06 800.188C1874.31 791.928 1869.17 785.136 1861.65 779.813C1854.13 774.49 1850.37 770.177 1850.37 766.873C1850.37 763.569 1852.85 760.448 1857.8 757.511C1869.35 750.72 1887.7 747.324 1912.82 747.324C1920.34 747.324 1926.21 749.894 1930.43 755.033C1931.9 756.869 1933.92 760.907 1936.48 767.148C1939.24 773.205 1941.07 776.234 1941.99 776.234C1945.47 776.05 1950.88 773.572 1958.22 768.8C1983.53 751.729 2006.46 743.194 2027 743.194H2036.36C2051.21 743.194 2064.6 746.865 2076.52 754.207C2088.45 761.549 2097.62 772.563 2104.04 787.247C2110.64 801.931 2113.94 833.962 2113.94 883.338C2113.94 932.53 2114.95 960.064 2116.97 965.937C2119.17 971.627 2125.13 976.951 2134.85 981.907C2144.76 986.862 2149.71 991.727 2149.71 996.499C2149.71 1004.76 2123.66 1008.89 2071.57 1008.89H2063.32C2046.81 1008.89 2038.56 1004.94 2038.56 997.05C2038.56 995.398 2040.57 991.451 2044.61 985.211C2048.64 978.786 2051.4 971.719 2052.86 964.01C2054.33 956.301 2055.06 930.97 2055.06 888.018C2055.06 844.883 2052.4 817.166 2047.09 804.868C2039.75 787.981 2027.55 779.538 2010.49 779.538C1998.02 779.538 1985.92 782.475 1974.18 788.348C1962.62 794.039 1954.18 802.207 1948.87 812.853C1943.73 823.316 1941.16 848.554 1941.16 888.569C1941.16 928.4 1942.26 952.538 1944.46 960.981C1946.66 969.241 1949.32 975.941 1952.44 981.081L1962.62 997.6C1962.62 1004.76 1948.22 1008.34 1919.43 1008.34L1902.64 1007.79H1885.59Z" fill="#126C36"/>
<path d="M2291.4 656.465C2291.4 664.541 2287.91 672.067 2280.94 679.042C2274.16 685.833 2267.37 689.229 2260.58 689.229C2259.12 689.596 2257.92 689.78 2257.01 689.78L2250.95 690.33C2241.78 690.33 2233.53 687.302 2226.19 681.244C2219.04 675.187 2215.46 667.386 2215.46 657.841V652.885C2215.46 643.34 2219.22 635.356 2226.74 628.931C2234.45 622.324 2243.25 619.02 2253.15 619.02H2254.53L2263.88 620.121C2269.57 620.121 2275.44 623.241 2281.49 629.482C2287.73 635.539 2290.85 641.688 2290.85 647.929L2291.4 650.407V656.465ZM2203.91 779.262C2194.37 774.674 2189.6 770.36 2189.6 766.322C2189.6 762.284 2191.53 759.072 2195.38 756.685C2208.77 748.609 2229.95 744.571 2258.93 744.571H2266.91C2276.82 744.571 2282.41 749.16 2283.69 758.337C2284.43 763.293 2284.79 796.7 2284.79 858.558C2284.79 920.232 2286.08 955.658 2288.65 964.836C2291.21 973.83 2297.36 980.805 2307.08 985.761C2316.8 990.534 2321.66 995.398 2321.66 1000.35C2321.66 1007.33 2298.92 1010.82 2253.43 1010.82L2245.18 1011.09H2211.61C2198.22 1011.09 2191.53 1007.79 2191.53 1001.18C2191.53 995.673 2195.56 990.35 2203.63 985.211C2211.89 980.071 2217.57 974.381 2220.69 968.14C2224.17 961.348 2225.92 945.471 2225.92 920.508L2226.19 911.697V903.162L2226.47 890.221V881.686L2226.74 873.151C2226.74 829.648 2225.28 804.318 2222.34 797.159C2219.59 789.817 2213.45 783.851 2203.91 779.262Z" fill="#126C36"/>
<path d="M2452.62 782.016C2452.62 801.656 2467.84 848.279 2498.29 921.884C2502.51 932.163 2505.9 937.303 2508.47 937.303C2511.04 937.303 2515.81 929.869 2522.78 915.001C2548.09 861.403 2560.75 820.929 2560.75 793.58C2560.75 785.687 2559.46 779.263 2556.89 774.307L2553.87 769.351C2549.47 763.477 2547.26 759.347 2547.26 756.961C2547.26 749.802 2558.91 746.223 2582.21 746.223H2599.81C2622.01 746.223 2633.1 750.444 2633.1 758.888C2633.1 763.66 2628.52 771.003 2619.35 780.914C2610.36 790.643 2603.85 800.096 2599.81 809.274C2595.78 818.451 2581.01 856.814 2555.52 924.362C2530.21 991.727 2510.58 1037.71 2496.64 1062.3C2482.7 1087.08 2469.68 1104.89 2457.57 1115.72C2445.65 1126.55 2433.36 1131.96 2420.71 1131.96H2413.55C2404.02 1131.96 2395.85 1129.21 2389.07 1123.7C2382.46 1118.38 2379.16 1112.78 2379.16 1106.91C2379.16 1101.22 2381.46 1096.54 2386.04 1092.87C2390.81 1089.38 2397.05 1087.63 2404.75 1087.63L2411.08 1088.18C2413.83 1088.37 2418.05 1088.46 2423.73 1088.46C2436.57 1088.46 2448.4 1080.2 2459.22 1063.68C2470.05 1047.16 2475.46 1030.46 2475.46 1013.57C2475.46 996.683 2449.32 932.898 2397.05 822.214C2392.28 812.119 2385.22 801.656 2375.86 790.826C2366.69 779.997 2362.1 772.471 2362.1 768.249C2362.1 761.274 2366.97 756.41 2376.69 753.657C2386.41 750.72 2402 749.251 2423.46 749.251C2445.1 749.251 2455.92 753.932 2455.92 763.293C2453.72 772.838 2452.62 779.079 2452.62 782.016Z" fill="#126C36"/>
<path d="M2813.59 882.512H2808.91C2784.88 882.512 2764.8 887.927 2748.66 898.756C2732.7 909.403 2724.72 922.71 2724.72 938.679V944.186C2724.72 953.547 2727.56 961.991 2733.25 969.517C2739.12 976.859 2746.64 980.53 2755.81 980.53L2759.11 981.081H2767.37C2786.44 981.081 2802.03 973.279 2814.14 957.677C2819.46 950.886 2822.12 936.936 2822.12 915.827C2822.12 914.175 2822.12 912.523 2822.12 910.871L2822.39 904.263V897.655C2822.39 887.56 2819.46 882.512 2813.59 882.512ZM2679.88 793.58C2679.88 779.997 2690.61 767.882 2712.07 757.236C2733.71 746.406 2756.09 740.991 2779.2 740.991C2779.93 740.991 2780.66 740.991 2781.4 740.991C2803.41 740.991 2821.02 743.653 2834.22 748.976C2861 759.622 2876.32 782.199 2880.17 816.708C2880.53 820.195 2880.72 843.323 2880.72 886.091C2880.72 928.676 2881.82 953.639 2884.02 960.981C2886.4 968.323 2892.64 973.738 2902.73 977.226C2913 980.713 2918.13 984.017 2918.13 987.138C2918.13 993.746 2914.83 998.794 2908.23 1002.28C2895.02 1009.26 2882 1012.74 2869.16 1012.74C2856.51 1012.74 2847.06 1009.81 2840.82 1003.93C2829.64 993.47 2823.67 988.239 2822.94 988.239C2822.21 988.239 2811.84 992.92 2791.85 1002.28C2771.86 1011.46 2754.34 1016.05 2739.3 1016.05C2716.74 1016.05 2699.04 1009.81 2686.2 997.325C2673.36 984.843 2666.94 969.7 2666.94 951.895V945.012C2666.94 925.922 2675.2 909.127 2691.71 894.626C2708.21 880.126 2737.93 868.837 2780.85 860.761C2796.44 857.824 2806.25 855.07 2810.29 852.501C2818.36 847.361 2822.39 836.899 2822.39 821.113C2822.39 805.327 2818.17 793.213 2809.74 784.769C2801.3 776.326 2790.02 772.104 2775.89 772.104C2761.77 772.104 2748.11 780.364 2734.9 796.884C2721.88 813.22 2709.96 821.388 2699.13 821.388C2686.3 821.388 2679.88 812.119 2679.88 793.58Z" fill="#126C36"/>
</svg>
