<svg width="941" height="966" viewBox="0 0 941 966" fill="none" xmlns="http://www.w3.org/2000/svg">
<path d="M694.669 910.606C704.921 904.49 712.22 894.59 714.876 882.951C717.537 871.32 715.337 858.903 708.844 848.565C702.352 838.227 692.122 830.853 680.49 828.199C668.852 825.537 656.765 827.812 646.803 834.39C646.803 834.39 646.803 834.39 646.803 834.39C619.406 852.404 594.461 868.398 570.875 875.015C547.248 882.032 515.786 883.152 483.705 883.97C261.575 895.303 49.249 698.236 49.0189 466.498C37.5248 235.628 243.417 16.5141 483.705 16.5352C567.741 14.3472 652.957 36.7316 724.729 82.6787C752.641 100.438 778.528 121.537 801.736 145.36C801.736 145.36 801.736 145.36 801.736 145.36C779.626 120.515 754.602 98.1405 727.23 78.9381C656.902 29.2779 570.714 2.11003 483.705 0.460886C235.77 -11.4494 0.128572 208.724 0.453769 466.498C-11.5959 723.404 217.612 965.625 483.705 965.026C517.129 965.414 552.211 967.072 592.374 957.768C633.586 947.784 665.615 927.59 694.669 910.606Z" fill="#126C36"/>
<path d="M537.981 705.22C543.561 723.009 547.736 738.998 552.736 760.998C567.736 812.498 568.236 803.051 571.736 831.274C575.236 859.498 565.11 876.938 549.164 879.707C525.272 887.81 659.141 870.991 652.381 831.274C648.081 833.281 626.399 820.18 619.236 810.498C592.236 773.998 591.132 762.072 567.736 689.498C565.271 681.849 559.61 660.482 559.236 658.498C557.097 647.099 556.212 639.749 554.236 626.498C551.34 607.085 548.452 572.21 551.562 552.292C560.693 493.822 585.121 440.544 627.174 387.378C640.554 370.464 643.583 366.904 657.693 351.517C676.189 331.347 695.523 313.397 715.996 296.269C721.675 291.517 730.824 283.926 736.328 279.4C744.79 272.44 750.624 268.261 759.518 261.644C777.896 247.971 778.158 248.118 762.841 263.523C746.013 280.448 730.819 296.627 713.848 317.403C708.683 323.725 702.774 330.957 700.716 333.473C669.844 371.209 646.499 418.461 629.549 463.305C616.438 502.067 610.877 532.524 609.149 575.031C609.076 576.818 608.997 578.437 608.926 579.9V579.9C608.582 586.953 608.414 590.395 609.971 591.583C611.455 592.715 614.509 591.797 620.468 590.006L620.485 590.001C621.777 589.613 623.205 589.184 624.784 588.726C649.056 581.68 682.529 568.083 701.077 557.734C737.027 537.676 766.509 512.366 788.111 478.327C816.337 433.853 828.455 382.856 843.394 332.896C845.202 326.849 848.57 315.154 850.878 306.908C860.929 270.989 874.469 234.267 888.469 204.956C891.85 197.88 894.827 192.085 898.376 185.32C900.436 181.39 905.309 172.977 909.203 166.623C919.042 150.565 925.149 140.94 933.249 129.492C937.158 123.449 938.252 121.995 939.966 119.293C941.016 117.637 941.254 116.498 938.986 116.498C917.238 116.498 845.69 151.687 827.89 159.716C792.032 175.89 756.471 195.285 724.565 216.071C713.267 223.432 685.701 243.043 680.29 247.569C679.19 248.491 673.786 252.993 668.282 257.577C640.172 280.987 613.686 308.925 592.613 337.394C575.268 360.823 559.143 387.417 547.468 414.357C536.98 439.845 536.48 442.344 529.732 462.503L526.52 472.626C520.918 463.241 514.917 454.321 508.465 445.497C495.582 427.883 487.323 420.736 474.935 410.197C469.599 405.659 464.454 401.762 458.892 398.106C438.5 384.707 436.55 382.407 405.328 373.396C391.686 369.458 377.873 367.463 364.441 366.548C348.357 365.451 331.645 365.846 315.543 367.986C278.263 372.941 233.364 386.784 189.458 406.861C182.578 410.006 176.854 412.663 176.738 412.763C176.622 412.864 182.026 413.065 188.746 413.209C203.254 413.857 204.044 414.011 205.256 414.357C208.758 415.357 208.465 415.182 212.26 416.356C220.308 418.847 233.85 426.171 241.76 431.533C278.208 456.24 315.93 494.681 359.073 506.744C391.731 515.876 421.773 514.894 454.587 503.622C468.434 497.818 473.377 495.4 475.171 494.352C476.94 493.32 477.71 493.238 477.94 492.82C478.276 492.211 475.263 488.792 475.069 488.531C449.745 454.512 408.31 423.003 367.551 411.977C350.381 407.334 339.618 406.026 317.849 405.94C306.733 405.897 297.952 405.55 298.336 405.171C300.223 403.3 319.607 401.359 338.776 401.121C347.345 401.015 354.198 401.811 361.599 402.67L362.113 402.73C365.394 403.111 373.482 404.831 380.087 406.551C405.448 413.16 427.44 423.251 447.479 437.346C465.022 449.683 481.972 468.106 489.552 483.075C492.623 489.14 491.829 486.012 496.694 497.642C505.771 519.342 511.469 548.185 515.682 593.772C516.748 605.3 519.681 617.026 519.681 628.482C519.681 631.351 519.353 632.164 518.431 631.578C494.994 616.723 473.868 604.259 442.938 604.275C420.24 604.288 397.975 608.592 376.217 615.687C363.57 619.811 350.39 624.755 338.914 630.639L332.054 634.155L339.653 634.204C348.025 634.258 355.275 636.317 364.317 641.209C375.283 647.143 370.281 644.473 379.816 651.084C382.166 652.714 387.863 657.005 392.476 660.62C408.159 672.916 428.787 689.032 450.635 694.685C460.498 697.236 477.382 697.762 488.16 695.853C497.06 694.276 510.072 690.817 518.337 686.242C519.318 685.699 520.53 684.954 521.388 684.23C522.878 682.97 522.971 682.231 521.47 680.731L519.469 678.732L515.466 674.734L501.615 661.5C482.944 645.248 456.251 630.13 422.115 629.678C420.41 629.656 407.9 630.399 407.636 629.002C407.588 628.747 407.661 628.623 408.156 628.321C408.732 627.865 413.988 626.841 419.954 626.175C440.802 623.846 464.322 628.535 485.736 639.29C494.347 643.614 499.249 646.096 508.564 654.052C518.886 662.869 527.707 671.249 531.977 684.23C534.302 691.299 535.559 697.498 537.981 705.22Z" fill="#A0C747"/>
<path fill-rule="evenodd" clip-rule="evenodd" d="M526.527 404.264C504.726 404.128 496.524 365.653 507.354 318.404C521.635 256.093 530.65 256.007 546.734 317.778C558.136 361.571 548.328 404.401 526.527 404.264Z" fill="#E34234"/>
</svg>
