<svg width="2894" height="1282" viewBox="0 0 2894 1282" fill="none" xmlns="http://www.w3.org/2000/svg">
<path d="M965.32 1013.82C973.911 1005.53 978.786 994.221 978.783 982.283C978.786 970.351 973.911 958.772 965.32 950.18C956.728 941.589 945.149 936.714 933.217 936.717C921.279 936.714 909.967 941.589 901.68 950.18C874.938 977.984 845.14 1002.15 812.445 1021.51C668.265 1112.11 470.354 1073.22 347.065 948.353C180.006 795.671 172.047 502.441 338.008 338.009C495.419 166.01 797.307 158.052 966.467 328.952C1032.62 392.013 1073.91 479.959 1083.88 571.799C1088.6 613.291 1087.48 655.513 1081.16 696.998L1081.16 696.998C1081.13 697.166 1081.11 697.333 1081.08 697.5C1081.11 697.334 1081.15 697.168 1081.18 697.002L1081.18 697.002C1088.97 655.766 1091.63 613.426 1088.36 571.371C1081.62 478.37 1042.92 386.59 976.661 318.758L976.661 318.758C809.2 136.259 488.91 128.301 309.7 309.701L309.7 309.701C122.262 481.89 114.303 810.838 300.643 994.776L300.643 994.776C431.727 1140.04 672.79 1201.9 854.545 1095.93C895.319 1073.72 932.326 1045.76 965.32 1013.82Z" fill="#126C36"/>
<path d="M652.965 848.722C658.546 866.511 662.713 882.5 668.713 904.5C685.713 956 691.717 985 699.215 1013.5C706.713 1042 699.252 1057.53 682.25 1068.03C705.717 1065 721.202 1061.63 747.221 1053C776.901 1041.49 782.66 1040.49 813.344 1020.99C788.344 1029.49 771.213 1024.5 761.713 1017.5C729.26 993.587 706.117 905.574 682.721 833C680.255 825.351 674.594 803.984 674.221 802C672.081 790.601 671.197 783.251 669.221 770C666.325 750.587 663.436 715.712 666.546 695.794C675.678 637.324 700.105 584.046 742.159 530.88C755.539 513.966 758.568 510.406 772.677 495.019C791.174 474.849 810.508 456.899 830.981 439.771C836.66 435.019 845.809 427.428 851.313 422.902C859.774 415.942 865.608 411.763 874.502 405.146C892.881 391.473 893.142 391.62 877.826 407.024C860.998 423.95 845.804 440.129 828.832 460.905C823.668 467.227 817.759 474.459 815.7 476.975C784.828 514.711 761.484 561.963 744.533 606.807C731.422 645.569 725.862 676.026 724.133 718.533C724.061 720.32 723.982 721.939 723.91 723.402V723.402C723.567 730.455 723.399 733.897 724.955 735.085C726.439 736.217 729.493 735.299 735.452 733.508L735.47 733.503C736.761 733.115 738.19 732.686 739.768 732.228C764.041 725.182 797.513 711.585 816.062 701.236C852.011 681.178 881.493 655.867 903.096 621.829C931.322 577.355 943.439 526.358 958.378 476.398C960.186 470.351 963.555 458.656 965.862 450.41C975.913 414.491 989.453 377.769 1003.45 348.458C1006.83 341.382 1009.81 335.587 1013.36 328.821C1015.42 324.892 1020.29 316.479 1024.19 310.125C1034.03 294.067 1040.13 284.442 1048.23 272.994C1052.14 266.951 1053.24 265.497 1054.95 262.795C1056 261.139 1056.24 260 1053.97 260C1032.22 260 960.674 295.189 942.875 303.218C907.016 319.392 871.455 338.787 839.55 359.573C828.251 366.934 800.685 386.545 795.275 391.071C794.174 391.993 788.77 396.495 783.267 401.079C755.156 424.489 728.671 452.427 707.597 480.896C690.252 504.325 674.127 530.919 662.453 557.859C651.965 583.347 651.464 585.846 644.717 606.004L641.504 616.128C635.902 606.743 629.901 597.823 623.449 588.998C610.567 571.385 602.307 564.238 589.919 553.699C584.584 549.161 579.438 545.264 573.877 541.608C553.485 528.209 551.535 525.909 520.312 516.898C506.67 512.96 492.857 510.965 479.426 510.05C463.341 508.953 446.629 509.348 430.528 511.488C393.247 516.443 348.348 530.286 304.442 550.363C297.562 553.508 291.839 556.165 291.723 556.265C291.606 556.366 297.01 556.567 303.731 556.711C318.239 557.359 319.028 557.513 320.24 557.859C323.742 558.859 323.45 558.684 327.245 559.858C335.292 562.349 348.834 569.673 356.745 575.035C393.193 599.742 430.914 638.183 474.057 650.246C506.715 659.378 536.757 658.396 569.572 647.124C583.418 641.32 588.361 638.902 590.156 637.854C591.924 636.822 592.695 636.74 592.925 636.322C593.26 635.713 590.248 632.294 590.054 632.033C564.729 598.014 523.295 566.505 482.536 555.479C465.365 550.836 454.603 549.528 432.833 549.442C421.718 549.399 412.937 549.052 413.32 548.673C415.207 546.802 434.591 544.861 453.76 544.622C462.329 544.517 469.183 545.313 476.583 546.172L477.097 546.232C480.378 546.613 488.467 548.333 495.071 550.053C520.432 556.662 542.424 566.753 562.464 580.848C580.007 593.185 596.956 611.608 604.536 626.577C607.608 632.642 606.814 629.514 611.678 641.144C620.755 662.844 626.453 691.687 630.666 737.274C631.732 748.802 634.666 760.528 634.666 771.984C634.666 774.853 634.338 775.666 633.415 775.08C609.978 760.225 588.852 747.761 557.923 747.776C535.224 747.789 512.959 752.094 491.202 759.189C478.554 763.313 465.375 768.257 453.898 774.141L447.039 777.657L454.637 777.706C463.01 777.76 470.26 779.819 479.302 784.711C490.267 790.645 485.265 787.975 494.8 794.586C497.151 796.215 502.848 800.506 507.461 804.122C523.143 816.418 543.771 832.534 565.619 838.187C575.483 840.738 592.366 841.264 603.144 839.355C612.045 837.778 625.057 834.319 633.322 829.744C634.303 829.201 635.515 828.456 636.372 827.732C637.862 826.472 637.955 825.733 636.454 824.233L634.453 822.234L630.45 818.236L616.6 805.002C597.928 788.75 571.236 773.632 537.1 773.18C535.395 773.158 522.885 773.901 522.621 772.504C522.573 772.249 522.646 772.125 523.14 771.823C523.716 771.367 528.972 770.343 534.938 769.677C555.786 767.348 579.306 772.037 600.721 782.792C609.331 787.116 614.233 789.598 623.548 797.554C633.87 806.371 642.691 814.751 646.961 827.732C649.287 834.801 650.543 841 652.965 848.722Z" fill="#A0C747"/>
<path fill-rule="evenodd" clip-rule="evenodd" d="M641.498 548.766C619.697 548.63 611.495 510.155 622.324 462.906C636.606 400.595 645.621 400.509 661.704 462.28C673.107 506.073 663.299 548.903 641.498 548.766Z" fill="#E34234"/>
<path d="M1122.79 1001.23C1122.79 1008.39 1106.19 1011.97 1072.99 1011.97H1043.83L1032.27 1011.42L1014.94 1011.14C995.498 1011.14 985.777 1007.66 985.777 1000.68C985.777 995.726 990.088 990.495 998.708 984.988C1007.51 979.298 1013.38 972.048 1016.32 963.237C1019.43 954.243 1020.99 927.903 1020.99 884.217C1020.99 840.531 1019.53 814.007 1016.59 804.646C1013.84 795.285 1009.44 788.585 1003.39 784.547C992.564 777.388 987.153 772.157 987.153 768.853C987.153 765.549 989.079 762.612 992.931 760.042C1004.3 752.333 1023.56 748.479 1050.71 748.479H1055.93C1066.39 748.479 1073.82 753.802 1078.22 764.448C1082.62 774.91 1086.2 780.142 1088.95 780.142C1091.7 780.142 1096.38 777.572 1102.98 772.432C1109.77 767.293 1117.84 762.153 1127.19 757.014C1136.73 751.874 1147.28 749.305 1158.83 749.305C1170.39 749.305 1179.19 752.333 1185.24 758.39C1191.48 764.264 1194.6 771.882 1194.6 781.243C1194.41 790.788 1191.94 797.946 1187.17 802.719C1182.4 807.491 1177.27 809.877 1171.76 809.877C1166.26 809.877 1159.02 807.675 1150.03 803.269C1141.04 798.681 1133.52 796.386 1127.47 796.386C1121.41 796.386 1114.81 798.956 1107.66 804.095C1100.5 809.051 1094.36 818.046 1089.22 831.078C1084.27 843.927 1081.8 866.045 1081.8 897.433C1081.8 928.637 1084 948.828 1088.4 958.006C1092.8 967 1099.59 975.26 1108.76 982.786C1118.11 990.311 1122.79 996.46 1122.79 1001.23Z" fill="#126C36"/>
<path d="M1343.72 760.593H1336.56C1326.84 760.593 1317.4 766.192 1308.23 777.388C1299.05 788.585 1294.47 801.618 1294.47 816.485L1293.92 820.891L1293.64 827.774V834.933L1293.92 837.135C1293.92 856.225 1298.05 871.643 1306.3 883.391C1314.55 895.138 1326.84 901.012 1343.17 901.012H1345.09C1357.75 901.012 1368.57 896.056 1377.56 886.144C1386.54 876.232 1391.04 863.108 1391.04 846.772V836.034C1390.49 831.629 1390.21 828.049 1390.21 825.296C1390.21 807.858 1385.35 792.715 1375.63 779.866C1366.09 767.017 1355.46 760.593 1343.72 760.593ZM1319.23 1005.36C1306.39 1005.36 1295.48 1009.86 1286.49 1018.85C1277.5 1027.85 1273.01 1039.14 1273.01 1052.72V1054.92C1273.01 1070.52 1279.15 1082.82 1291.44 1091.82C1303.73 1100.81 1320.51 1105.31 1341.79 1105.31H1348.94C1374.62 1105.31 1395.26 1099.43 1410.85 1087.69C1426.44 1075.94 1434.23 1062.17 1434.23 1046.39L1433.96 1044.18C1433.96 1033.72 1429.65 1025.28 1421.03 1018.85C1412.41 1012.61 1402.23 1009.49 1390.49 1009.49C1383.15 1008.58 1377.83 1008.12 1374.53 1008.12L1365.18 1007.29H1360.5L1343.99 1006.19L1332.71 1005.36H1319.23ZM1488.43 757.564C1488.43 768.027 1481.83 774.727 1468.62 777.664C1455.42 780.417 1448.81 785.832 1448.81 793.908L1449.64 799.69L1450.74 806.298L1452.12 813.457C1453.03 819.514 1453.49 828.049 1453.49 839.063C1453.49 850.076 1450.37 861.456 1444.14 873.204C1426.71 905.693 1393.15 923.498 1343.44 926.618C1327.48 927.719 1317.3 929.096 1312.9 930.748C1303.36 934.419 1298.6 940.568 1298.6 949.195C1298.6 957.822 1305.66 963.88 1319.78 967.367C1321.8 967.918 1340.05 969.662 1374.53 972.598C1409.01 975.352 1432.03 979.665 1443.59 985.539C1467.98 997.654 1480.18 1015.18 1480.18 1038.13C1480.18 1068.23 1466.7 1092.73 1439.74 1111.64C1412.96 1130.55 1377.83 1140 1334.36 1140C1303.73 1140 1278.24 1134.13 1257.88 1122.38C1248.52 1117.06 1240.91 1110.08 1235.04 1101.45C1229.36 1093.01 1226.51 1084.2 1226.51 1075.02C1226.51 1058.69 1231.37 1045.1 1241.09 1034.27C1256.68 1017.02 1264.48 1007.84 1264.48 1006.74C1264.48 1005.64 1261.09 1000.77 1254.3 992.147C1247.51 983.52 1244.12 974.526 1244.12 965.164C1244.12 955.803 1248.52 945.708 1257.33 934.878C1266.31 923.865 1270.81 917.716 1270.81 916.431C1270.81 915.146 1265.31 905.785 1254.3 888.347C1243.3 870.726 1237.79 854.022 1237.79 838.237C1237.79 822.451 1241.19 808.409 1247.97 796.111C1267.23 761.052 1303.09 743.523 1355.55 743.523H1363.53L1401.77 746.001L1415.8 746.551C1420.57 746.735 1425.43 746.827 1430.38 746.827L1459.54 744.899C1478.8 744.899 1488.43 749.121 1488.43 757.564Z" fill="#126C36"/>
<path d="M1674.42 884.492H1669.74C1645.71 884.492 1625.63 889.907 1609.49 900.737C1593.53 911.383 1585.55 924.691 1585.55 940.66V946.167C1585.55 955.528 1588.4 963.971 1594.08 971.497C1599.95 978.839 1607.47 982.51 1616.64 982.51L1619.94 983.061H1628.2C1647.27 983.061 1662.86 975.26 1674.97 959.658C1680.29 952.866 1682.95 938.916 1682.95 917.807C1682.95 916.155 1682.95 914.503 1682.95 912.851L1683.22 906.243V899.636C1683.22 889.54 1680.29 884.492 1674.42 884.492ZM1540.71 795.56C1540.71 781.977 1551.44 769.863 1572.9 759.216C1594.54 748.387 1616.92 742.972 1640.03 742.972C1640.76 742.972 1641.49 742.972 1642.23 742.972C1664.24 742.972 1681.85 745.633 1695.05 750.956C1721.83 761.603 1737.15 784.18 1741 818.688C1741.37 822.176 1741.55 845.303 1741.55 888.072C1741.55 930.656 1742.65 955.62 1744.85 962.962C1747.23 970.304 1753.47 975.719 1763.56 979.206C1773.83 982.694 1778.97 985.998 1778.97 989.118C1778.97 995.726 1775.66 1000.77 1769.06 1004.26C1755.86 1011.24 1742.83 1014.72 1729.99 1014.72C1717.34 1014.72 1707.89 1011.79 1701.66 1005.91C1690.47 995.451 1684.51 990.22 1683.77 990.22C1683.04 990.22 1672.68 994.9 1652.68 1004.26C1632.69 1013.44 1615.17 1018.03 1600.13 1018.03C1577.57 1018.03 1559.87 1011.79 1547.03 999.306C1534.2 986.824 1527.78 971.681 1527.78 953.876V946.993C1527.78 927.903 1536.03 911.108 1552.54 896.607C1569.04 882.106 1598.76 870.817 1641.68 862.741C1657.27 859.804 1667.08 857.051 1671.12 854.481C1679.19 849.342 1683.22 838.879 1683.22 823.093C1683.22 807.308 1679 795.193 1670.57 786.75C1662.13 778.306 1650.85 774.084 1636.73 774.084C1622.6 774.084 1608.94 782.344 1595.73 798.864C1582.71 815.201 1570.79 823.369 1559.97 823.369C1547.13 823.369 1540.71 814.099 1540.71 795.56Z" fill="#126C36"/>
<path d="M1861.23 1009.77C1835.37 1009.77 1822.44 1006.1 1822.44 998.755C1822.44 992.698 1825.83 987.742 1832.62 983.887C1844.9 976.912 1852.06 970.671 1854.08 965.164C1856.09 959.474 1857.1 932.951 1857.1 885.594C1857.1 838.053 1855.63 810.245 1852.7 802.168C1849.95 793.908 1844.81 787.117 1837.29 781.794C1829.77 776.471 1826.01 772.157 1826.01 768.853C1826.01 765.549 1828.49 762.429 1833.44 759.492C1845 752.7 1863.34 749.305 1888.47 749.305C1895.99 749.305 1901.86 751.874 1906.07 757.014C1907.54 758.849 1909.56 762.888 1912.13 769.128C1914.88 775.186 1916.71 778.214 1917.63 778.214C1921.11 778.031 1926.53 775.553 1933.86 770.78C1959.17 753.71 1982.1 745.175 2002.64 745.175H2012C2026.85 745.175 2040.24 748.846 2052.17 756.188C2064.09 763.53 2073.26 774.543 2079.68 789.228C2086.28 803.912 2089.58 835.942 2089.58 885.318C2089.58 934.511 2090.59 962.044 2092.61 967.918C2094.81 973.608 2100.77 978.931 2110.49 983.887C2120.4 988.843 2125.35 993.707 2125.35 998.48C2125.35 1006.74 2099.3 1010.87 2047.21 1010.87H2038.96C2022.45 1010.87 2014.2 1006.92 2014.2 999.03C2014.2 997.378 2016.22 993.432 2020.25 987.191C2024.29 980.767 2027.04 973.7 2028.51 965.99C2029.97 958.281 2030.71 932.951 2030.71 889.999C2030.71 846.864 2028.05 819.147 2022.73 806.849C2015.39 789.962 2003.19 781.518 1986.14 781.518C1973.66 781.518 1961.56 784.455 1949.82 790.329C1938.26 796.019 1929.83 804.187 1924.51 814.833C1919.37 825.296 1916.8 850.535 1916.8 890.55C1916.8 930.381 1917.9 954.518 1920.11 962.962C1922.31 971.222 1924.97 977.921 1928.08 983.061L1938.26 999.581C1938.26 1006.74 1923.87 1010.32 1895.07 1010.32L1878.29 1009.77H1861.23Z" fill="#126C36"/>
<path d="M2267.04 658.445C2267.04 666.521 2263.56 674.047 2256.59 681.022C2249.8 687.814 2243.01 691.21 2236.23 691.21C2234.76 691.577 2233.57 691.76 2232.65 691.76L2226.6 692.311C2217.43 692.311 2209.17 689.282 2201.84 683.225C2194.68 677.168 2191.11 669.367 2191.11 659.822V654.866C2191.11 645.321 2194.87 637.336 2202.39 630.912C2210.09 624.304 2218.89 621 2228.8 621H2230.17L2239.53 622.101C2245.21 622.101 2251.08 625.222 2257.14 631.463C2263.37 637.52 2266.49 643.669 2266.49 649.91L2267.04 652.388V658.445ZM2179.55 781.243C2170.01 776.654 2165.24 772.341 2165.24 768.302C2165.24 764.264 2167.17 761.052 2171.02 758.666C2184.41 750.589 2205.6 746.551 2234.58 746.551H2242.55C2252.46 746.551 2258.05 751.14 2259.34 760.318C2260.07 765.274 2260.44 798.681 2260.44 860.538C2260.44 922.213 2261.72 957.639 2264.29 966.816C2266.86 975.811 2273 982.786 2282.72 987.742C2292.44 992.514 2297.3 997.378 2297.3 1002.33C2297.3 1009.31 2274.56 1012.8 2229.07 1012.8L2220.82 1013.07H2187.25C2173.86 1013.07 2167.17 1009.77 2167.17 1003.16C2167.17 997.654 2171.2 992.331 2179.27 987.191C2187.53 982.051 2193.21 976.361 2196.33 970.12C2199.82 963.329 2201.56 947.451 2201.56 922.488L2201.84 913.677V905.142L2202.11 892.202V883.666L2202.39 875.131C2202.39 831.629 2200.92 806.298 2197.98 799.14C2195.23 791.797 2189.09 785.832 2179.55 781.243Z" fill="#126C36"/>
<path d="M2428.26 783.996C2428.26 803.637 2443.49 850.259 2473.93 923.865C2478.15 934.144 2481.55 939.283 2484.11 939.283C2486.68 939.283 2491.45 931.849 2498.42 916.981C2523.73 863.384 2536.39 822.91 2536.39 795.56C2536.39 787.667 2535.1 781.243 2532.54 776.287L2529.51 771.331C2525.11 765.457 2522.91 761.327 2522.91 758.941C2522.91 751.782 2534.55 748.203 2557.85 748.203H2575.46C2597.65 748.203 2608.75 752.425 2608.75 760.868C2608.75 765.641 2604.16 772.983 2594.99 782.895C2586 792.623 2579.49 802.076 2575.46 811.254C2571.42 820.432 2556.66 858.795 2531.16 926.343C2505.85 993.707 2486.22 1039.69 2472.28 1064.28C2458.34 1089.06 2445.32 1106.87 2433.22 1117.7C2421.29 1128.53 2409.01 1133.94 2396.35 1133.94H2389.2C2379.66 1133.94 2371.5 1131.19 2364.71 1125.68C2358.11 1120.36 2354.81 1114.76 2354.81 1108.89C2354.81 1103.2 2357.1 1098.52 2361.68 1094.85C2366.45 1091.36 2372.69 1089.61 2380.39 1089.61L2386.72 1090.16C2389.47 1090.35 2393.69 1090.44 2399.38 1090.44C2412.22 1090.44 2424.05 1082.18 2434.87 1065.66C2445.69 1049.14 2451.1 1032.44 2451.1 1015.55C2451.1 998.663 2424.96 934.878 2372.69 824.195C2367.92 814.099 2360.86 803.637 2351.5 792.807C2342.33 781.977 2337.75 774.451 2337.75 770.23C2337.75 763.255 2342.61 758.39 2352.33 755.637C2362.05 752.7 2377.64 751.232 2399.1 751.232C2420.74 751.232 2431.57 755.912 2431.57 765.274C2429.36 774.819 2428.26 781.059 2428.26 783.996Z" fill="#126C36"/>
<path d="M2789.23 884.492H2784.55C2760.52 884.492 2740.44 889.907 2724.3 900.737C2708.34 911.383 2700.36 924.691 2700.36 940.66V946.167C2700.36 955.528 2703.21 963.971 2708.89 971.497C2714.76 978.839 2722.28 982.51 2731.45 982.51L2734.75 983.061H2743.01C2762.08 983.061 2777.67 975.26 2789.78 959.658C2795.1 952.866 2797.76 938.916 2797.76 917.807C2797.76 916.155 2797.76 914.503 2797.76 912.851L2798.03 906.243V899.636C2798.03 889.54 2795.1 884.492 2789.23 884.492ZM2655.52 795.56C2655.52 781.977 2666.25 769.863 2687.71 759.216C2709.35 748.387 2731.73 742.972 2754.84 742.972C2755.57 742.972 2756.31 742.972 2757.04 742.972C2779.05 742.972 2796.66 745.633 2809.86 750.956C2836.64 761.603 2851.96 784.18 2855.81 818.688C2856.18 822.176 2856.36 845.303 2856.36 888.072C2856.36 930.656 2857.46 955.62 2859.66 962.962C2862.05 970.304 2868.28 975.719 2878.37 979.206C2888.64 982.694 2893.78 985.998 2893.78 989.118C2893.78 995.726 2890.48 1000.77 2883.87 1004.26C2870.67 1011.24 2857.64 1014.72 2844.81 1014.72C2832.15 1014.72 2822.7 1011.79 2816.47 1005.91C2805.28 995.451 2799.32 990.22 2798.58 990.22C2797.85 990.22 2787.49 994.9 2767.49 1004.26C2747.5 1013.44 2729.99 1018.03 2714.95 1018.03C2692.39 1018.03 2674.69 1011.79 2661.85 999.306C2649.01 986.824 2642.59 971.681 2642.59 953.876V946.993C2642.59 927.903 2650.84 911.108 2667.35 896.607C2683.86 882.106 2713.57 870.817 2756.49 862.741C2772.08 859.804 2781.89 857.051 2785.93 854.481C2794 849.342 2798.03 838.879 2798.03 823.093C2798.03 807.308 2793.81 795.193 2785.38 786.75C2776.94 778.306 2765.66 774.084 2751.54 774.084C2737.41 774.084 2723.75 782.344 2710.54 798.864C2697.52 815.201 2685.6 823.369 2674.78 823.369C2661.94 823.369 2655.52 814.099 2655.52 795.56Z" fill="#126C36"/>
</svg>
