<svg width="2723" height="966" viewBox="0 0 2723 966" fill="none" xmlns="http://www.w3.org/2000/svg">
<path d="M694.669 910.606C704.921 904.49 712.22 894.59 714.876 882.951C717.537 871.32 715.337 858.903 708.844 848.565C702.352 838.227 692.122 830.853 680.49 828.199C668.852 825.537 656.765 827.812 646.803 834.39C646.803 834.39 646.803 834.39 646.803 834.39C619.406 852.404 594.461 868.398 570.875 875.015C547.248 882.032 515.786 883.152 483.705 883.97C261.575 895.303 49.249 698.236 49.0189 466.498C37.5248 235.628 243.417 16.5141 483.705 16.5352C567.741 14.3472 652.957 36.7316 724.729 82.6787C752.641 100.438 778.528 121.537 801.736 145.36C801.736 145.36 801.736 145.36 801.736 145.36C779.626 120.515 754.602 98.1405 727.23 78.9381C656.902 29.2779 570.714 2.11003 483.705 0.460886C235.77 -11.4494 0.128572 208.724 0.453769 466.498C-11.5959 723.404 217.612 965.625 483.705 965.026C517.129 965.414 552.211 967.072 592.374 957.768C633.586 947.784 665.615 927.59 694.669 910.606Z" fill="#126C36"/>
<path d="M537.981 705.22C543.561 723.009 547.736 738.998 552.736 760.998C567.736 812.498 568.236 803.051 571.736 831.274C575.236 859.498 565.11 876.938 549.164 879.707C525.272 887.81 659.141 870.991 652.381 831.274C648.081 833.281 626.399 820.18 619.236 810.498C592.236 773.998 591.132 762.072 567.736 689.498C565.271 681.849 559.61 660.482 559.236 658.498C557.097 647.099 556.212 639.749 554.236 626.498C551.34 607.085 548.452 572.21 551.562 552.292C560.693 493.822 585.121 440.544 627.174 387.378C640.554 370.464 643.583 366.904 657.693 351.517C676.189 331.347 695.523 313.397 715.996 296.269C721.675 291.517 730.824 283.926 736.328 279.4C744.79 272.44 750.624 268.261 759.518 261.644C777.896 247.971 778.158 248.118 762.841 263.523C746.013 280.448 730.819 296.627 713.848 317.403C708.683 323.725 702.774 330.957 700.716 333.473C669.844 371.209 646.499 418.461 629.549 463.305C616.438 502.067 610.877 532.524 609.149 575.031C609.076 576.818 608.997 578.437 608.926 579.9V579.9C608.582 586.953 608.414 590.395 609.971 591.583C611.455 592.715 614.509 591.797 620.468 590.006L620.485 590.001C621.777 589.613 623.205 589.184 624.784 588.726C649.056 581.68 682.529 568.083 701.077 557.734C737.027 537.676 766.509 512.366 788.111 478.327C816.337 433.853 828.455 382.856 843.394 332.896C845.202 326.849 848.57 315.154 850.878 306.908C860.929 270.989 874.469 234.267 888.469 204.956C891.85 197.88 894.827 192.085 898.376 185.32C900.436 181.39 905.309 172.977 909.203 166.623C919.042 150.565 925.149 140.94 933.249 129.492C937.158 123.449 938.252 121.995 939.966 119.293C941.016 117.637 941.254 116.498 938.986 116.498C917.238 116.498 845.69 151.687 827.89 159.716C792.032 175.89 756.471 195.285 724.565 216.071C713.267 223.432 685.701 243.043 680.29 247.569C679.19 248.491 673.786 252.993 668.282 257.577C640.172 280.987 613.686 308.925 592.613 337.394C575.268 360.823 559.143 387.417 547.468 414.357C536.98 439.845 536.48 442.344 529.732 462.503L526.52 472.626C520.918 463.241 514.917 454.321 508.465 445.497C495.582 427.883 487.323 420.736 474.935 410.197C469.599 405.659 464.454 401.762 458.892 398.106C438.5 384.707 436.55 382.407 405.328 373.396C391.686 369.458 377.873 367.463 364.441 366.548C348.357 365.451 331.645 365.846 315.543 367.986C278.263 372.941 233.364 386.784 189.458 406.861C182.578 410.006 176.854 412.663 176.738 412.763C176.622 412.864 182.026 413.065 188.746 413.209C203.254 413.857 204.044 414.011 205.256 414.357C208.758 415.357 208.465 415.182 212.26 416.356C220.308 418.847 233.85 426.171 241.76 431.533C278.208 456.24 315.93 494.681 359.073 506.744C391.731 515.876 421.773 514.894 454.587 503.622C468.434 497.818 473.377 495.4 475.171 494.352C476.94 493.32 477.71 493.238 477.94 492.82C478.276 492.211 475.263 488.792 475.069 488.531C449.745 454.512 408.31 423.003 367.551 411.977C350.381 407.334 339.618 406.026 317.849 405.94C306.733 405.897 297.952 405.55 298.336 405.171C300.223 403.3 319.607 401.359 338.776 401.121C347.345 401.015 354.198 401.811 361.599 402.67L362.113 402.73C365.394 403.111 373.482 404.831 380.087 406.551C405.448 413.16 427.44 423.251 447.479 437.346C465.022 449.683 481.972 468.106 489.552 483.075C492.623 489.14 491.829 486.012 496.694 497.642C505.771 519.342 511.469 548.185 515.682 593.772C516.748 605.3 519.681 617.026 519.681 628.482C519.681 631.351 519.353 632.164 518.431 631.578C494.994 616.723 473.868 604.259 442.938 604.275C420.24 604.288 397.975 608.592 376.217 615.687C363.57 619.811 350.39 624.755 338.914 630.639L332.054 634.155L339.653 634.204C348.025 634.258 355.275 636.317 364.317 641.209C375.283 647.143 370.281 644.473 379.816 651.084C382.166 652.714 387.863 657.005 392.476 660.62C408.159 672.916 428.787 689.032 450.635 694.685C460.498 697.236 477.382 697.762 488.16 695.853C497.06 694.276 510.072 690.817 518.337 686.242C519.318 685.699 520.53 684.954 521.388 684.23C522.878 682.97 522.971 682.231 521.47 680.731L519.469 678.732L515.466 674.734L501.615 661.5C482.944 645.248 456.251 630.13 422.115 629.678C420.41 629.656 407.9 630.399 407.636 629.002C407.588 628.747 407.661 628.623 408.156 628.321C408.732 627.865 413.988 626.841 419.954 626.175C440.802 623.846 464.322 628.535 485.736 639.29C494.347 643.614 499.249 646.096 508.564 654.052C518.886 662.869 527.707 671.249 531.977 684.23C534.302 691.299 535.559 697.498 537.981 705.22Z" fill="#A0C747"/>
<path fill-rule="evenodd" clip-rule="evenodd" d="M526.527 404.264C504.726 404.128 496.524 365.653 507.354 318.404C521.635 256.093 530.65 256.007 546.734 317.778C558.136 361.571 548.328 404.401 526.527 404.264Z" fill="#E34234"/>
<path d="M951.749 819.731C951.749 826.89 935.15 830.469 901.951 830.469H872.788L861.233 829.918L843.9 829.643C824.457 829.643 814.736 826.155 814.736 819.18C814.736 814.224 819.047 808.993 827.667 803.486C836.471 797.796 842.341 790.546 845.275 781.735C848.393 772.741 849.952 746.401 849.952 702.715C849.952 659.029 848.485 632.505 845.55 623.144C842.799 613.783 838.397 607.083 832.344 603.045C821.523 595.886 816.112 590.655 816.112 587.351C816.112 584.047 818.038 581.11 821.89 578.54C833.261 570.831 852.52 566.977 879.666 566.977H884.894C895.348 566.977 902.777 572.3 907.179 582.946C911.581 593.408 915.157 598.64 917.909 598.64C920.66 598.64 925.337 596.07 931.94 590.93C938.727 585.791 946.797 580.651 956.151 575.512C965.689 570.372 976.235 567.803 987.791 567.803C999.346 567.803 1008.15 570.831 1014.2 576.888C1020.44 582.762 1023.56 590.38 1023.56 599.741C1023.37 609.286 1020.9 616.444 1016.13 621.217C1011.36 625.989 1006.22 628.375 1000.72 628.375C995.219 628.375 987.974 626.173 978.987 621.768C969.999 617.179 962.479 614.884 956.426 614.884C950.374 614.884 943.771 617.454 936.617 622.594C929.464 627.55 923.319 636.544 918.184 649.576C913.232 662.425 910.755 684.543 910.755 715.931C910.755 747.135 912.956 767.326 917.358 776.504C921.76 785.498 928.547 793.758 937.718 801.284C947.072 808.809 951.749 814.959 951.749 819.731Z" fill="#126C36"/>
<path d="M1172.68 579.091H1165.52C1155.8 579.091 1146.36 584.69 1137.18 595.886C1128.01 607.083 1123.43 620.116 1123.43 634.983L1122.88 639.389L1122.6 646.272V653.431L1122.88 655.633C1122.88 674.723 1127 690.142 1135.26 701.889C1143.51 713.636 1155.8 719.51 1172.13 719.51H1174.05C1186.71 719.51 1197.53 714.554 1206.52 704.642C1215.5 694.73 1220 681.606 1220 665.27V654.532C1219.45 650.127 1219.17 646.547 1219.17 643.794C1219.17 626.356 1214.31 611.213 1204.59 598.364C1195.05 585.516 1184.41 579.091 1172.68 579.091ZM1148.19 823.861C1135.35 823.861 1124.44 828.358 1115.45 837.352C1106.46 846.346 1101.97 857.635 1101.97 871.218V873.421C1101.97 889.023 1108.11 901.321 1120.4 910.315C1132.69 919.309 1149.47 923.806 1170.75 923.806H1177.9C1203.58 923.806 1224.22 917.933 1239.81 906.185C1255.4 894.438 1263.19 880.671 1263.19 864.885L1262.92 862.683C1262.92 852.22 1258.61 843.777 1249.99 837.352C1241.37 831.111 1231.19 827.991 1219.45 827.991C1212.11 827.073 1206.79 826.614 1203.49 826.614L1194.14 825.788H1189.46L1172.95 824.687L1161.67 823.861H1148.19ZM1317.39 576.062C1317.39 586.525 1310.79 593.225 1297.58 596.162C1284.38 598.915 1277.77 604.33 1277.77 612.406L1278.6 618.188L1279.7 624.796L1281.08 631.955C1281.99 638.012 1282.45 646.547 1282.45 657.561C1282.45 668.574 1279.33 679.954 1273.1 691.702C1255.67 724.191 1222.11 741.996 1172.4 745.116C1156.44 746.217 1146.26 747.594 1141.86 749.246C1132.32 752.917 1127.55 759.066 1127.55 767.693C1127.55 776.32 1134.62 782.378 1148.74 785.865C1150.76 786.416 1169.01 788.16 1203.49 791.096C1237.97 793.85 1260.99 798.163 1272.55 804.037C1296.94 816.152 1309.14 833.681 1309.14 856.625C1309.14 886.728 1295.66 911.233 1268.69 930.139C1241.92 949.045 1206.79 958.498 1163.32 958.498C1132.69 958.498 1107.2 952.624 1086.84 940.877C1077.48 935.554 1069.87 928.579 1064 919.952C1058.31 911.508 1055.47 902.697 1055.47 893.52C1055.47 877.183 1060.33 863.6 1070.05 852.771C1085.64 835.517 1093.44 826.339 1093.44 825.238C1093.44 824.136 1090.05 819.272 1083.26 810.645C1076.47 802.018 1073.08 793.024 1073.08 783.663C1073.08 774.301 1077.48 764.206 1086.29 753.376C1095.27 742.363 1099.77 736.214 1099.77 734.929C1099.77 733.644 1094.26 724.283 1083.26 706.845C1072.25 689.224 1066.75 672.52 1066.75 656.735C1066.75 640.949 1070.15 626.907 1076.93 614.609C1096.19 579.55 1132.05 562.021 1184.51 562.021H1192.48L1230.73 564.499L1244.76 565.049C1249.53 565.233 1254.39 565.325 1259.34 565.325L1288.5 563.397C1307.76 563.397 1317.39 567.619 1317.39 576.062Z" fill="#126C36"/>
<path d="M1503.38 702.99H1498.7C1474.67 702.99 1454.59 708.405 1438.45 719.235C1422.49 729.881 1414.51 743.189 1414.51 759.158V764.665C1414.51 774.026 1417.35 782.469 1423.04 789.995C1428.91 797.337 1436.43 801.008 1445.6 801.008L1448.9 801.559H1457.16C1476.23 801.559 1491.82 793.758 1503.93 778.156C1509.25 771.364 1511.91 757.414 1511.91 736.305C1511.91 734.653 1511.91 733.001 1511.91 731.349L1512.18 724.742V718.134C1512.18 708.038 1509.25 702.99 1503.38 702.99ZM1369.67 614.058C1369.67 600.475 1380.4 588.361 1401.86 577.714C1423.5 566.885 1445.88 561.47 1468.99 561.47C1469.72 561.47 1470.45 561.47 1471.19 561.47C1493.2 561.47 1510.81 564.131 1524.01 569.455C1550.79 580.101 1566.11 602.678 1569.96 637.186C1570.32 640.674 1570.51 663.802 1570.51 706.57C1570.51 749.154 1571.61 774.118 1573.81 781.46C1576.19 788.802 1582.43 794.217 1592.52 797.704C1602.79 801.192 1607.93 804.496 1607.93 807.616C1607.93 814.224 1604.62 819.272 1598.02 822.76C1584.81 829.735 1571.79 833.222 1558.95 833.222C1546.3 833.222 1536.85 830.285 1530.61 824.412C1519.43 813.949 1513.47 808.718 1512.73 808.718C1512 808.718 1501.63 813.398 1481.64 822.76C1461.65 831.937 1444.13 836.526 1429.09 836.526C1406.53 836.526 1388.83 830.285 1375.99 817.804C1363.15 805.322 1356.73 790.179 1356.73 772.374V765.491C1356.73 746.401 1364.99 729.606 1381.5 715.105C1398 700.604 1427.72 689.316 1470.64 681.239C1486.23 678.302 1496.04 675.549 1500.08 672.979C1508.15 667.84 1512.18 657.377 1512.18 641.591C1512.18 625.806 1507.96 613.691 1499.53 605.248C1491.09 596.804 1479.81 592.582 1465.68 592.582C1451.56 592.582 1437.9 600.842 1424.69 617.362C1411.67 633.699 1399.75 641.867 1388.92 641.867C1376.09 641.867 1369.67 632.597 1369.67 614.058Z" fill="#126C36"/>
<path d="M1690.19 828.266C1664.33 828.266 1651.4 824.595 1651.4 817.253C1651.4 811.196 1654.79 806.24 1661.57 802.385C1673.86 795.41 1681.02 789.169 1683.03 783.663C1685.05 777.972 1686.06 751.449 1686.06 704.092C1686.06 656.551 1684.59 628.743 1681.66 620.666C1678.91 612.406 1673.77 605.615 1666.25 600.292C1658.73 594.969 1654.97 590.655 1654.97 587.351C1654.97 584.047 1657.45 580.927 1662.4 577.99C1673.96 571.198 1692.3 567.803 1717.43 567.803C1724.95 567.803 1730.81 570.372 1735.03 575.512C1736.5 577.347 1738.52 581.386 1741.09 587.626C1743.84 593.684 1745.67 596.712 1746.59 596.712C1750.07 596.529 1755.48 594.051 1762.82 589.278C1788.13 572.208 1811.06 563.673 1831.6 563.673H1840.96C1855.81 563.673 1869.2 567.344 1881.13 574.686C1893.05 582.028 1902.22 593.041 1908.64 607.726C1915.24 622.41 1918.54 654.44 1918.54 703.816C1918.54 753.009 1919.55 780.542 1921.57 786.416C1923.77 792.106 1929.73 797.429 1939.45 802.385C1949.36 807.341 1954.31 812.205 1954.31 816.978C1954.31 825.238 1928.26 829.368 1876.17 829.368H1867.92C1851.41 829.368 1843.16 825.421 1843.16 817.528C1843.16 815.876 1845.18 811.93 1849.21 805.689C1853.25 799.265 1856 792.198 1857.46 784.488C1858.93 776.779 1859.67 751.449 1859.67 708.497C1859.67 665.362 1857.01 637.645 1851.69 625.347C1844.35 608.46 1832.15 600.016 1815.1 600.016C1802.62 600.016 1790.52 602.953 1778.78 608.827C1767.22 614.517 1758.79 622.685 1753.47 633.331C1748.33 643.794 1745.76 669.033 1745.76 709.048C1745.76 748.879 1746.86 773.016 1749.06 781.46C1751.27 789.72 1753.93 796.42 1757.04 801.559L1767.22 818.079C1767.22 825.238 1752.82 828.817 1724.03 828.817L1707.25 828.266H1690.19Z" fill="#126C36"/>
<path d="M2096 476.943C2096 485.02 2092.51 492.545 2085.54 499.52C2078.76 506.312 2071.97 509.708 2065.18 509.708C2063.72 510.075 2062.53 510.258 2061.61 510.258L2055.56 510.809C2046.38 510.809 2038.13 507.78 2030.79 501.723C2023.64 495.666 2020.06 487.865 2020.06 478.32V473.364C2020.06 463.819 2023.82 455.834 2031.34 449.41C2039.05 442.802 2047.85 439.498 2057.76 439.498H2059.13L2068.49 440.599C2074.17 440.599 2080.04 443.72 2086.09 449.961C2092.33 456.018 2095.45 462.167 2095.45 468.408L2096 470.886V476.943ZM2008.51 599.741C1998.97 595.152 1994.2 590.839 1994.2 586.8C1994.2 582.762 1996.13 579.55 1999.98 577.164C2013.37 569.087 2034.55 565.049 2063.53 565.049H2071.51C2081.42 565.049 2087.01 569.638 2088.3 578.816C2089.03 583.772 2089.4 617.179 2089.4 679.036C2089.4 740.711 2090.68 776.137 2093.25 785.314C2095.82 794.309 2101.96 801.284 2111.68 806.24C2121.4 811.012 2126.26 815.876 2126.26 820.832C2126.26 827.807 2103.52 831.295 2058.03 831.295L2049.78 831.57H2016.21C2002.82 831.57 1996.13 828.266 1996.13 821.658C1996.13 816.152 2000.16 810.829 2008.23 805.689C2016.49 800.55 2022.17 794.859 2025.29 788.618C2028.78 781.827 2030.52 765.95 2030.52 740.986L2030.79 732.176V723.64L2031.07 710.7V702.164L2031.34 693.629C2031.34 650.127 2029.88 624.796 2026.94 617.638C2024.19 610.295 2018.05 604.33 2008.51 599.741Z" fill="#126C36"/>
<path d="M2257.22 602.494C2257.22 622.135 2272.45 668.757 2302.89 742.363C2307.11 752.642 2310.51 757.781 2313.07 757.781C2315.64 757.781 2320.41 750.347 2327.38 735.479C2352.69 681.882 2365.35 641.408 2365.35 614.058C2365.35 606.165 2364.06 599.741 2361.5 594.785L2358.47 589.829C2354.07 583.955 2351.87 579.825 2351.87 577.439C2351.87 570.281 2363.51 566.701 2386.81 566.701H2404.42C2426.61 566.701 2437.71 570.923 2437.71 579.366C2437.71 584.139 2433.12 591.481 2423.95 601.393C2414.96 611.121 2408.45 620.574 2404.42 629.752C2400.38 638.93 2385.62 677.293 2360.12 744.841C2334.81 812.205 2315.18 858.186 2301.24 882.782C2287.3 907.562 2274.28 925.366 2262.18 936.196C2250.25 947.026 2237.96 952.441 2225.31 952.441H2218.16C2208.62 952.441 2200.46 949.687 2193.67 944.181C2187.07 938.858 2183.76 933.259 2183.76 927.386C2183.76 921.695 2186.06 917.015 2190.64 913.344C2195.41 909.856 2201.65 908.112 2209.35 908.112L2215.68 908.663C2218.43 908.847 2222.65 908.938 2228.33 908.938C2241.17 908.938 2253 900.678 2263.83 884.159C2274.65 867.639 2280.06 850.935 2280.06 834.048C2280.06 817.161 2253.92 753.376 2201.65 642.693C2196.88 632.597 2189.82 622.135 2180.46 611.305C2171.29 600.475 2166.71 592.95 2166.71 588.728C2166.71 581.753 2171.57 576.888 2181.29 574.135C2191.01 571.198 2206.6 569.73 2228.06 569.73C2249.7 569.73 2260.52 574.411 2260.52 583.772C2258.32 593.317 2257.22 599.557 2257.22 602.494Z" fill="#126C36"/>
<path d="M2618.19 702.99H2613.51C2589.48 702.99 2569.4 708.405 2553.26 719.235C2537.3 729.881 2529.32 743.189 2529.32 759.158V764.665C2529.32 774.026 2532.17 782.469 2537.85 789.995C2543.72 797.337 2551.24 801.008 2560.41 801.008L2563.71 801.559H2571.97C2591.04 801.559 2606.63 793.758 2618.74 778.156C2624.06 771.364 2626.72 757.414 2626.72 736.305C2626.72 734.653 2626.72 733.001 2626.72 731.349L2626.99 724.742V718.134C2626.99 708.038 2624.06 702.99 2618.19 702.99ZM2484.48 614.058C2484.48 600.475 2495.21 588.361 2516.67 577.714C2538.31 566.885 2560.69 561.47 2583.8 561.47C2584.53 561.47 2585.27 561.47 2586 561.47C2608.01 561.47 2625.62 564.131 2638.82 569.455C2665.6 580.101 2680.92 602.678 2684.77 637.186C2685.14 640.674 2685.32 663.802 2685.32 706.57C2685.32 749.154 2686.42 774.118 2688.62 781.46C2691.01 788.802 2697.24 794.217 2707.33 797.704C2717.6 801.192 2722.74 804.496 2722.74 807.616C2722.74 814.224 2719.43 819.272 2712.83 822.76C2699.63 829.735 2686.6 833.222 2673.76 833.222C2661.11 833.222 2651.66 830.285 2645.43 824.412C2634.24 813.949 2628.28 808.718 2627.54 808.718C2626.81 808.718 2616.45 813.398 2596.45 822.76C2576.46 831.937 2558.94 836.526 2543.9 836.526C2521.34 836.526 2503.64 830.285 2490.81 817.804C2477.97 805.322 2471.55 790.179 2471.55 772.374V765.491C2471.55 746.401 2479.8 729.606 2496.31 715.105C2512.82 700.604 2542.53 689.316 2585.45 681.239C2601.04 678.302 2610.85 675.549 2614.89 672.979C2622.96 667.84 2626.99 657.377 2626.99 641.591C2626.99 625.806 2622.77 613.691 2614.34 605.248C2605.9 596.804 2594.62 592.582 2580.5 592.582C2566.37 592.582 2552.71 600.842 2539.5 617.362C2526.48 633.699 2514.56 641.867 2503.74 641.867C2490.9 641.867 2484.48 632.597 2484.48 614.058Z" fill="#126C36"/>
</svg>
